<?xml version="1.0" encoding="utf-8"?>
<!-- Generator: Adobe Illustrator 23.1.0, SVG Export Plug-In . SVG Version: 6.00 Build 0)  -->
<svg version="1.1" id="Layer_1" xmlns="http://www.w3.org/2000/svg" xmlns:xlink="http://www.w3.org/1999/xlink" x="0px" y="0px"
	 viewBox="0 0 400 400" style="enable-background:new 0 0 400 400;" xml:space="preserve">
<style type="text/css">
	.st0{stroke:#000000;stroke-width:5.5;stroke-miterlimit:10;}
	.st1{stroke:#000000;stroke-width:4;stroke-miterlimit:10;}
</style>
<circle cx="179.2" cy="189.5" r="9.1"/>
<path d="M56.8,109.9"/>
<path d="M373.8,78.2"/>
<line class="st0" x1="217.9" y1="124.2" x2="100.2" y2="320.2"/>
<line class="st1" x1="56.8" y1="109.9" x2="107.5" y2="160.9"/>
<line class="st1" x1="107.5" y1="160.9" x2="179.2" y2="189.5"/>
<line class="st1" x1="179.2" y1="189.5" x2="128" y2="134.1"/>
<line class="st1" x1="128" y1="134.1" x2="57" y2="109.9"/>
<line class="st1" x1="244.5" y1="118.7" x2="179.2" y2="189.5"/>
<line class="st1" x1="244.5" y1="118.7" x2="373.8" y2="78.2"/>
<line class="st1" x1="275.8" y1="167.5" x2="179.2" y2="189.5"/>
<line class="st1" x1="275.8" y1="167.5" x2="373.8" y2="78.2"/>
<line class="st1" x1="100.2" y1="320.2" x2="139" y2="271.4"/>
<line class="st1" x1="100.2" y1="320.2" x2="125.2" y2="263.8"/>
<line class="st1" x1="125.2" y1="263.8" x2="139" y2="271.4"/>
<circle cx="217.9" cy="124.2" r="9.7"/>
</svg>
