<?xml version="1.0" encoding="utf-8"?>
<!-- Generator: Adobe Illustrator 24.0.1, SVG Export Plug-In . SVG Version: 6.00 Build 0)  -->
<svg version="1.1" id="Layer_1" xmlns="http://www.w3.org/2000/svg" xmlns:xlink="http://www.w3.org/1999/xlink" x="0px" y="0px"
	 viewBox="0 0 720 720" style="enable-background:new 0 0 720 720;" xml:space="preserve">
<style type="text/css">
	.st0{fill:#202020;}
</style>
<g>
	<g>
		<g>
			<g>
				<g>
					<path class="st0" d="M496.3,270c0.7-0.6-1.2-1.6-1.4-1.9C494.4,269.5,496.8,270.3,496.3,270z"/>
					<polygon class="st0" points="490.6,284.1 490.1,283.4 490.2,286.4 					"/>
					<path class="st0" d="M480.7,293.9c3.4,1.7,3.3-3.9,5.9-4.7l0.9,0.3l-1.3-2.8C484.5,289.1,483,293.2,480.7,293.9z"/>
					<path class="st0" d="M470.1,293.2c1.3,0.7-0.4,1.9,1.6-0.8c-0.2,0-0.3,0-0.5-0.1C471,292.5,470.7,292.8,470.1,293.2z"/>
					<path class="st0" d="M471.2,292.3C472.2,291.3,469.7,292.1,471.2,292.3L471.2,292.3z"/>
					<path class="st0" d="M466.7,297.3l0.6-2.2c-0.8-0.4-2.2,0.6-2.2-0.3C464.1,296.6,465,297,466.7,297.3z"/>
					<path class="st0" d="M467,300.5l0.4-1C467.1,299.3,466.8,299.3,467,300.5z"/>
					<path class="st0" d="M468.3,297.2l-0.9,2.2c0.6,0.3,1.4,1.1,0.5-0.9C468.4,299.4,468.1,298.4,468.3,297.2z"/>
					<path class="st0" d="M469.6,296.8c1.3-0.1,2.7-0.7,2,1.5C474.1,295.6,472,294.1,469.6,296.8z"/>
					<path class="st0" d="M482.7,297.1l1.8-0.2l0.1-1.7C484.6,296,481.9,296.4,482.7,297.1z"/>
					<path class="st0" d="M456.3,303.5c0.4,0.7,1.8,1.2,2.5,1.8l0.6-1.6C458.4,303.8,457.1,304.3,456.3,303.5z"/>
					<path class="st0" d="M458.8,305.3l-0.9,2.4C459.5,306.6,459.4,305.9,458.8,305.3z"/>
					<polygon class="st0" points="469.3,303.7 470.2,299.3 468.8,304.2 					"/>
					<polygon class="st0" points="449.7,308.5 449.6,306.4 449.5,309.8 					"/>
					<path class="st0" d="M445.6,312.2c-0.2-1.7-2.5-1.2-2.3-2.5c-1,1.1-1.3,2.9-1.5,4.5C442.4,312.9,443.5,312.3,445.6,312.2z"/>
					<path class="st0" d="M441.2,316.7c0.3-0.7,0.4-1.5,0.6-2.5C441.5,314.8,441.2,315.6,441.2,316.7z"/>
					<path class="st0" d="M454.8,309.7c-0.4-0.3-1.4-1-2.7-0.6l2,1.2C454.3,310.1,454.5,309.9,454.8,309.7z"/>
					<path class="st0" d="M454.1,310.2L454.1,310.2c-0.8,0.5-1.4,0.9-1.6,1C452.7,311.1,453.2,310.8,454.1,310.2z"/>
					<path class="st0" d="M454.9,309.6c-0.1,0-0.1,0.1-0.2,0.1C455,309.8,455,309.8,454.9,309.6z"/>
					<path class="st0" d="M463.7,305.8c-0.2,1.7-1.5,4.4,1.7,4.2C465.1,308.3,463.3,308.4,463.7,305.8z"/>
					<path class="st0" d="M457.4,311l2.1-1.1c-0.4-0.4-1.2-0.8-1.1-1.7L457.4,311z"/>
					<polygon class="st0" points="457,312.3 457.4,311 456.6,311.4 					"/>
					<path class="st0" d="M445.6,315.8c-0.2,1.4-1.1,2.1-2,3c1.3-0.5,2.5-1.1,3.6-2C447,316.2,446.7,314.9,445.6,315.8z"/>
					<path class="st0" d="M449.9,313.3c0,0.1-0.1,0.2-0.1,0.2C450,313.6,450.1,313.5,449.9,313.3z"/>
					<path class="st0" d="M433.9,326.2c0.1,0.1,0.3,0.1,0.4,0.2c-0.1-0.1-0.1-0.2-0.2-0.3L433.9,326.2z"/>
					<path class="st0" d="M447.7,317c1-0.3,1.2-1.1,1.3-1.9c-0.5,0.6-1,1.2-1.7,1.8C447.4,317.1,447.5,317.3,447.7,317z"/>
					<path class="st0" d="M439.1,319.5c0.7,0,1.4,0,2.1-0.1C440.4,319.2,438.9,319,439.1,319.5z"/>
					<path class="st0" d="M449.2,313.2c0-0.1,0-0.1,0.1-0.2C448.7,312.9,448.9,313.1,449.2,313.2z"/>
					<path class="st0" d="M449.2,313.2c-0.2,0.6-0.2,1.2-0.2,1.8c0.4-0.5,0.7-1,0.9-1.6C449.6,313.4,449.4,313.3,449.2,313.2z"/>
					<path class="st0" d="M439.2,339.4c-1.1-1.7,0-4.7,3.1-4.4c0.9-2.5-4.2-6.8-8-8.5c0.5,0.7,1,1.4-0.2,3.7
						c1.3,0.4,5.6-1.1,5.1,1.5c-1.8,2.7-2.4,1-4.2,1c2.5,1.2-0.9,5.2,1.8,7.7l1.4-2.6C438.6,338.1,438.3,339.4,439.2,339.4z"/>
					<path class="st0" d="M437.9,323.9l0.6-0.8c-1.1,0.4-2.2,0.2-4.2-0.1c-0.7,1.7-0.5,2.5-0.2,3.1l3.9-2.6L437.9,323.9z"/>
					<path class="st0" d="M441.9,320.5c0.7,2.2-0.5,4.3,2,5.3c2.1-1.8,0.5-2.6,1.2-4.4c-3.2,3.2,0.3-1.7-3-0.7
						c0.5-0.8,1-1.4,1.6-1.9c-0.8,0.3-1.6,0.5-2.4,0.6c0.1,0,0.1,0,0.2,0l0,0l0,0c0.3,0.1,0.5,0.2,0.2,0.2c0,0,0,0.1,0,0.1
						C441.7,320,441.8,320.3,441.9,320.5c-1.3,0.4-0.5-0.3-0.3-0.8c-0.1-0.1-0.1-0.2-0.2-0.3c0,0,0,0,0,0l-2.9,3.7
						C439.5,322.8,440.4,322,441.9,320.5z"/>
					<path class="st0" d="M466.4,315.2c-0.2-0.1-0.3-0.2-0.4-0.3C465.9,315.2,465.9,315.5,466.4,315.2z"/>
					<path class="st0" d="M464.1,315.3c0.1-0.4-0.3-1.3,0.7-1.8c1.1-0.1,0.6,0.8,1.1,1.3c0.1-0.9,0.8-2.6-1.4-2.2l-0.1,0.4
						c-1.9,0.6-5.4-0.1-5.3-0.5C460.8,313.8,462,314.6,464.1,315.3z"/>
					<path class="st0" d="M453.3,318.5l-2.3,3.1l2.7,0.3l-0.8-0.8C454.8,320.1,453.6,319.3,453.3,318.5z"/>
					<polygon class="st0" points="432.9,325.6 431.9,323.5 432.2,327.4 					"/>
					<polygon class="st0" points="429.2,328.8 428.2,327.1 427.9,328.8 					"/>
					<path class="st0" d="M187.3,386.4c-0.3-0.3-0.7-0.6-1-1C186.6,385.9,187,386.2,187.3,386.4z"/>
					<path class="st0" d="M191.1,394.8l1-0.3C191.4,394.4,191,394.4,191.1,394.8z"/>
					<path class="st0" d="M329.8,390.4c-2.2-1.1-4.8-3.1-3.8-1.1l1.3,1.8C328.1,390.3,329,390.2,329.8,390.4z"/>
					<path class="st0" d="M255,421.5c0.2,0.2,0.3,0.4,0.5,0.7c0.4-0.7,0.7-1.4,1.1-2.1C256.1,420.5,255.6,421,255,421.5z"/>
					<path class="st0" d="M253.8,430.5l-2.3-1.4C252,429.5,252.8,430,253.8,430.5z"/>
					<path class="st0" d="M177.8,338l-2.1-1.6C175.6,338.7,176.8,337.7,177.8,338z"/>
					<path class="st0" d="M389.5,358.2c-1.6,0-2.7,0.4-3.6,0.8C388,359.1,390.1,359.9,389.5,358.2z"/>
					<path class="st0" d="M209.6,380c-0.6-0.4-1.1-0.4-1.5-0.2C208.7,380.2,209.2,380.3,209.6,380z"/>
					<path class="st0" d="M382.6,361.1c0.3,0.1,0.6,0,0.9,0c0.6-0.8,1.3-1.6,2.4-2.2C384.4,358.8,382.9,359.1,382.6,361.1z"/>
					<path class="st0" d="M248.3,188.1c0.2,0,0.3-0.1,0.5,0C248.7,187.8,248.5,187.9,248.3,188.1z"/>
					<path class="st0" d="M286.8,198.6c-0.2,0-0.2-0.2-0.4-0.3c0,0.1,0,0.1,0,0.2C286.5,198.5,286.6,198.6,286.8,198.6z"/>
					<path class="st0" d="M413,339.6C413.8,338.9,413,339.4,413,339.6L413,339.6z"/>
					<path class="st0" d="M422.1,343.6c0,0.3,0,0.7,0.3,1.1C422.2,344.2,422.1,343.9,422.1,343.6z"/>
					<path class="st0" d="M381.2,377.9C381.1,378,381.1,378,381.2,377.9C381.6,378.2,381.5,378.1,381.2,377.9z"/>
					<path class="st0" d="M414.8,339.5c-0.5,0-1,0.1-1.4,0.3C413.7,339.8,414.1,339.7,414.8,339.5z"/>
					<path class="st0" d="M414.1,338.8c0.3-0.1,0.6-0.3,0.8-0.4C414.8,338.1,414.6,338,414.1,338.8z"/>
					<path class="st0" d="M411.9,340.6c0.5-0.4,1-0.6,1.5-0.8c-0.3,0-0.4,0-0.4-0.1C412.8,339.8,412.5,340.1,411.9,340.6z"/>
					<path class="st0" d="M202.6,264.9c0.1,0,0.2-0.1,0.3-0.1C202.4,263.5,202.4,264,202.6,264.9z"/>
					<path class="st0" d="M312.3,420.8c0,0,0-0.1,0.1-0.1c-0.1,0-0.1,0-0.2,0L312.3,420.8z"/>
					<path class="st0" d="M309.1,423.5c0.8-3,1.8-3,3.2-2.9l-3.1-5.6C309.2,417.9,309.2,420.7,309.1,423.5z"/>
					<path class="st0" d="M180.7,365.3c-0.5,1.1-1,2.2-1.4,3.3c-3.8-3-3.1-6-5.4-2.6c1.7-0.2,2.7,0.5,3.4,1.5c0.7,1,1.1,2.5,1.5,3.9
						c0.3,1.4,0.9,2.9,1.6,3.9c0.8,1,1.8,1.5,3.5,1.2l-0.8,2.3c-0.1-0.6-0.5-0.5-0.6-1.1c-1,2.4,0.4,2.7,2.1,3.1
						c1.7,0.3,3.8,0.6,4.1,3.1c0.1,1.8-0.3,3.2-1.5,2.5l3.1,2.8c0.4,1.1-0.8,1.3-1.2,0.3c1,1.7,2.1,3.4,3.1,5l-0.2,0.1
						c1.4,0.2,3.7,1,4.8,1.4c-0.1,1.8-1-0.3-1.5,0.5c1,0.6,2,1.2,3.1,1.8c-0.4,1-1.3,1.2-2.2,0.9c-0.5-0.2-1-0.4-1.4-0.8
						c-0.4-0.4-0.8-0.9-1-1.4c-2.2,3.1-1.4,3.5-0.1,4c1.3,0.5,3,1.2,3.5,5.1c-0.9-0.7-1.8-1.3-2.6-2.1c-1,2-0.7,3.3-0.3,4.6
						c0.3,0.7,0.6,1.4,0.9,2.2c0.3,0.8,0.6,1.7,0.8,2.8c0.2-0.8,0-3.2,0.5-5.2c0.5-2,1.4-3.5,3.1-2.6c0.2,1.1,0.9,2.3,3.2,2.9
						c-0.9,0.8-0.9,1.5-0.5,2.2c0.4,0.7,1.3,1.3,2.2,2.1l-2.4,2.1c2.6,1.3,3.5-0.1,5.7-0.1c1.9,2.2,0.8,4.5,0.1,6.5
						c1.8,1.7,1.7,0.4,1.9-0.9c0.1-1.3,0.5-2.7,2.9-1.2c1.2,1.7,2.7,2.6,4.4,3.2c0.4,0.2,0.9,0.3,1.3,0.4c0.5,0.1,1,0.2,1.5,0.3
						c1,0.2,2.2,0.3,3.4,0.4c2,2.2-1.3,1.6-0.8,2.8c1.1-0.4,2.3-0.8,3.3-1.3c0.5,0.3,0,0.9-0.2,1.3c1.1,0,1.5-0.8,2-1.4
						c0.5-0.7,1-1.2,2.6-1.1c1-1.5,2,0.2,3.5,2c1.5,1.7,3.7,3.5,5.9,1.8c0.8,1.1-0.8,1.8-0.8,3.1c2.9-0.8,4.1-1.1,5.1-1.6
						c1.1-0.5,2-1.1,4.2-2.7c1.1,0.8,2.2,1.5,3.4,2.3c-1.3-1.3-1-2.6-0.1-3.8c0.9-1.3,2.3-2.5,3.6-3.7c-0.8-1.1-1.5-2.2-2-2.7
						c1.4-0.5,2.7-1.1,4-1.7c0.5,0.5,0.1,1.6-0.5,3c0.3-0.3,0.5-0.5,0.7-0.8c1.5,1.1,0.8,3-0.2,4.8c-0.5-0.6-1.1-1.3-1.6-1.9
						c-1,2-2.1,4.1-1.8,6c0.3-0.4,0.9-0.7,1.5-0.9c-0.3,0.5-0.5,1-0.3,1.3c0.2,0.3,0.6-0.4,1.3-1.2l1.1,3.5l0.2-1.4
						c2,0.7,4,1.3,6,1.9c2-2,3.7-4.4,5.6-6.5c1.9-2.2,4.1-4.2,7.1-5.4c-1.1,2.8,0.3,4.3,0.7,7.4c-2.2-3-4.7,2.1-8.2,1.8
						c1.8,0.1,1.6,1.6,1.2,2.2l5.6-3.7c0.2,2.5,1.5,1.7,3.2,2.5c-1-2.4,0-3.4,1.5-4c0.7-0.3,1.6-0.6,2.4-0.8
						c0.8-0.3,1.6-0.6,2.1-1.1c0.5,1.6,0.2,3.5-2.8,3.6c2,1.6,2.7-0.1,3.5-1.8c0.7-1.7,1.4-3.5,3.3-2.2c-0.7,0.2-1.1,0-1.2,0.9
						c1.3-1.7,5.6-1.5,4.9,0.1l-0.7,0.2c4.8-0.3,14.1-3.5,13.6-7.8c0.2,0.5,0.8,5.1,0.8,6c1.4-5.3,2.7-10.7,3.8-16.1
						c0.4,3.7,5.8,11.1,2.7,14.3c1.2,0.1,2.8,0.3,4.7-1.7c-0.9-0.2-3.5-4.4-2.6-5c4,2.9,2.6,1.4,7.1,3.5c-1.4-0.4-2-6.2-0.3-6.6
						c0,0.9,2.1,5.3,1.6,6.1c0.8-2.3,1.6-4.6,2.3-6.8c-0.7,1.3,1.5,4.5,3,5.7c-0.8-0.8,3.7-1.4,4.7-2.3l-2.3-0.5
						c5.1-1.1,1.7-9.2,6.4-10.9c-0.1,1.3,1.4,7.2,4.1,6.8c0-1.6-0.2-5.3-0.1-9c0.2-3.8,0.6-7.6,2.1-9.5l1.5,1.1
						c0.7-1,1.4-2.1,2.1-3.1c0,2.4-0.3,6.3-0.8,10.1c-0.5,3.9-1.3,7.7-2.1,10c2.3,0.4,1.3,1.6,3.9,0.2c1.6,1-0.5,2.8-1.2,3.2
						c2.2-0.6,4.4-1.3,6.6-2c-0.9-1.5-0.1-2.8,0.8-4c0.8-1.3,1.7-2.5,0.9-3.7c-1.6,2.1-3.3,4.2-5.1,6.3c-0.8-1.5-0.9-4.1-0.2-6.5
						c0.7-2.4,2.1-4.7,4.3-5.4c1.7,0.7,1.9,5.7,2.5,6.7c0-1.3,3-4,3.8-3.5l-1,2.5c3-0.1,1.8-5.9,6.1-4.6c1.1-0.3,4.9,2.2,4.2,0.4
						c-3.4-2.5-9.3-12.8-9.7-15.9c0.4,0.1,6.6,0.6,8.6,1.6c3,1.7,1.2,7.6,3.8,9.1c-0.4-0.8-0.1-2.3,0.1-2.8c1.4,0.1,1,2.7,2.9,1.1
						c-1.3-3.1,4.5-2.3-0.4-3.1c1.6-2.1,2.6-0.7,4.9-2.3c-1.9-1.4-1.7-7.7-0.2-9.8c0.3,0.8,1.4,1.5,1.9,1.8c2.2-1.1,4-1.7,5.8-2.4
						c1.8-0.6,3.5-1.2,5.4-2.5c0.8,0.5,3.2,0.1,3.2,1.8c0.2-0.9,0.1-2.2,1.2-3c3.9,1-2.4,2.1,1.3,3.9c-0.9-1.8,1.5-4.3,2.5-6.5
						c-2.2-2.2-4.2,2.1-5.2,4.2c-2.3-3.5-1.8-9.1,1-13.4c2.5-3,2.9,1.3,3.1,0.5c6.2-3.4,0.7-9.4,7.2-10.3c3.4,0.9,3.2,4.3,4.7,5.6
						c-1.9,2.6-4.8,1.3-6.5,2.6l2.8-0.4c-0.3,1.3-1.6,3-2.9,3c3,0.9,10.1-6.5,15.8-7.9c0.3-1.3,1.1-3-0.2-3.4l-1.2,1.3
						c-2.6-0.8,0.9-4.3-1.5-3.9c1-2.6,1.6-6,5-7l2.3,2.1c-0.6-0.7-2.8-0.2-3,1.1c0.3-1.9,6.5,0.4,5.3-3.7l-3.1-0.3
						c0.9-2.6,1.3-6.9,4.2-7.9c-2.9-1.6-0.3,0.7-4.1-0.9c4.1,2.5-6,4.2-0.9,6.3c-4.1-2.1-3.9,0.8-8.2-0.5c0.7,0.8,1.9,1-0.3,2
						c0.1,0.3,0.1,0.8,0.1,1c-0.1,0-0.1,0-0.2,0c0.1,0,0.1,0,0.2,0c0,0.2,0,0.2,0.1,0c0.7,0,1.4,0.2,1.9,0.5
						c0.4,2.6-2.7,4.8-3.1,6.5c-1.4,0.4-0.2-1.3-1.5-1.7l-0.5,2.6c-1.5-1.7-5.2-0.8-3.3-3.8l-2.5,1.7c-2.2,0-4.4,1-5.1,2.6
						c-1.4,0.4-1.5,4.1-1.5,1.9l-3.1,3.8l-0.4-0.4c-2,1.2-3.4,3.3-5.3,5c-1.8,1.8-4,3.1-7.3,2.9c-1,1.3-2,2.8-4.5,3.6l-1.5-1.4
						c-1.3,1.7-6.1,1.5-5.8,3.6c-4.5-3.3-8.8,3.9-12.3,4.8l1.1,2.3c-2.2,1.1-3.8,2.8-6,5.1l1.2,1.9c-1.4,2.8-6.6,1.7-10.1,3.7
						c-0.1-0.9,0.9-1.1,1.8-1c-1.7-0.6-2.9-0.4-4,0.2c-1.1,0.6-2,1.6-2.9,2.6c-1.8,2.1-3.5,4.2-6.3,3.4c-0.7,1.2-1.5,1.3-2.4,1
						c0.1,0,0.2-0.1,0.2-0.2c-0.1,0-0.3,0.1-0.4,0.1c-0.6-0.2-1.2-0.4-1.9-0.5c0.6,0.3,1.2,0.6,1.6,0.6c-0.8,0.4-1.8,1.1-2.8,2.1
						l-1.4-2c-0.1,0.1-0.2,0.1-0.2,0.2c-1.5-0.3-0.5,1.4,0.8,2.9c-0.4,0.6-0.8,1.3-1,2c-2.4-3.2-2.6,2.4-5.4-0.9
						c-0.1,2.2-5.3,3.6-4.6,7.9c-0.2-0.5-0.7-0.6,0-0.9c-1.5,0-3,0-3.8,1.5l-1.5-2.7c-0.5,1.6-1.1,3.3-1.6,4.9
						c-2.4-1.2-3.4-2-2.4-4.8c-3.2,4.8-3,2.4-5.7,6.9l-0.4-2c-1.3,0.4-2.7,3.6-3.9,2.2c-2-1.4-5.6-0.6-9.8,0.2
						c-4.2,0.9-9.1,1.7-13.1,0.5c1.2,2.8,0.2,2.3-1,1.6c-1.2-0.7-2.7-1.5-2.5,0.8c-0.6-1.3-1.8-1.9-0.7-3.3
						c-1.8,0.9-3.4,0.6-4.7,0.5c-1.3-0.1-2.4,0.1-3.5,2.1c-0.5-1.3,0.6-2.1,0.2-2.9c-0.3,0.3-1.1,1.3-1.5,0.5
						c-0.4-0.8,0.5-1.2,1-1.8c-3.7,0.5-3.8,4.7-4,8.7c-2.1-1.8-3-1.5-4.4,1.1c-0.7-1.3-1.8-2.7,0.6-3.1c-0.7-0.1-2.7-0.6-4.5-0.8
						c-1.8-0.2-3.5,0-3.8,1.6c-0.3-0.8-1.8-0.5-2.2-0.2c-1.4-0.3-2.2-0.6-2.9-0.9c-0.7-0.2-1.5-0.4-2.9-0.7l0.6,0.7
						c-1.1,1.7-1.7,1.7-2.4,1.3c-0.7-0.5-1.3-1.3-2.5-1.5l0.2-0.3c-1.9-2.4-2.5-2.3-3.1-2.3c-0.6,0-1.3-0.1-2.7-2.7l-1,2.2
						c-1.5,2.1-2.2,0.7-2.9-1.1c-0.2-0.4-0.3-0.9-0.5-1.4c-0.2-0.5-0.3-1-0.5-1.4c-0.4-0.8-1-1.4-1.9-1.5c0,0.6,0,1.2,0,1.8
						c-1.3,0.2-1.1-2-0.5-4.3c0.3-1.1,0.6-2.3,0.8-3.3c0.3-1,0.4-1.8,0.3-2.2c0.1-0.6,0.9-0.1,1.4,0c-0.3-2.5-0.9-2-1.8-1.1
						c-0.9,0.8-2.1,2.2-3.4,1.3c0.9-1.6,3.7-2.4,2.6-4.1c0.1-0.4-0.3-0.6-1.1-0.9c-0.7-0.2-1.7-0.5-2.6-0.8c-2-0.6-3.8-1.9-3.2-3.9
						c-0.8,1.2-1.5,2.5-3.1,1.7c-0.8-0.9-0.6-2.9-0.6-4.5c0-1.7-0.4-3.1-2.6-3.2c0.2-0.4,0.5-0.7,0.8-0.8c-1.7-1.1-3.8-4.6-6.2-4.9
						c3.7-2.1,1.9-4.3,0.2-6.6c-0.9-1.1-1.6-2.3-1.8-3.2c-0.1-0.9,0.4-1.6,2.3-2c-0.4-1.8-0.9-3.6-1.2-5.4l0.8,0.1
						c0-1.8-0.4-2.9-1.1-3.8c-0.7-0.9-1.7-1.5-2.6-2.1c0.5-0.9,1.2-0.3,1.6-0.2c0.3-1.3,0.6-2.4,0.7-3.2c0.1-0.9,0.1-1.6-0.1-2.2
						c-0.2-0.7-0.5-1.3-1.1-2.1c-0.5-0.8-1.2-1.7-2.1-2.9l2.5-0.4c-0.7-0.6,0.4-2.6,1.4-4.9c0.5-1.2,1-2.5,1.2-3.8
						c0.2-1.4,0.2-2.8-0.3-4.2c0.3,0.1,0.7,0.3,1,0.7c-1-3.2,1.2-6.5,2.7-9.3c1.5-2.9,2.2-5.4-1.9-7.4l-1.3-4.4
						c-1.8,5-3.6-1.6-5.6,0.2c-0.1-2.2,3.9-4.7,3.7-2.1l-0.5,0.3c2.2,1,3-0.5,3.6-2.1c0.7-1.6,1.2-3.4,2.7-2.9
						c2.3-10.1,7.8-18.9,11.3-27.7l-3.8-0.2l1.4-3.1c1.1-0.5,3.1-0.1,2.1,2.1c2.4-0.4-0.2-4.3-0.9-4.7c1.5-1.9,2.4-1.1,2.9,0.1
						c0.5,1.1,0.7,2.6,1,1.9c0.1-0.6,0.3-1.3,0.5-1.9l-0.6,0.2c-0.8-2-2.2-2.7-0.9-5.3c1.4-1.4,2.4,0,2.8-0.6c0.2,0.1,0.4-0.1,0.5-1
						l2-3.6l-3.3,0.3c-0.5-2.3,1.8-3.5-2-3.1c1.5-0.1,2.7-1,3.8-2.3c1.1-1.3,2.1-2.9,3-4.6c0.8-1.7,1.7-3.3,2.4-4.6
						c0.7-1.3,1.4-2.2,1.9-2.4c-0.3-1.7,0-3,0.5-4.3c0.5-1.3,1.4-2.4,2.3-3.7c-0.9,0.3-3.9-1.1-2-3.2c5,4.6,5.3-2.5,10.5-1.4
						c-3.8-0.4,4.1-6.4-1.3-6.9c1.8-1.4,2,1.5,4.3,1.1c0.3-1.5,1.1-2.6,2.1-3.7c1-1.1,2.1-2,3.4-2.9c1.3-0.9,2.7-1.7,4-2.6
						c0.6-0.5,1.2-1,1.9-1.5c0.6-0.5,1.2-1,1.7-1.7c-0.5-0.7-2.2-1-2-2.9c1.8,0.3,3.7,0.7,5.4,1.1c0.6-1.2-2.3-4.7,1.5-3.7
						c-0.7-0.4-1.8-1-1.3-1.7c1.6-0.6,3.1-1.3,4.5-2.1c1.4-0.7,2.7-1.5,4-2.3c2.5-1.5,4.9-3,7.2-3.8c1.2-0.4,2.3-0.6,3.4-0.6
						c0.3,0,0.5,0,0.8,0c0.3,0,0.4,0.1,0.6,0.1c0.2,0,0.4,0.1,0.6,0.2c0.2,0.1,0.4,0.2,0.6,0.3c0.8,0.5,1.4,1.2,1.8,2.2
						c0.3,0.9,0.3,2-0.4,2.8c0.6-0.6,0.9-1,1.2-1.1c0.2-0.1,0.5,0,0.5,0.2c0.1-0.2,0.6-0.5,1.1-0.8c0.6-0.3,1.2-0.6,1.7-1
						c-0.4,1.5-1.4,2.4-2.5,2.5c0.5,0,0.9,0,1.2,0.1c0.2,0.1,0.4,0.2,0.5,0.3l15.8,2.4c-0.1-1.9,1-4.3-1-5.1l0.3,1.9
						c-3.1-2.8-8,1.5-12.4,1.2l10.5,1.6c0.3-0.1,0.6-0.1,1,0c-0.5-0.6-0.7-1.2-0.8-1.8c-0.1-0.6-0.1-1.2,0-1.9
						c0.2-1.4,0.6-3,0.7-4.8c0-0.9-0.1-1.8-0.2-2.7c-0.2-0.9-0.5-1.7-1-2.5c-1-1.5-2.6-2.6-4.8-2.5c-0.2-0.8,0.3-0.9,0.8-1
						c0.6,0,1.2,0,1.3-0.7c-0.7,0.1-1.3,0.1-1.9,0c-0.6-0.1-1.1-0.2-1.7-0.5c-1.1-0.5-2.2-1.3-3.6-2.6l0.6-0.3
						c-2.4-1.1-4.6-1.8-6.7-2.3c-0.5-0.1-1.1-0.2-1.6-0.3c-0.3-0.1-0.5-0.1-0.8-0.2l-0.7-0.1c-1-0.2-1.9-0.3-2.9-0.4
						c-3.8-0.4-8-0.3-13.1,1.2c0.6,0.6,1.1,1.2,1.6,1.9c-2.1,0.6-2.8,0.1-4,0.1c-0.2,2.2,1.1,1.5,2.5,0.9c1.4-0.6,2.9-1,2.7,1.2
						c-1.1-0.8-2.5-0.9-4-0.5c-1.5,0.4-3.1,1.3-4.5,2.1c-1.5,0.9-2.9,1.7-4.1,2.2c-1.3,0.4-2.5,0.5-3.6-0.4c-2.3,1.8,2.3,1.7,0,3.4
						l-1.5-0.7l0.6,1.9c-1.7,0.9-3.6,0-4.5-0.9c0.4-0.2,0.8-1.1,1.2-1.5c-1.6,0.1-2.8,1.4-3.8,2.6c-1,1.3-1.7,2.5-2.2,2.6l2.7-1.2
						c-1.3,1.6-2.8,3-4.3,4.6c-1.5,1.6-3,3.1-4.6,4.6c-1.5,1.6-2.8,3.3-4,5c-0.6,0.9-1.1,1.8-1.6,2.7c-0.4,0.9-0.8,1.9-1.1,2.9
						l1.2,0.3c-1.9,5.7-3.9,2.8-6.7,8.4l-0.1-0.3c0.2,1.7-0.3,3.3-1.3,4.6c-0.2-2.1-3.7,1.1-3.8-1.4c-0.7,3.2-0.8,4.1-0.5,4.9
						c0.3,0.8,0.9,1.5,1.7,4.2l-2.1-0.2c0.8,2,1.5,2.6,0.4,5.4c-0.1-2.9-3.4,0.3-3.9-3.2c-3.4,1.8-3.6,4.5-3.8,6.6
						c-0.2,2.1-0.4,3.7-3.7,3.7c1.7,2.5,2.9,1.5,3.8,0.2c0.9-1.3,1.4-2.9,1.5-2c2.1-0.4,2.3,3.8,1,5.4c-0.5,0.9-2.3,0.9-4.3,1.4
						c-2,0.5-4.2,1.3-5.1,3.7c0.2-0.5-0.1-0.7,0.1-1.1c-2,1.3,0.2,4.2-2.7,5.6c2.3,2.4-1.3,2.8,2.2,4.6c0.3-1.6,0.6-3.1,0.9-4.7
						c-0.1,2.9,3.3,6.9-0.3,10.1c-0.6-0.6-1.2-2.2-1.4-3.2c-1.5,0.8-0.2,2.6-1.8,3.4c-3.6-1.7,1.2-5.6-0.5-9.4
						c-2.1,0.7,0.7,6.1-2.8,3.2c2.2,2,1.6,3.1,0.7,4.3c-0.9,1.2-1.8,2.6-0.4,5l-2.2-1c0.2,0.6,0.9,2.1,0.5,3l-2.3-2.7
						c0.8,1.8-0.2,2.9-1.3,3.9c-1.1,1.1-2.3,2.1-2.1,3.6c1.6-5.5,3.1-0.4,5.5-2.1c0.5,3.8-1.3,4.3-3.4,4.8c-2.1,0.5-4.4,1.1-4.9,5.1
						c0-1.1,2.5-3.5,3.1-1.5c-0.9,1.3-2.3,3-3.7,3.5c-0.9,5.2,2.6-0.1,3.4,2.4c-3.3,0.9,0.5,2.8,0.8,5.2l-2.3-0.6
						c-2.9,5.3,4.5,2.7,1.4,7.4l-2.7-3l0.2,2.9l-2.5-1.2c1.3,3.4,0.6,4.2-0.8,6.9c1.8-0.3,4.2,1.3,3.7,3.9c-1.8,1.5-2.1-1.4-2.4,2.3
						c-1.3-1.1-3-2.4-0.5-3.6c-0.7-0.3-1.3-1.1-2-1.5c-2,1.6-1.3,4.8-1.6,6.1c0.2-0.5,0.4-1.1,0.8-1.4c0.7,2,1.5,4,2.3,6
						c-1,0.7-1.6-0.1-2.2-0.9c0.1,1.1,1,2.1,1,3.7c-1.9-0.7-3.9-0.9-4.4-3.4c0.4,1.9,0.9,3.7,1.4,5.6c-0.9,0.2-2.7,2.4-3.3,1.6
						c-0.8,1.4,0,3.4,0.7,5.4c0.7,2,1.4,4.2,0.5,6.1c0.4,0.2,0.7,0.7,0.9,1.5c-0.3,1.9-1.1,3.6-1.4,5.5c-0.2,0.9-0.2,1.9-0.1,2.9
						c0.2,1,0.6,2.1,1.3,3.2c-1.1,0.9-2.3,1.8-3.4,2.8c0.5,1.8,1.6,0.8,2.7,0.2c1.1-0.7,2.3-1,3.2,1.9c0.7,2,0,2.5-1,2.6
						c-1,0.2-2.3,0-2.7,0.8c1,1,2.5,2.2,3.5,3.8c1,1.5,1.4,3.3,0.4,5.5C180.8,367.6,181.2,366.5,180.7,365.3z M199.7,405.7
						c-0.9-0.4-3.3-0.9-2.5-2.2C200,402.7,199.4,404,199.7,405.7z M261.1,425.9c-0.5,0.8-1.5,0.5-2.5-0.4
						C259.3,425.3,260.1,425.3,261.1,425.9z M405,347.8c0,0.1,0,0.1,0,0.1C403.2,348.1,403.8,348.1,405,347.8z M408.5,346.6
						c0.1-0.5-0.1-0.7-0.4-0.9c0.2,0.6-0.5,1.1-1.3,1.5C407.3,347.6,407.9,347.7,408.5,346.6z M221.8,260.9l-0.8,0.4
						C220.9,259.6,221.3,260.2,221.8,260.9z"/>
					<path class="st0" d="M254,429.4c-0.2-0.4-0.3-0.9-0.3-1.3C253.3,428.5,253.3,429,254,429.4z"/>
					<path class="st0" d="M178.2,338.3c0,0,0-0.1,0-0.1c-0.1-0.1-0.3-0.1-0.4-0.2L178.2,338.3z"/>
					<path class="st0" d="M373.8,393.3c-0.8,0.1-1.4-0.1-1.9-0.4C372.2,393.5,372.7,393.8,373.8,393.3z"/>
					<path class="st0" d="M420.9,332.5l-1.4,1.8c0.8-0.7,1.4-0.5,2.1-0.6C421.2,333.3,420.4,332.9,420.9,332.5z"/>
					<path class="st0" d="M445.4,332.7c0.1-0.4,0.5-0.4,0.6-0.9l-0.8-0.8C444.2,331.8,444,333.2,445.4,332.7z"/>
					<path class="st0" d="M427.3,337.7c1.4,1.5,2.1,0.1,3.1-1.1c-0.1,0.1-0.1,0.1-0.2,0.2C428.9,334.2,428.1,335.9,427.3,337.7z"/>
					<path class="st0" d="M430.7,336.3c0.3-0.4,0.7-0.7,1.1-0.9C431.3,334.3,431.2,335.5,430.7,336.3z"/>
					<path class="st0" d="M411.3,343c0.9,0-1.1-2.4-0.3-1.9C410.1,338.4,408.8,346.4,411.3,343z"/>
					<polygon class="st0" points="432.4,342.3 430.4,340.6 430.9,342.7 					"/>
					<path class="st0" d="M421.3,348.2l2.4-0.9c-0.3-0.3-0.2-0.7,0-1.1C422.5,347,420.8,347.6,421.3,348.2z"/>
					<path class="st0" d="M423.8,346.2c0.7-0.4,1.3-0.9,1.4-1.5C424.8,344.9,424.1,345.5,423.8,346.2z"/>
					<polygon class="st0" points="430.1,344.9 429.2,344.9 427.6,345.9 					"/>
					<path class="st0" d="M398.9,363.3l-1.9,2.1c0.2,0.9,1.2,0.9,1.8,0C399.1,364.6,399.7,363.8,398.9,363.3z"/>
					<path class="st0" d="M409.7,364.3c-0.9,0-1.3-0.4-2.1-0.9l1.7,2.6L409.7,364.3z"/>
					<path class="st0" d="M403.4,369.5c0.3,0.9-2,4.3,0.9,2.2C404,370.8,405.9,368.6,403.4,369.5z"/>
					<polygon class="st0" points="365.9,388 366.5,387.7 363.9,383.3 					"/>
					<path class="st0" d="M337.6,415.3c3.6-0.2-0.5-3.2,2.9-3c0.3-1.4-2.8-0.2-2.4-1.4C336.7,412.8,335.4,412.6,337.6,415.3z"/>
					<path class="st0" d="M338.1,410.8c0.2-0.3,0.4-0.7,0.7-1.1C338.3,410.2,338.1,410.6,338.1,410.8z"/>
					<polygon class="st0" points="308.7,200.5 310,198.6 308.1,199.7 					"/>
					<path class="st0" d="M305.5,196l3.3,0l-2.7-1.7C306.1,194.8,306.3,195.7,305.5,196z"/>
					<path class="st0" d="M199.3,415.4l0.7-0.4c0.3-0.9-0.1-1.3-0.8-2.4C199.3,413.5,199.3,414.5,199.3,415.4z"/>
					<polygon class="st0" points="183.2,384.6 183.3,385.2 185.7,383.2 					"/>
					<path class="st0" d="M173.4,357.7c0,1.2,0.8,2.4,0.8,3.6c-0.4-1.2,0.3-2.3,0.6-3C175.2,357.7,175.3,357.4,173.4,357.7z"/>
				</g>
			</g>
		</g>
	</g>
</g>
<g>
	<g>
		<g>
			<g>
				<g>
					<path class="st0" d="M339.2,526.5c-0.3,0.3,1.4,0.7,1.7,0.9C340.7,526.6,338.8,526.4,339.2,526.5z"/>
					<polygon class="st0" points="337.4,519.1 338.1,519.4 336.7,518.1 					"/>
					<path class="st0" d="M339.1,513.3c-2.9-0.2-0.1,2.2-1.4,3l-0.7,0l2.1,1.1C339.1,516.1,338.1,514,339.1,513.3z"/>
					<path class="st0" d="M346,511.8c-1.1-0.1-0.7-0.9-0.5,0.7c0.1,0,0.2,0,0.3-0.1C345.8,512.2,345.8,512.1,346,511.8z"/>
					<path class="st0" d="M345.7,512.4C345.7,513,346.8,512.2,345.7,512.4L345.7,512.4z"/>
					<path class="st0" d="M345.9,509.3l0.8,1.1c0.7,0,1-0.7,1.4-0.3C347.8,509.1,347.1,509.1,345.9,509.3z"/>
					<path class="st0" d="M344,508l0.3,0.5C344.6,508.6,344.8,508.5,344,508z"/>
					<path class="st0" d="M345,509.7l-0.6-1.1c-0.5,0-1.4-0.2,0.2,0.5C343.7,508.8,344.5,509.2,345,509.7z"/>
					<path class="st0" d="M344.4,510.1c-0.7,0.3-1.3,0.8-2-0.3C342.4,511.5,344.4,511.8,344.4,510.1z"/>
					<path class="st0" d="M336.3,512.3l-1,0.4l0.8,0.8C335.7,513,337.2,512.5,336.3,512.3z"/>
					<path class="st0" d="M348.6,504.5c-0.6-0.2-1.7-0.1-2.4-0.2l0.5,0.8C347.2,504.9,347.7,504.4,348.6,504.5z"/>
					<path class="st0" d="M346.1,504.3l-0.8-1.1C345,503.9,345.5,504.2,346.1,504.3z"/>
					<path class="st0" d="M341,507.1c0.6,0.7,1.2,1.3,1.8,2c-0.6-0.8-1.1-1.5-1.7-2.3L341,507.1z"/>
					<polygon class="st0" points="349.5,501.1 350.7,501.9 348.8,500.5 					"/>
					<path class="st0" d="M349.7,498.7c1.1,0.6,2.1-0.1,2.7,0.5c-0.1-0.7-0.9-1.4-1.7-2.1C351.1,497.7,350.8,498.2,349.7,498.7z"/>
					<path class="st0" d="M349.6,495.9c0.2,0.3,0.7,0.7,1.1,1.1C350.5,496.7,350.1,496.4,349.6,495.9z"/>
					<path class="st0" d="M346,501.7c0.4,0,1.4,0.1,1.9-0.3l-1.8,0C346,501.4,346,501.6,346,501.7z"/>
					<path class="st0" d="M346,501.3L346,501.3c0.2-0.4,0.3-0.6,0.3-0.7C346.3,500.7,346.2,500.9,346,501.3z"/>
					<path class="st0" d="M345.9,501.8C346,501.7,346,501.7,345.9,501.8C345.8,501.7,345.7,501.7,345.9,501.8z"/>
					<path class="st0" d="M343,505.1c-0.8-0.8-1.6-2.1-3.2-1.4C340.9,504.4,341.8,504,343,505.1z"/>
					<path class="st0" d="M343.7,501.7l-0.6,0.9c0.4,0.1,1.1,0.1,1.5,0.4L343.7,501.7z"/>
					<polygon class="st0" points="343.3,501.1 343.7,501.7 344,501.4 					"/>
					<path class="st0" d="M347.6,497.3c-0.6-0.6-0.6-1-0.6-1.6c-0.4,0.5-0.7,1-0.9,1.6C346.7,497.4,347.6,497.9,347.6,497.3z"/>
					<path class="st0" d="M346.7,499.2c0,0,0-0.1-0.1-0.1C346.5,499.1,346.4,499.2,346.7,499.2z"/>
					<path class="st0" d="M348.1,490.6c-0.1,0-0.2,0-0.3,0C347.8,490.7,347.9,490.7,348.1,490.6L348.1,490.6z"/>
					<path class="st0" d="M345.8,497.3c-0.4,0.3-0.1,0.7,0.4,1c-0.1-0.3-0.1-0.7-0.1-1.1C345.9,497.1,345.8,497.1,345.8,497.3z"/>
					<path class="st0" d="M349.1,494.4c-0.4,0.1-0.8,0.3-1.1,0.5C348.6,494.8,349.5,494.5,349.1,494.4z"/>
					<path class="st0" d="M347.2,499.1C347.2,499.1,347.2,499.1,347.2,499.1C347.6,499.1,347.4,499.1,347.2,499.1z"/>
					<path class="st0" d="M347.2,499.1c-0.2-0.3-0.6-0.5-0.9-0.8c0.1,0.3,0.2,0.6,0.4,0.8C346.8,499.1,347,499.1,347.2,499.1z"/>
					<path class="st0" d="M337.5,486.9c1.6,0.4,2.8,1.7,0.9,2.3c1,1.1,6.3,1.6,9.3,1.4c-0.7-0.2-1.3-0.3-2-1.4
						c-0.9,0.2-2.4,1.7-3.7,0.6c-0.5-1.4,0.8-0.9,1.7-1.4c-2,0.1-2.5-2.1-5.5-2.4l0.8,1.3C338.6,487.3,338,486.7,337.5,486.9z"/>
					<path class="st0" d="M347.2,492.4l0.1,0.4c0.4-0.4,1.1-0.6,2.4-0.9c-0.6-0.8-1.2-1.1-1.7-1.2l-0.6,1.9L347.2,492.4z"/>
					<path class="st0" d="M347,494.6c-1.6-0.7-2.2-1.8-4.1-1.6c-0.1,1.2,1.3,1.1,1.9,1.9c0-1.9,0.8,0.7,2.1-0.4
						c0.2,0.4,0.2,0.8,0.2,1.1c0.3-0.3,0.6-0.6,1-0.8c0,0-0.1,0-0.1,0l0,0l0,0c-0.2,0-0.4,0-0.2,0c0,0,0,0,0,0
						C347.4,494.8,347.2,494.7,347,494.6c0.5-0.5,0.5,0,0.6,0.2c0.1,0,0.2,0.1,0.3,0.1l0,0l-0.5-2.1
						C347,493.2,346.9,493.7,347,494.6z"/>
					<path class="st0" d="M336.4,501.9c0.2,0,0.3,0,0.4,0C336.6,501.8,336.5,501.7,336.4,501.9z"/>
					<path class="st0" d="M337.6,501.4c0.2,0.2,0.9,0.5,0.6,0.8c-0.6,0.3-0.8-0.2-1.4-0.3c0.4,0.4,1,1.2,2,0.6l-0.2-0.2
						c0.8-0.6,3.1-1.1,3.3-0.9C340.3,501.3,339.2,501.3,337.6,501.4z"/>
					<path class="st0" d="M341.9,497.9l-0.5-1.7l-1.6,0.5l0.9,0.2C340.1,497.6,341.2,497.7,341.9,497.9z"/>
					<polygon class="st0" points="349,490.6 350.7,491.2 348.4,489.8 					"/>
					<polygon class="st0" points="349.2,488.5 350.7,488.9 349.9,488.2 					"/>
					<path class="st0" d="M341.7,373.5l-0.4-0.5C341.4,373.2,341.5,373.3,341.7,373.5z"/>
					<path class="st0" d="M341.4,376.7l0.8,0.1C341.8,376.7,341.4,376.6,341.4,376.7z"/>
					<path class="st0" d="M356.4,438.9c1.6-0.5,3.9-1,2.2-1.1l-1.8,0C357,438.3,356.8,438.6,356.4,438.9z"/>
					<path class="st0" d="M349,404.1c-0.2,0-0.4,0.1-0.5,0.2c0.6,0.2,1.1,0.4,1.6,0.6C349.8,404.6,349.4,404.3,349,404.1z"/>
					<path class="st0" d="M341.8,403.1l1.2-0.8C342.6,402.5,342.2,402.7,341.8,403.1z"/>
					<path class="st0" d="M340.5,355.6l-1.8-0.6C338.7,355.8,339.7,355.5,340.5,355.6z"/>
					<path class="st0" d="M352.1,467.8c0.8-0.5,1.1-0.9,1.3-1.3C352.3,467,350.7,467.4,352.1,467.8z"/>
					<path class="st0" d="M360.2,375.6c-0.3-0.3-0.7-0.4-1-0.4C359.4,375.5,359.7,375.7,360.2,375.6z"/>
					<path class="st0" d="M353.6,464.8c-0.2,0.1-0.3,0.2-0.5,0.2c0.2,0.5,0.4,0.9,0.2,1.4C354.2,466.1,354.7,465.6,353.6,464.8z"/>
					<path class="st0" d="M342.7,290.9c0.1,0,0.1-0.1,0.2-0.1C342.7,290.7,342.7,290.8,342.7,290.9z"/>
					<path class="st0" d="M360.1,271.6c0.1,0.2,0.1,0.5,0.2,0.8C360.3,272.2,360.3,272,360.1,271.6z"/>
					<path class="st0" d="M351.4,480.6C351.4,481,351.6,480.7,351.4,480.6L351.4,480.6z"/>
					<path class="st0" d="M344.2,481.4c-0.2-0.1-0.4-0.2-0.8-0.3C343.8,481.2,344.1,481.3,344.2,481.4z"/>
					<path class="st0" d="M343.4,459C343.4,459,343.4,459,343.4,459C343.1,459.1,343.1,459.1,343.4,459z"/>
					<path class="st0" d="M350.5,481.1c0.2-0.1,0.5-0.3,0.6-0.5C351,480.7,350.8,480.8,350.5,481.1z"/>
					<path class="st0" d="M351.3,481.1c-0.1,0.1-0.2,0.2-0.2,0.3C351.4,481.6,351.6,481.6,351.3,481.1z"/>
					<path class="st0" d="M351.4,479.9c0,0.3-0.1,0.5-0.3,0.7c0.1-0.1,0.2-0.1,0.3,0C351.4,480.4,351.4,480.2,351.4,479.9z"/>
					<path class="st0" d="M347.4,325.6c0.1,0,0.1-0.1,0.2-0.1C346.8,325.1,346.9,325.3,347.4,325.6z"/>
					<path class="st0" d="M339.4,425.9C339.4,426,339.5,426,339.4,425.9c0.1,0,0.1,0,0.1,0L339.4,425.9z"/>
					<path class="st0" d="M338.3,424.3c2.1,0.8,1.8,1.2,1.3,1.6l5.1,0L338.3,424.3z"/>
					<path class="st0" d="M341.5,365.6l-1.6,1c-2.5-1.4-1.6-2.3-3.9-1.4c5.5,0.4,0.4,4.2,5.9,4.5l-1.2,0.7c0.1-0.2-0.3-0.2-0.2-0.4
						c-2.7,1.2,3.9,1.2,3.1,2.9c-0.5,0.6-1.3,1-1.9,0.5l1.3,1.4c-0.1,0.4-1.1,0.2-0.9-0.1l0.3,2.1l-0.2,0c0.8,0.3,2.1,1.1,2.7,1.4
						c-0.8,0.5-0.6-0.3-1.3-0.2l1.3,1.2c-1.4,0.4-2.8-0.6-2.5-1.4c-5.5,0.8,1.3,1-2,3.2l-0.6-1.1c-3.1,0.5-2.1,1.4-4.1,2.6
						c1-0.2,5-2.2,6.3-0.9c-0.4,0.3-0.7,0.8,0.4,1.5c-1.9-0.1-1.5,0.6-1.4,1.4l-2.6-0.2c0.7,0.9,2,0.9,3.1,1.5c-0.3,1-2.3,1.1-4,1.2
						c-0.5,1.6,3.3-0.9,3.6,1c-1.1,1.3-0.1,2.3,1.4,3.9c-1,0.9-1.6-0.3-2.3,0l2,1c-0.1,0.2-0.7,0.1-1,0c0.8,0.7,2.6,0.2,3.2,1.4
						c2.8,0.5-4.3,2-1.2,3.5c-0.8,0.3-1.6-0.3-2.6-0.2c2,2,1.4,1.7,4.2,3.4l-1.8,1.2c2-0.8,4.2,0.6,6,1.8c1-0.3,1.8-0.5,2.2-0.7
						l1.2,1.8c-0.4,0.2-1.3-0.1-2.4-0.4c0.2,0.1,0.4,0.3,0.6,0.4c-1,0.5-2.5,0.1-3.9-0.4c0.5-0.2,1.1-0.3,1.6-0.5
						c-1.5-0.5-3.2-1.1-4.8-1.1c0.3,0.1,0.5,0.4,0.7,0.6c-0.4-0.1-0.8-0.2-1.1-0.2c-0.3,0,0.3,0.3,0.9,0.6l-2.9,0.2l1.1,0.2l-2,2.1
						c2.8,1.8,6.9,3.5,7.9,6.2c-2.1-0.8-3.4-0.4-5.9-0.7c2.7-0.5-1-2-0.3-3.3c-0.3,0.7-1.5,0.4-1.9,0.2l2.2,2.5
						c-2-0.2-1.6,0.4-2.5,0.9c4.1-0.1,2.5,2,3.7,3c-1.4-0.1-2.7-0.4-2.3-1.5c-3.2,1,4.6,2.1,1.9,3.1c0-0.3,0.2-0.4-0.5-0.6
						c1.1,0.8,0,2.3-1.1,1.8l0-0.3c-0.6,1.8-0.5,5.7,2.9,6.3c-0.4,0-4.1-0.6-4.8-0.8l11.2,4.5c-2.9-0.6-10-0.1-11.5-1.9
						c-0.5,0.4-1,0.9-0.1,1.9c0.4-0.3,4.3-0.3,4.6,0.1c-3.4,0.8-1.8,0.6-4.8,1.7c0.7-0.4,5.2,0.6,5,1.3c-0.7-0.2-4.5-0.4-5-0.7
						l4.3,2.3c-0.8-0.5-3.8-0.5-5.1-0.2c0.9-0.1-0.2,1.5,0.2,2.1l1.1-0.6c-0.9,1.9,6.1,2.7,5.7,4.7c-0.9-0.3-5.7-1.2-6.4-0.3
						c2.3,0.7,10.9,3.3,12.5,5.4l-1.4,0.2l1.3,1.6c-3.4-1.3-10.4-4.5-13.1-6.1c-1.1,0.6-1.6,0-1.6,1.2c-1.3,0.3-1.8-0.8-1.8-1.2
						l-1.1,2.5c2.7,0.2,2.5,2.3,4.7,2.5l-2.5-3.2c2.7,0.2,7.5,2.6,6.8,4.4c-1.1,0.3-4.8-0.9-5.7-1c0.9,0.4,1.6,2,0.9,2.1l-1.3-1
						c-1.1,0.9,3.4,2.1,0.6,3.1c-0.2,0.4-3.6,0.8-2.1,1.1c3.2-0.3,12.7,0.8,14.9,1.5c-0.2,0.1-3.2,1.9-4.8,2.2
						c-2.5,0.4-5.6-1.8-7.8-1.5c0.7,0.1,1.6,0.6,1.9,0.8c-0.7,0.4-2.3-0.5-2,0.5c2.7,0.5-0.5,2,2.2,0.8c0.7,1.1-0.7,0.9-0.7,2.1
						c1.8-0.1,5.8,1.8,6.5,2.9c-0.7-0.2-1.6-0.1-2,0c-0.5,1.9-1.9,2.8-2.2,4.7c-0.7,0.1-1.6,0.8-2.7,0.3c0.4,0.3,1.3,0.7,1.3,1.3
						c-2.5,0.7-0.2-1.3-3.1-0.9c1.6,0.3,2,1.8,2.8,2.8c2.5,0.1,0.8-1.8-0.1-2.7c3.4,0.5,6.7,2.5,7.9,4.6c0.6,1.7-2.3,0.3-1.9,0.7
						c-1.1,2.8,5.5,3.4,2.6,5.4c-2.3,0.6-4.3-0.7-5.8-0.7c-0.6-1.4,1.7-1.7,1.7-2.6l-1.2,0.9c-0.6-0.5-1.1-1.4-0.4-1.8
						c-2.1,0.5-1.2,4.8-3.3,6.7c0.6,0.5,1.3,1.3,2.2,1.2l-0.2-0.8c1.8-0.3,2.1,1.7,3.1,1c1,1.2,2.7,2.6,1.5,3.7l-2.5-0.2
						c0.7,0.1,1.6-0.6,0.9-1.1c1,0.8-3.7,1.4-0.6,2.6l1.9-0.6c1,1.2,3.4,2.9,2.4,3.9c2.5-0.1-0.2-0.3,2.7-0.6
						c-3.6,0.1,0.7-3-3.2-2.5c3.4-0.3,1.7-1.2,4.7-1.9c-0.8-0.1-1.6,0.1-1-0.8c-0.2-0.1-0.5-0.2-0.7-0.3c0,0,0,0,0.1-0.1
						c0,0-0.1,0-0.1,0c-0.1-0.1-0.1-0.1,0,0c-0.4,0.2-0.9,0.3-1.3,0.3c-1.8-0.8-1.4-2.4-2.3-3.1c0.5-0.5,0.9,0.4,1.8,0.2l-1.3-1
						c1.8,0.2,3.2-1.1,4,0.5l0.3-1.2c1.1-0.6,1.7-1.5,1-2.3c0.5-0.5-1.7-1.8-0.4-1.1l-0.8-2.2l0.4,0.1c0.6-1.9-2.3-4.5,1.2-6.2
						c-0.4-0.7-0.8-1.5-0.1-2.5l1.6,0c-0.4-0.9,1.9-2.3,0.4-2.9c4.3-0.3,1.5-4,2.4-5.4l-2-0.3c0.2-1-0.2-2.1-0.9-3.4l-1.8-0.1
						c-1.3-1.3,1.7-2.6,1.7-4.4c0.7,0.2,0.4,0.6,0,0.9c4.3-1.6-2.5-4.7,0.7-6.2c-0.6-0.5-0.3-0.9,0.1-1.1c0,0,0,0.1,0.1,0.1
						c0,0,0-0.1,0-0.2c0.3-0.2,0.7-0.3,1-0.5c-0.5,0.1-0.8,0.3-1,0.4c0-0.4-0.2-0.9-0.5-1.5l2,0c0,0,0-0.1,0-0.1
						c0.8-0.4-0.9-0.5-2.4-0.4c-0.3-0.3-0.6-0.6-1.1-0.8c3.2-0.1-0.9-1.5,2.5-1.7c-1.6-0.5-0.9-2.8-4.3-3.5c0.4,0,0.7-0.1,0.7,0.2
						c0.4-0.6,0.9-1.1,0-1.7l2.5,0l-3.2-1.6c1.6-0.6,2.5-0.9,4.3,0.1c-2.7-2.2-0.9-1.6-3.7-3.5l1.6,0.2c0-0.6-2.1-1.7-0.7-1.9
						c3.1-1,1-6.3,4.1-9.4c-4.7,0.3,2.2-1.4-1.4-1.8c1.1-0.1,1.8-0.5,2.7,0.1c-1-1.8,2-2.4-1-3.8c1.1-0.1,1.6,0.5,2.3,0.4
						c-0.2-0.2-0.9-0.6-0.2-0.7c0.7-0.1,0.9,0.3,1.4,0.6c-0.1-1.7-3.5-2.2-6.7-2.5c1.6-0.8,1.4-1.2-0.7-2c1.1-0.2,2.2-0.7,2.5,0.4
						c0.2-0.6,1.8-3.6-0.8-3.8c0.7-0.1,0.2-0.8,0-1c0.2-1.3,0.5-1.4,0.3-2.8l-0.4,0.3c-3.1-0.7-0.6-1.1-0.9-2.2l0.3,0.1
						c2.4-2.3-1-1.1,1.7-3.4l-1.9,0c-4.1-0.5,2.6-2,1.1-3.5l-1.1,0.4c-1.4-0.8,5.8-1.8,6.4-2.6c0.4-0.1,0.6,0.3,0.8,0.5
						c2.6-1.9-2.5-0.4-3-1.9c1.4-0.2,3.5,0.6,3.8-0.5c1.1-0.4-4.3-3.2-1.6-4.4c-1.1,0.3-2.1,0.5-2.9-0.2c-0.3-1.1,4.1-2.7,0.9-3.8
						c0.3-0.1,0.6-0.2,0.8-0.2c-0.8-0.9-1.3-2.7-3.1-3.3c6.7-0.5-3-5.2,3.1-4.9l-0.2-2.5l0.6,0.1c0.5-1.6-1-2.2-2.4-2.8
						c0.4-0.4,1-0.1,1.3,0c1.3-2.3,1.1-2.6-1.9-4.6l2-0.1c-1.1-0.6,3.3-3.3,1-5.7c0.2,0,0.6,0.1,0.9,0.3c-2.3-2.7,5.7-6.1-1.5-7.2
						l-1.7-1.8c-0.6,2.2-3.2-0.4-4.4,0.5c-0.4-0.9,2.2-2.2,2.6-1.1L355,342c3.8,0.5,1.4-2.7,4-2.6c-0.1-4.4,2.1-8.6,2.3-12.7l-3,0.4
						l0.2-1.4c0.7-0.4,2.3-0.5,2.2,0.5c1.7-0.5-1.4-1.7-2-1.8c1.2-2,3.4,0.8,3.5,0.2l-0.2-0.8l-0.3,0.2c-1.2-0.7-2.5-0.8-2.3-2
						c0.6-0.8,1.8-0.4,1.9-0.7c0.2,0,0.3-0.1,0.1-0.5l0.3-1.8l-2.3,0.7c-1.1-0.8,0.1-1.7-2.5-0.9c4.1-1.2,1.5-6.7,2.8-7.4
						c-1.7-1.1-1.7-2.2-1.5-3.6c-0.5,0.3-3.1,0.5-2.8-0.6c5.4,0.4,2.3-2.1,6.2-3.1c-2.6,0.9-0.6-3.3-4.3-2c0.4-1,2-0.1,3.3-0.8
						c-2.1-2.3,1.3-5.2,0.6-8c-0.7,0-1.8,0.5-2.9-0.2l3.5-1.6c-0.4-0.6-4.1-0.5-1.7-1.6c-0.6,0.2-1.5,0.4-1.7,0
						c3.4-5.7-3-11.5,3.4-17.4c-1.4,0.8-1.5,0.3-1.6-0.3c-0.3,0.4-1.8,0-2.7,0.1l2.6-2.5c-2.7-0.4-0.3-2.6-2.8-2.8l0.5,0.8
						c-3-0.9-6.7,1.6-10.5,1.6c3.5,1-5,3.1,0,4.8c-0.8,0.4-1.3-0.3-2.1-0.1c1.7,0.4,2,1,1.3,2l-0.4-0.1c0.5,2.9-1.1,4.2-2.2,7.5
						l1.9-0.3c-0.2,0.7-0.8,0.9-1.3,1.2c2.9,0.8,0.1-2,3.3-1.3c-3.9,1,0,5-4.4,5.7c0,1.1,2.2-0.3,2.2,0.7l-1.2,0.3l1.5,0.3
						c-0.2,0.7-1.7,1.1-2.8,1.1c0.1-0.2-0.3-0.5-0.4-0.7c-1.4,0.9,0.5,2.6,0.1,2.9l0.7-1.1c1.1,3-0.4,6.6,2,9.5l0.9-0.2
						c1.7,2.2-1,1.8-0.2,4.2l-0.2-0.1c0.9,0.5,1.4,1.1,1.3,1.8c-1.1-0.6-2.1,1.1-3.2,0.3c1.8,2.4,1.4,1.2,4.8,2.8l-1.5,0.4
						c1.4,0.5,2.1,0.6,2.5,1.8c-1.3-1-2.3,0.8-4-0.4c-3.3,2.5,3.3,3.8-1.5,4.9c4.1,1.2,2.3-2.2,3.2-1.5c1.4-0.5,3.1,1,2.7,1.8
						c-0.1,0.8-5.3,1.3-5.3,3.4c0-0.2-0.3-0.2-0.3-0.4c-1.1,0.7,1.4,1.5-0.3,2.4c2.5,0.6-0.2,1.2,3,1.4l-0.7-1.9
						c0.8,1.1,4.6,2.1,2.7,3.8c-0.6-0.1-1.5-0.7-1.9-1c-1,0.5,0.6,1-0.4,1.5c-3.2-0.2-0.7-2.3-3.1-3.4c-1.4,0.5,2.3,2.2-1.2,1.6
						c4.4,0.9-0.6,2,2.8,3.4l-1.9-0.1c0.3,0.2,1.2,0.7,1.1,1.1l-2.5-0.8c2.1,1.1-1.9,2.1-0.7,3.2c0-2.2,2.3-0.5,3.7-1.4
						c2.5,2.8-5,1.5-4.2,4.6c-0.3-0.4,1.2-1.5,2.1-0.9c-0.4,0.6-1.2,1.3-2.2,1.7c0.4,2,2-0.3,3.1,0.6c-2.4,0.6,0.9,1,1.7,1.9l-1.9,0
						c-1.3,2.3,4,0.7,2.5,2.8l-2.7-0.9l0.7,1.1l-2.2-0.3c1.6,1.2,1.2,1.6,0.5,2.7c1.4-0.2,3.5,0.2,3.6,1.3c-1.2,0.7-1.8-0.4-1.6,1
						c-1.2-0.4-2.7-0.8-0.9-1.4c-0.6-0.1-1.2-0.4-1.8-0.4c-1.3,0.7-0.4,1.9-0.3,2.4c0.1-0.2,0.2-0.4,0.5-0.6l2.6,2.2
						c-0.7,0.3-1.3,0-1.9-0.2c0.2,0.4,1.1,0.8,1.2,1.4c-1.6-0.2-3.2-0.2-3.9-1.1l1.7,2.1c-0.7,0.1-1.9,1-2.5,0.7
						c-1,1.1,3,2.8,1.7,4.3c0.3,0.1,0.6,0.3,0.8,0.6c-0.4,1.4-2.4,2.5-0.3,4.3l-2.9,0.8c0.6,1.3,3.6-1.1,4.6,1.1
						c0.8,1.6-2.4,0.5-3.3,1c1.4,0.8,4.3,2.3,1.9,3.6C341.3,366.4,341.7,366.1,341.5,365.6z M342,381.6c-0.4-0.3-1.6-1-0.5-1.2
						C343.8,380.9,342.7,381.1,342,381.6z M345.1,406.1c-0.6-0.3-0.3-0.6,0.5-1C345.7,405.5,345.6,405.8,345.1,406.1z M350.6,475.6
						C350.6,475.6,350.6,475.6,350.6,475.6C351.4,475,351.1,475.2,350.6,475.6z M349.6,476.9c0.2,0.2,0.5,0.2,0.8,0.2
						c-0.5-0.2-0.4-0.5-0.3-0.9C349.6,476.3,349.2,476.4,349.6,476.9z M360.5,321.2l-0.5,0.3C359.5,320.9,360,321.1,360.5,321.2z"/>
					<path class="st0" d="M342.7,403.2c0.3-0.1,0.7-0.1,1.1-0.1C343.4,403,343,403,342.7,403.2z"/>
					<path class="st0" d="M340.9,355.7C340.9,355.7,340.9,355.6,340.9,355.7c-0.1-0.1-0.2-0.1-0.3-0.1L340.9,355.7z"/>
					<path class="st0" d="M336.6,452.3c0.3-0.3,0.7-0.4,1.1-0.4C337.2,451.8,336.8,451.9,336.6,452.3z"/>
					<path class="st0" d="M351.5,485.2l-0.3-1c0,0.5-0.4,0.6-0.8,0.7C350.8,484.9,351.5,484.9,351.5,485.2z"/>
					<path class="st0" d="M338.1,490.8c0.2,0.2,0,0.3,0.2,0.5l0.9,0.1C339.2,490.8,338.6,490.3,338.1,490.8z"/>
					<path class="st0" d="M344.9,484.8c-1.6-0.2-1.2,0.4-1,1.1c0,0,0-0.1,0-0.1C346.2,486.5,345.5,485.6,344.9,484.8z"/>
					<path class="st0" d="M344,486.1c0,0.2,0,0.4-0.1,0.6C344.8,487,344.1,486.5,344,486.1z"/>
					<path class="st0" d="M350.3,478.9c-0.5,0.2,2,0.6,1.3,0.6C353.7,480.2,349.6,477,350.3,478.9z"/>
					<polygon class="st0" points="339.5,484.3 341.6,484.5 340,483.8 					"/>
					<path class="st0" d="M341.9,479.6l-0.7,0.9c0.3,0,0.5,0.2,0.6,0.4C342,480.3,342.5,479.6,341.9,479.6z"/>
					<path class="st0" d="M341.8,480.9c-0.1,0.3-0.1,0.6,0.2,0.9C342,481.6,342,481.2,341.8,480.9z"/>
					<polygon class="st0" points="339.2,482.8 339.7,482.6 339.9,481.9 					"/>
					<path class="st0" d="M344.2,468.6l-0.4-1.2c-0.7-0.2-1.1,0-0.9,0.5C343.3,468.2,343.5,468.7,344.2,468.6z"/>
					<path class="st0" d="M338.1,471.1c0.5-0.2,0.9-0.2,1.6-0.2l-2.5-0.4L338.1,471.1z"/>
					<path class="st0" d="M338.1,467.8c-0.7-0.2-1.7-1.9-1.8-0.5C337,467.5,337.4,468.7,338.1,467.8z"/>
					<polygon class="st0" points="343.6,451.5 343.6,451.8 347.7,452.3 					"/>
					<path class="st0" d="M335.6,435.6c-1.1,1.2,2.5,0.6,1.1,1.6c0.9,0.4,1.1-0.9,1.9-0.4C337.7,435.8,338.4,435.5,335.6,435.6z"/>
					<path class="st0" d="M338.7,436.7c0.1,0.1,0.3,0.3,0.6,0.5C339,437,338.8,436.8,338.7,436.7z"/>
					<polygon class="st0" points="362.2,268.4 363,267.5 361.7,268.1 					"/>
					<path class="st0" d="M359.1,266.8l2.6-0.3l-2.4-0.5C359.4,266.2,359.7,266.6,359.1,266.8z"/>
					<path class="st0" d="M336.6,383.7l0.6,0.1c0.7-0.1,0.8-0.3,0.9-0.7L336.6,383.7z"/>
					<polygon class="st0" points="339.2,372.3 339.1,372.5 341.5,372.2 					"/>
					<path class="st0" d="M336.5,362.5c-0.1,0.4,0.4,0.9,0.3,1.3C336.4,362.8,339.5,362.5,336.5,362.5z"/>
				</g>
			</g>
		</g>
	</g>
</g>
<g>
	<g>
		<g>
			<g>
				<g>
					<path class="st0" d="M448.2,475.9c0,0.4,1.8-0.7,2.1-0.8C449.6,474.8,447.7,476.1,448.2,475.9z"/>
					<path class="st0" d="M441.3,472.5l0.8-0.2c-0.8,0-1.5,0-2.3,0C440.3,472.4,440.8,472.4,441.3,472.5z"/>
					<path class="st0" d="M439.3,467c-1.6,0.8-1.3,1.3-0.7,1.8c0.6,0.4,1.5,0.8,1.1,1.5l-0.7,0.5l2.9-0.6c-0.4-0.5-1.3-1-1.9-1.5
						C439.4,468.1,438.9,467.6,439.3,467z"/>
					<path class="st0" d="M445.7,461.7c-1.3,0.6-1.3-0.3-0.2,0.8c0.1-0.1,0.2-0.2,0.3-0.2C445.7,462.1,445.6,462,445.7,461.7z"/>
					<path class="st0" d="M445.7,462.3C446,462.8,446.7,461.5,445.7,462.3L445.7,462.3z"/>
					<path class="st0" d="M444.2,459.9l1.4,0.4c0.7-0.4,0.7-1.1,1.4-1C446.1,458.7,445.4,459.1,444.2,459.9z"/>
					<path class="st0" d="M441.5,459.8l0.6,0.3C442.4,459.9,442.5,459.8,441.5,459.8z"/>
					<path class="st0" d="M443.4,460.6l-1.3-0.5c-0.5,0.3-1.6,0.6,0.5,0.3C441.6,460.6,442.6,460.5,443.4,460.6z"/>
					<path class="st0" d="M443,461.3c-0.6,0.6-0.9,1.4-2.3,0.9C441.6,463.5,443.9,462.6,443,461.3z"/>
					<path class="st0" d="M435.7,467.9l-0.8,1l1.3,0.1C435.5,468.9,436.7,467.5,435.7,467.9z"/>
					<path class="st0" d="M444.8,454.7c-0.8,0.1-1.9,0.7-2.8,1l1,0.4C443.3,455.6,443.7,455,444.8,454.7z"/>
					<path class="st0" d="M441.9,455.7l-1.5-0.6C440.5,455.9,441.1,455.9,441.9,455.7z"/>
					<path class="st0" d="M437.6,460.8c1,0.3,2,0.5,3.1,0.7c-1.1-0.3-2.1-0.6-3.2-1L437.6,460.8z"/>
					<polygon class="st0" points="444.1,451.4 445.9,451.5 443.2,451.2 					"/>
					<path class="st0" d="M443.4,449.2c1.5,0.1,2.3-1,3.3-0.7c-0.4-0.5-1.7-0.8-2.9-1.1C444.5,447.8,444.4,448.3,443.4,449.2z"/>
					<path class="st0" d="M442,446.9c0.4,0.2,1.1,0.3,1.8,0.5C443.4,447.2,442.9,447,442,446.9z"/>
					<path class="st0" d="M440.5,453.5c0.4-0.2,1.6-0.6,2-1.1l-2,0.8C440.4,453.3,440.5,453.4,440.5,453.5z"/>
					<path class="st0" d="M440.4,453.2L440.4,453.2c0-0.4,0-0.7,0-0.8C440.4,452.5,440.4,452.7,440.4,453.2z"/>
					<path class="st0" d="M440.5,453.6C440.5,453.6,440.5,453.5,440.5,453.6C440.3,453.6,440.2,453.6,440.5,453.6z"/>
					<path class="st0" d="M438.9,457.9c-1.3-0.2-2.8-1-4.3,0.5C436.1,458.4,436.9,457.6,438.9,457.9z"/>
					<path class="st0" d="M438,454.6l-0.3,1.1c0.5-0.1,1.3-0.5,1.9-0.4L438,454.6z"/>
					<polygon class="st0" points="437.2,454.3 438,454.6 438.1,454.2 					"/>
					<path class="st0" d="M440.4,448.9c-1-0.2-1.2-0.7-1.4-1.2c-0.3,0.6-0.4,1.2-0.3,1.8C439.3,449.4,440.5,449.4,440.4,448.9z"/>
					<path class="st0" d="M440.2,451c-0.1,0-0.1-0.1-0.1-0.1C439.9,451,439.8,451.1,440.2,451z"/>
					<path class="st0" d="M438.2,442.6c-0.1,0-0.2,0.1-0.4,0.1c0.1,0,0.2,0,0.4,0L438.2,442.6z"/>
					<path class="st0" d="M438.3,449.6c-0.3,0.5,0.2,0.6,0.9,0.7c-0.3-0.3-0.5-0.6-0.5-0.9C438.3,449.5,438.1,449.5,438.3,449.6z"/>
					<path class="st0" d="M440.8,445.7c-0.4,0.3-0.7,0.6-1,0.9C440.4,446.3,441.4,445.7,440.8,445.7z"/>
					<path class="st0" d="M440.6,450.7c0,0,0.1,0,0.1,0C441.1,450.5,440.9,450.6,440.6,450.7z"/>
					<path class="st0" d="M440.6,450.7c-0.3-0.1-0.9-0.2-1.4-0.3c0.2,0.2,0.5,0.4,0.8,0.5C440.2,450.9,440.4,450.8,440.6,450.7z"/>
					<path class="st0" d="M424.4,442.9c2-0.2,3.9,0.7,2,2c1.6,0.8,7.9-0.9,11.4-2.2c-0.9,0.1-1.6,0.2-2.9-0.6c-1,0.5-2.2,2.6-4.1,2
						c-1.2-1.2,0.5-1.2,1.5-2c-2.4,0.9-3.8-1.2-7.3-0.4l1.4,1C425.8,442.8,424.8,442.5,424.4,442.9z"/>
					<path class="st0" d="M437.9,444.6l0.3,0.4c0.3-0.5,1-0.9,2.4-1.8c-1.1-0.5-1.8-0.5-2.5-0.5c0,0.7,0,1.3,0,2L437.9,444.6z"/>
					<path class="st0" d="M438.5,446.8c-2.2,0.1-3.2-0.8-5.4,0.2c0.3,1.2,1.9,0.5,2.9,1.1c-0.8-1.8,1.3,0.3,2.3-1.2
						c0.4,0.3,0.6,0.6,0.7,0.9c0.2-0.4,0.5-0.8,0.8-1.1c0,0-0.1,0-0.1,0.1l0,0c0,0,0,0,0,0c-0.3,0.1-0.4,0.2-0.3,0.1c0,0,0,0,0,0
						C439,446.7,438.7,446.7,438.5,446.8c0.4-0.6,0.5-0.2,0.8-0.1l0.3,0l0,0l-1.5-1.7C437.9,445.4,438.1,445.9,438.5,446.8z"/>
					<path class="st0" d="M429.8,458.5c0.2-0.1,0.3-0.1,0.5-0.2C430,458.2,429.8,458.2,429.8,458.5z"/>
					<path class="st0" d="M430.9,457.4c0.3,0.1,1.2,0,1.1,0.5c-0.5,0.5-1,0.2-1.7,0.4c0.6,0.1,1.7,0.6,2.5-0.5l-0.3-0.1
						c0.5-1,3-2.5,3.3-2.5C433.9,455.9,432.6,456.4,430.9,457.4z"/>
					<path class="st0" d="M434,452l-1.3-1.4l-1.7,1.2l1.1-0.3C431.9,452.5,433.2,452.1,434,452z"/>
					<polygon class="st0" points="439.2,442.3 441.5,442.2 438.2,441.7 					"/>
					<polygon class="st0" points="438.6,440.3 440.6,440.1 439.4,439.7 					"/>
					<path class="st0" d="M419,317.2l-0.5-0.6C418.6,316.9,418.8,317.1,419,317.2z"/>
					<path class="st0" d="M418.3,320.8l1,0.2C418.8,320.8,418.4,320.7,418.3,320.8z"/>
					<path class="st0" d="M436.6,388.8c1.9-0.6,4.8-1.3,2.5-1.3l-2.2,0.1C437.3,388.1,437.1,388.5,436.6,388.8z"/>
					<path class="st0" d="M426.2,351.5c-0.2,0-0.4,0.1-0.7,0.1c0.7,0.2,1.4,0.5,2,0.7C427.2,352.1,426.7,351.8,426.2,351.5z"/>
					<path class="st0" d="M417.4,350.1l1.5-0.8C418.4,349.5,417.9,349.8,417.4,350.1z"/>
					<path class="st0" d="M419.6,297.3l-2.1-0.9C417.4,297.3,418.6,297,419.6,297.3z"/>
					<path class="st0" d="M436,419.1c0.8-0.6,1.2-1.1,1.3-1.5C436.1,418.4,434.2,419,436,419.1z"/>
					<path class="st0" d="M441.6,321.8c-0.3-0.4-0.8-0.5-1.2-0.6C440.6,321.6,441,321.8,441.6,321.8z"/>
					<path class="st0" d="M437.2,415.9c-0.2,0.1-0.3,0.2-0.5,0.3c0.4,0.4,0.7,0.9,0.6,1.4C438.2,417,438.7,416.4,437.2,415.9z"/>
					<path class="st0" d="M435,227.2c0.1,0,0.2-0.1,0.3-0.1C435,227,435,227,435,227.2z"/>
					<path class="st0" d="M461.1,212c0.1,0.2,0,0.5,0,0.9C461.2,212.7,461.3,212.5,461.1,212z"/>
					<path class="st0" d="M438.7,432C438.8,432.4,438.9,432,438.7,432L438.7,432z"/>
					<path class="st0" d="M430.3,435c-0.3-0.1-0.6-0.1-1.1-0.1C429.8,434.9,430.1,434.9,430.3,435z"/>
					<path class="st0" d="M423.6,411.7C423.6,411.7,423.6,411.7,423.6,411.7C423.2,411.8,423.3,411.8,423.6,411.7z"/>
					<path class="st0" d="M437.7,432.7c0.2-0.2,0.5-0.4,0.6-0.6C438.2,432.2,438,432.4,437.7,432.7z"/>
					<path class="st0" d="M438.7,432.5c-0.1,0.2-0.1,0.3-0.2,0.4C438.9,432.9,439.2,432.9,438.7,432.5z"/>
					<path class="st0" d="M438.5,431.4c0.1,0.2,0,0.5-0.2,0.7c0.1-0.1,0.3-0.1,0.3-0.1C438.6,431.8,438.5,431.7,438.5,431.4z"/>
					<path class="st0" d="M432.9,265.9c0.1,0,0.1,0,0.2-0.1C432.3,265.2,432.4,265.4,432.9,265.9z"/>
					<path class="st0" d="M414.7,375.6C414.7,375.7,414.8,375.7,414.7,375.6c0.1,0,0.2,0,0.2,0L414.7,375.6z"/>
					<path class="st0" d="M413.2,373.8c2.7,0.9,2.3,1.3,1.7,1.8l6.3-0.2L413.2,373.8z"/>
					<path class="st0" d="M419.6,308.5l-2.1,0.9c-3-1.9-1.7-2.8-4.6-2.1c6.7,1.2,0,4.7,6.7,5.8l-1.5,0.6c0.1-0.2-0.3-0.3-0.2-0.5
						c-3.4,1,4.7,1.8,3.5,3.6c-0.6,0.6-1.7,0.9-2.4,0.4l1.5,1.7c-0.2,0.4-1.3,0.2-1.2-0.3l0.2,2.4l-0.2,0c1,0.5,2.5,1.4,3.2,1.9
						c-1,0.5-0.7-0.4-1.5-0.4l1.5,1.5c-1.8,0.3-3.4-1-3-1.8c-6.9,0.3,1.5,1.3-2.7,3.3l-0.7-1.3c-3.9,0.3-2.7,1.4-5.2,2.5
						c1.3-0.2,6.4-2,7.8-0.3c-0.6,0.3-0.9,0.8,0.4,1.7c-2.4-0.3-1.9,0.5-1.9,1.4L414,329c0.8,1.1,2.4,1.2,3.8,2c-0.5,1.1-2.9,1-5,1
						c-0.7,1.7,4.1-0.7,4.4,1.4c-1.4,1.3-0.2,2.5,1.5,4.5c-1.2,0.9-1.9-0.4-2.9-0.1l2.4,1.2c-0.1,0.2-0.9,0.1-1.2,0
						c0.9,0.9,3.2,0.4,3.9,1.7c3.5,0.7-5.4,1.9-1.6,3.8c-0.9,0.3-1.9-0.4-3.2-0.4c2.4,2.3,1.7,2,5.1,4l-2.2,1.2
						c2.5-0.8,5.2,0.8,7.4,2.2c1.2-0.3,2.2-0.5,2.7-0.6l1.5,2c-0.5,0.2-1.6-0.1-2.9-0.6c0.3,0.2,0.5,0.3,0.7,0.4
						c-1.2,0.5-3,0-4.8-0.6c0.6-0.2,1.3-0.3,2-0.5c-1.9-0.7-4-1.3-5.9-1.4c0.4,0.2,0.6,0.4,0.8,0.7c-0.5-0.2-1-0.3-1.3-0.3
						c-0.3,0,0.3,0.3,1.1,0.7l-3.6,0.1l1.4,0.2l-2.5,2.2c3.4,2.1,8.5,4.1,9.8,7c-2.5-0.9-4.2-0.5-7.3-0.8c3.3-0.5-1.2-2.3-0.4-3.7
						c-0.4,0.7-1.9,0.4-2.4,0.2l2.7,2.9c-2.5-0.3-1.9,0.4-3,1c5-0.1,3.2,2.2,4.6,3.4c-1.7-0.1-3.4-0.5-2.9-1.7
						c-3.9,1.1,5.7,2.3,2.4,3.4c0-0.3,0.3-0.5-0.6-0.7c1.4,0.8,0.1,2.5-1.3,2l0-0.3c-0.8,2-0.5,6.4,3.7,6.9c-0.6,0-5.1-0.6-5.9-0.8
						c4.7,1.6,9.4,3.1,14.1,4.6c-3.6-0.5-12.4,0.2-14.3-1.6c-0.5,0.5-1.2,1.1,0,2.2c0.5-0.3,5.3-0.5,5.6-0.1c-4.1,1-2.2,0.8-5.8,2.1
						c0.8-0.5,6.5,0.4,6.3,1.2c-0.8-0.2-5.6-0.2-6.2-0.5l5.5,2.3c-1-0.5-4.8-0.3-6.4,0.1c1.1-0.2-0.2,1.7,0.3,2.3l1.3-0.8
						c-1,2.2,7.8,2.6,7.4,4.8c-1.1-0.3-7.1-0.9-7.9,0.2c2.9,0.6,13.8,2.8,15.9,4.7l-1.7,0.3l1.8,1.5c-4.3-1-13.4-3.9-16.9-5.4
						c-1.3,0.8-2,0.2-1.8,1.5c-1.6,0.4-2.3-0.8-2.4-1.1l-1.1,3c3.4,0,3.3,2.4,6.1,2.3l-3.4-3.3c3.4,0,9.5,2.1,8.9,4.2
						c-1.4,0.5-6-0.5-7.1-0.5c1.1,0.3,2.2,2,1.4,2.2l-1.8-0.9c-1.3,1.2,4.4,2,1.2,3.3c-0.2,0.5-4.3,1.4-2.4,1.5
						c3.8-0.8,15.7-0.8,18.6-0.3c-0.3,0.2-3.7,2.4-5.6,3c-3,0.8-7.2-1.2-9.8-0.5c0.9,0,2.1,0.5,2.4,0.7c-0.8,0.5-2.8-0.2-2.4,0.9
						c3.4,0.2-0.3,2.3,2.9,0.5c1,1.1-0.7,1.2-0.5,2.4c2.2-0.4,7.5,1,8.5,2.1c-0.9,0-2,0.2-2.5,0.3c-0.3,2.2-1.8,3.4-1.7,5.4
						c-0.8,0.2-1.8,1.2-3.3,0.9c0.6,0.3,1.8,0.5,1.9,1.1c-2.9,1.4-0.5-1.4-4-0.3c2,0,2.8,1.5,4.1,2.4c3-0.4,0.5-2.1-0.8-3
						c4.2-0.2,8.7,1.2,10.7,3.2c1.1,1.6-2.7,0.9-2.1,1.1c-0.6,3.2,7.5,2.2,4.6,4.9c-2.6,1.2-5.3,0.4-7.2,0.8
						c-1.1-1.3,1.6-2.2,1.4-3.1l-1.2,1.2c-0.9-0.4-1.7-1.2-0.9-1.8c-2.3,1-0.1,5.4-2.1,8c0.9,0.4,1.9,1,3,0.6l-0.4-0.7
						c2.1-0.9,3.1,1.2,4,0.1c1.6,0.9,4.1,1.8,3,3.3l-3,0.6c0.9-0.1,1.7-1.1,0.7-1.4c1.4,0.4-3.9,2.6,0.2,2.8l2-1.2
						c1.7,0.8,5,1.7,4.2,3c2.9-0.9-0.4-0.2,3-1.5c-4.3,1.3-0.2-3.1-4.6-1.4c4-1.3,1.5-1.7,4.9-3.3c-1,0.1-1.9,0.6-1.5-0.5
						c-0.3,0-0.7-0.1-0.9-0.1c0,0,0,0,0.1-0.1c0,0-0.1,0-0.1,0.1c-0.2,0-0.2,0,0,0c-0.4,0.3-0.9,0.5-1.5,0.7c-2.4-0.3-2.4-2-3.7-2.4
						c0.4-0.7,1.2,0.2,2.2-0.3l-1.9-0.7c2.2-0.3,3.6-1.9,5-0.6l0-1.3c1.2-0.9,1.6-1.9,0.6-2.5c0.4-0.6-2.6-1.4-0.8-1
						c-0.5-0.6-1-1.3-1.5-2l0.6-0.1c0.2-2-3.9-4,0-6.5c-0.6-0.7-1.3-1.4-0.7-2.5l1.9-0.3c-0.7-0.9,1.9-2.7-0.1-3
						c5.2-1,1.1-4.3,2-5.8l-2.5-0.1c0.1-1.1-0.6-2.1-1.6-3.4l-2.2,0.1c-1.8-1.2,1.6-3,1.4-4.8c0.9,0.1,0.6,0.6,0.1,0.9
						c5.1-2.1-3.6-4.7,0.2-6.6c-0.8-0.5-0.5-0.9,0.1-1.2c0,0,0,0.1,0.1,0.1c0,0,0-0.1,0-0.2c0.4-0.2,0.8-0.4,1.2-0.6
						c-0.6,0.2-1,0.4-1.2,0.5c0-0.4-0.3-1-0.8-1.6l2.4-0.1c0,0,0-0.1-0.1-0.1c0.9-0.5-1.1-0.5-2.9-0.3c-0.4-0.3-0.9-0.6-1.4-0.8
						c3.9-0.3-1.2-1.6,2.9-2c-2-0.5-1.4-2.9-5.6-3.5c0.6,0,0.8-0.1,0.9,0.2c0.5-0.6,1-1.2-0.1-1.9l3.1-0.1l-4-1.6c1.9-0.7,3-1,5.3,0
						c-3.5-2.2-1.3-1.7-4.7-3.7l2,0.2c0-0.6-2.6-1.8-1-2c3.8-1.1,1-6.8,4.8-10c-5.9,0.2,2.7-1.4-1.7-1.9c1.4-0.1,2.2-0.5,3.3,0.2
						c-1.2-1.9,2.4-2.5-1.3-4.1c1.4-0.1,2,0.6,2.8,0.5c-0.3-0.2-1.1-0.7-0.3-0.8c0.8-0.1,1.1,0.4,1.7,0.7c-0.1-1.8-4.3-2.4-8.2-3
						c2-0.8,1.7-1.2-0.8-2.2c1.3-0.2,2.7-0.6,3.1,0.6c0.3-0.6,2.3-3.7-0.9-4.1c0.8-0.1,0.3-0.9,0-1.1c0.3-1.4,0.7-1.5,0.5-3
						l-0.6,0.3c-3.8-1-0.7-1.3-1.1-2.5l0.4,0.1c3.1-2.3-1.2-1.3,2.3-3.5l-2.4-0.1c-5.1-0.9,3.3-1.9,1.5-3.7l-1.4,0.4
						c-1.7-1,7.3-1.4,8-2.2c0.5-0.1,0.7,0.4,1,0.7c3.3-1.8-3.1-0.7-3.6-2.4c1.7-0.1,4.2,0.9,4.7-0.1c1.4-0.4-5-3.8-1.6-4.9
						c-1.3,0.1-2.7,0.3-3.5-0.6c-0.3-1.2,5.3-2.4,1.4-4c0.4-0.1,0.7-0.1,1-0.1c-0.9-1-1.3-3.1-3.5-3.9c8.3,0.4-3.2-6,4.4-4.9l0-2.7
						l0.8,0.2c0.8-1.6-1-2.5-2.7-3.4c0.6-0.3,1.2,0.1,1.6,0.2c1.9-2.3,1.6-2.6-1.8-5.3l2.5,0.2c-1.3-0.8,4.4-3,2-5.9
						c0.3,0.1,0.7,0.2,1.1,0.5c-2.4-3.2,7.9-5.4-0.8-8l-1.9-2.2c-1.1,2.2-3.8-1-5.4-0.3c-0.4-1,3.1-1.9,3.4-0.7l-0.5,0.1
						c4.6,1.2,2.2-2.6,5.3-2c0.6-4.7,4-8.7,5-13l-3.7-0.2l0.5-1.5c0.9-0.2,2.9,0,2.6,1.1c2.1-0.2-1.4-2.1-2.1-2.3
						c1.9-1.8,4,1.6,4.2,1l-0.1-0.9l-0.5,0.1c-1.3-1-2.9-1.4-2.4-2.6c0.9-0.7,2.3,0,2.5-0.3c0.3,0.1,0.4,0,0.2-0.5l0.7-1.8l-3,0.2
						c-1.2-1.1,0.5-1.8-2.9-1.5c5.2-0.3,3.2-6.7,4.9-7.2c-1.8-1.6-1.5-2.8-1-4.1c-0.7,0.2-3.9-0.2-3.2-1.4c6.5,1.8,3.3-1.7,8.3-1.7
						c-3.3,0.2,0-3.7-4.8-3.2c0.8-0.9,2.5,0.5,4.2,0c-2-3,2.8-5.1,2.6-8.3c-0.9-0.2-2.3,0-3.4-1l4.6-0.6c-0.3-0.7-4.8-1.7-1.6-2.1
						c-0.8,0-1.9,0-2.1-0.5c5.5-5-0.6-13,8.7-17.1c-1.9,0.4-1.9-0.2-1.8-0.8c-0.5,0.3-2.1-0.5-3.3-0.7l3.8-1.7
						c-3.1-1.3,0.5-2.7-2.5-3.8l0.4,0.9c-3.4-2-8.4-0.5-13-1.9c3.8,2.2-6.9,1.7-1.5,5.1c-1.1,0.2-1.4-0.7-2.5-0.8
						c1.9,1,2.1,1.7,1,2.6l-0.5-0.2c-0.3,3.3-2.6,4.2-4.7,7.4l2.4,0.3c-0.5,0.7-1.2,0.7-1.9,0.9c3.3,1.7,0.7-2.1,4.4-0.4
						c-4.9-0.1-1.3,5.3-6.8,4.8c-0.3,1.2,2.8,0.3,2.5,1.4l-1.5,0l1.8,0.7c-0.5,0.7-2.4,0.7-3.6,0.4c0.2-0.2-0.2-0.6-0.3-0.8
						c-1.9,0.6,0,3-0.7,3.2l1.1-0.9c0.6,3.5-2.1,7,0.2,10.8l1.1,0c1.5,2.8-1.6,1.6-1.2,4.4l-0.2-0.1c1,0.7,1.4,1.6,1.1,2.2
						c-1.1-0.9-2.7,0.7-4-0.4c1.6,3,1.4,1.6,5.2,4.2l-1.9,0c1.5,0.9,2.4,1.1,2.6,2.5c-1.3-1.4-2.9,0.3-4.8-1.3
						c-4.5,1.9,3.2,4.9-2.9,5c4.8,2.3,3.3-1.8,4.2-0.9c1.8-0.3,3.6,1.8,2.9,2.5c-0.3,0.8-6.7,0.2-7.1,2.4c0.1-0.2-0.3-0.3-0.2-0.5
						c-1.4,0.6,1.4,2-0.9,2.6c2.9,1.2-0.4,1.3,3.4,2.2l-0.5-2.2c0.8,1.3,5.1,3.3,2.6,4.7c-0.8-0.3-1.7-1.1-2.2-1.5
						c-1.3,0.3,0.6,1.2-0.7,1.5c-3.9-0.9-0.4-2.6-3.1-4.4c-1.8,0.3,2.4,2.9-1.7,1.4c5.2,1.9-1.1,2,2.7,4.3l-2.3-0.5
						c0.3,0.3,1.3,1,1.2,1.4l-2.9-1.4c2.4,1.7-2.7,1.9-1.5,3.3c0.4-2.4,2.9,0,4.8-0.7c2.6,3.6-6.4,0.6-5.9,4.2
						c-0.2-0.5,1.7-1.5,2.7-0.5c-0.6,0.6-1.7,1.2-3,1.4c0.1,2.3,2.5,0.1,3.7,1.3c-3,0.2,1,1.3,1.7,2.4l-2.4-0.4
						c-2,2.3,4.8,1.6,2.6,3.5l-3.1-1.5l0.6,1.3l-2.7-0.7c1.8,1.7,1.2,2,0.2,3.1c1.7,0,4.3,0.9,4.2,2c-1.5,0.5-2.2-0.8-2.1,0.8
						c-1.4-0.6-3.2-1.3-0.9-1.6c-0.8-0.2-1.4-0.6-2.2-0.8c-1.8,0.5-0.7,2-0.8,2.6c0.1-0.2,0.3-0.5,0.7-0.5l2.9,2.9
						c-1,0.2-1.6-0.2-2.3-0.6c0.2,0.5,1.2,1,1.3,1.7c-1.9-0.5-3.9-0.8-4.7-1.9l1.8,2.6c-0.9,0-2.5,0.8-3.2,0.3c-1.3,1,3.3,3.6,1.5,5
						c0.4,0.1,0.7,0.4,0.9,0.8c-0.7,1.5-3.3,2.4-0.9,4.7l-3.6,0.5c0.6,1.5,4.6-0.7,5.5,1.9c0.9,1.8-3.1,0.2-4.1,0.6
						c1.6,1.1,5,3.1,1.9,4.2C419.2,309.4,419.8,309.1,419.6,308.5z M418.7,326.3c-0.5-0.4-1.9-1.3-0.5-1.4
						C420.9,325.7,419.5,325.8,418.7,326.3z M421.4,353.7c-0.8-0.3-0.3-0.7,0.6-1C422.2,353,422,353.3,421.4,353.7z M436.3,427.3
						c0,0-0.1,0-0.1,0C437.1,426.5,436.7,426.8,436.3,427.3z M435.4,428.9c0.3,0.1,0.7,0.1,1,0c-0.6-0.1-0.7-0.4-0.5-0.8
						C435.2,428.3,434.8,428.5,435.4,428.9z M449.8,264.1l-0.7,0.2C448.6,263.5,449.2,263.8,449.8,264.1z"/>
					<path class="st0" d="M418.4,350.3c0.4-0.1,0.9,0,1.3,0C419.3,350.1,418.9,350.1,418.4,350.3z"/>
					<path class="st0" d="M420,297.5C420.1,297.4,420,297.4,420,297.5c-0.1-0.1-0.2-0.1-0.4-0.2L420,297.5z"/>
					<path class="st0" d="M414,405.4c0.3-0.3,0.8-0.5,1.2-0.6C414.7,404.8,414.2,404.9,414,405.4z"/>
					<path class="st0" d="M440.2,436.3l-0.7-0.9c0.2,0.4-0.3,0.7-0.7,0.9C439.3,436.3,440.1,436,440.2,436.3z"/>
					<path class="st0" d="M426.6,446.7c0.3,0.1,0.1,0.3,0.4,0.4l1.1-0.2C427.9,446.3,426.9,446,426.6,446.7z"/>
					<path class="st0" d="M432.3,438.1c-2,0.3-1.3,0.9-0.8,1.5c0,0,0-0.1,0-0.1C434.4,439.4,433.4,438.8,432.3,438.1z"/>
					<path class="st0" d="M431.6,439.8c0.1,0.2,0.2,0.4,0.1,0.6C432.9,440.3,432,440.1,431.6,439.8z"/>
					<path class="st0" d="M436.9,430.7c-0.5,0.4,2.6,0,1.8,0.2C441.3,431,435.4,429.1,436.9,430.7z"/>
					<polygon class="st0" points="425.8,439.5 428.2,439 426.2,438.8 					"/>
					<path class="st0" d="M427,433.8l-0.6,1.2c0.4-0.1,0.7,0.1,0.9,0.2C427.3,434.5,427.7,433.7,427,433.8z"/>
					<path class="st0" d="M427.3,435.2c0,0.4,0.1,0.7,0.5,0.8C427.8,435.8,427.6,435.4,427.3,435.2z"/>
					<polygon class="st0" points="424.9,438.1 425.3,437.7 425.4,436.9 					"/>
					<path class="st0" d="M426.6,421.8l-0.8-1.2c-0.9-0.1-1.4,0.3-1,0.7C425.4,421.6,425.8,422,426.6,421.8z"/>
					<path class="st0" d="M420,425.9c0.5-0.4,1.1-0.4,1.9-0.7l-3.1,0.2L420,425.9z"/>
					<path class="st0" d="M419,422.3c-0.9-0.1-2.6-1.7-2.3-0.1C417.6,422.3,418.4,423.5,419,422.3z"/>
					<polygon class="st0" points="422.5,403.5 422.6,403.8 427.7,403.8 					"/>
					<path class="st0" d="M410.7,386.7c-1.3,1.5,3.1,0.5,1.6,1.8c1.2,0.4,1.3-1.1,2.3-0.7C413.3,386.8,414.1,386.4,410.7,386.7z"/>
					<path class="st0" d="M414.6,387.8c0.2,0.2,0.4,0.3,0.8,0.5C415,388,414.8,387.9,414.6,387.8z"/>
					<polygon class="st0" points="464.5,209.4 465.8,208.8 464,208.9 					"/>
					<path class="st0" d="M461.3,206.8l3.2,0.6l-2.7-1.2C461.9,206.3,462,206.8,461.3,206.8z"/>
					<path class="st0" d="M411.8,328.1l0.8,0.2c0.9,0,0.9-0.3,1.1-0.7L411.8,328.1z"/>
					<polygon class="st0" points="416,315.6 415.9,315.8 418.8,315.8 					"/>
					<path class="st0" d="M413.9,304.3c-0.2,0.4,0.4,1,0.2,1.5C413.7,304.7,417.5,304.8,413.9,304.3z"/>
				</g>
			</g>
		</g>
	</g>
</g>
</svg>
