<?xml version="1.0" encoding="utf-8"?>
<!-- Generator: Adobe Illustrator 24.0.1, SVG Export Plug-In . SVG Version: 6.00 Build 0)  -->
<svg version="1.1" id="Layer_1" xmlns="http://www.w3.org/2000/svg" xmlns:xlink="http://www.w3.org/1999/xlink" x="0px" y="0px"
	 viewBox="0 0 720 720" style="enable-background:new 0 0 720 720;" xml:space="preserve">
<style type="text/css">
	.st0{fill:#CCCCCC;stroke:#000000;stroke-width:3;stroke-miterlimit:10;}
	.st1{stroke:#000000;stroke-width:3.8398;stroke-miterlimit:10;}
	.st2{fill:none;stroke:#000000;stroke-width:3.8398;stroke-miterlimit:10;}
	.st3{fill:none;stroke:#000000;stroke-miterlimit:10;}
	.st4{fill:#FFFFFF;stroke:#000000;stroke-width:3;stroke-miterlimit:10;}
	.st5{fill:none;}
</style>
<g>
	<path class="st0" d="M409.1,368.8h-166c-6.6,0-12-5.4-12-12v-78.2c0-6.6,5.4-12,12-12H409c6.6,0,12,5.4,12,12v78.2
		C421.1,363.4,415.7,368.8,409.1,368.8z"/>
	<path class="st0" d="M445.4,412.3H207.3c6.6-9,13.2-18.1,19.8-27.1h198.4C432.2,394.2,438.8,403.2,445.4,412.3z"/>
	<rect x="309.1" y="368.8" class="st1" width="34.1" height="9"/>
	<line class="st2" x1="268" y1="377.8" x2="384.1" y2="377.8"/>
	<line class="st3" x1="231.1" y1="393.8" x2="421.1" y2="393.8"/>
	<line class="st3" x1="228.2" y1="398.7" x2="424.4" y2="398.7"/>
	<line class="st3" x1="224.3" y1="404.4" x2="427.9" y2="404.1"/>
	<path class="st4" d="M404.3,362.1h-156c-5.9,0-10.8-4.9-10.8-10.8v-66.9c0-5.9,4.9-10.8,10.8-10.8h156c5.9,0,10.8,4.9,10.8,10.8
		v66.9C415.1,357.2,410.3,362.1,404.3,362.1z"/>
	<rect x="270.2" y="321.3" class="st5" width="50.5" height="28.9"/>
</g>
</svg>
