<?xml version="1.0" encoding="utf-8"?>
<!-- Generator: Adobe Illustrator 24.0.1, SVG Export Plug-In . SVG Version: 6.00 Build 0)  -->
<svg version="1.1" id="Layer_1" xmlns="http://www.w3.org/2000/svg" xmlns:xlink="http://www.w3.org/1999/xlink" x="0px" y="0px"
	 viewBox="0 0 720 720" style="enable-background:new 0 0 720 720;" xml:space="preserve">
<style type="text/css">
	.st0{fill:#ACB4C1;stroke:#000000;stroke-width:4.8467;stroke-miterlimit:10;}
	.st1{fill:none;stroke:#000000;stroke-width:4.8467;stroke-miterlimit:10;}
	.st2{opacity:0.3;}
</style>
<g>
	<path class="st0" d="M401.3,435.7c0,1.3,0,2.5-0.1,3.8v0c-1.2,15.7-11.1,29.1-24.9,35.3c0,0,0,0,0,0c-5,2.2-10.5,3.5-16.4,3.6h0
		l-1.8,0l-5.2,0.1c-23.2,0.3-42.4-18.3-42.8-41.5c2.6-20.5,2.4-40.8-0.9-60.7c-0.3-23.2,18.3-42.4,41.5-42.7l3.5-0.1l2.5,0l1.1,0
		c0.3,0,0.7,0,1,0c0.3,0,0.7,0,1.1,0c22.2,0.8,40.4,19,40.7,41.5C397.5,395.6,397.7,415.8,401.3,435.7z"/>
	<path class="st1" d="M353.7,348.4l1.2,0c1.3,0,2.4,1.1,2.5,2.4l0.3,20.8c0,1.3-1.1,2.4-2.4,2.5l-1.2,0c-1.3,0-2.4-1.1-2.5-2.4
		l-0.3-20.8C351.3,349.6,352.4,348.5,353.7,348.4z"/>
	<path class="st1" d="M361,227.7c19,22.9,0,32.7,0,32.7s-19.6,8.2-5.8,33.8c10.8,20.1,4,32.8,0.6,37.5c-1,1.3-1.7,1.9-1.7,1.9
		l0.1,7.1l0.1,7.7l0.4,25.6l0.2,10.9l45.5-9.9c-30.2,12.7-60.7,13.2-91.3,1.4"/>
	<path class="st2" d="M358,478.5l-5.2,0.1c-23.2,0.3-42.4-18.3-42.8-41.5l-0.9-60.7c-0.3-23.2,18.3-42.4,41.5-42.7l3.5-0.1
		c0,0,0.7-0.7,1.7-1.9c0.3,0.6,0.6,1.3,0.8,1.9c0.3,0.6,0.5,1.2,0.8,1.8c0,0,0,0.1,0,0.1c0,0,0,0.1,0,0.1c-1.1,1.8-2.1,3.8-3.1,5.9
		c0,0,0,0,0,0v0c-5.2,11.1-9,26-10.8,42.9c-0.8,7-1.2,14.4-1.2,22C342.3,436.7,348.5,463.2,358,478.5z"/>
</g>
</svg>
