<?xml version="1.0" encoding="utf-8"?>
<!-- Generator: Adobe Illustrator 24.0.1, SVG Export Plug-In . SVG Version: 6.00 Build 0)  -->
<svg version="1.1" id="Layer_1" xmlns="http://www.w3.org/2000/svg" xmlns:xlink="http://www.w3.org/1999/xlink" x="0px" y="0px"
	 viewBox="0 0 720 720" style="enable-background:new 0 0 720 720;" xml:space="preserve">
<style type="text/css">
	.st0{fill:none;stroke:#000000;stroke-width:4.202;stroke-miterlimit:10;stroke-dasharray:22.5404;}
	.st1{fill:none;stroke:#29ABE2;stroke-miterlimit:10;}
	.st2{fill:none;stroke:#82C7E0;stroke-miterlimit:10;}
	.st3{fill:none;stroke:#EF1630;stroke-miterlimit:10;}
	.st4{fill:none;stroke:#000000;stroke-width:3;stroke-miterlimit:10;}
	.st5{fill:none;stroke:#000000;stroke-width:2;stroke-miterlimit:10;}
</style>
<g>
	<path class="st0" d="M210.3,377.3"/>
	<line class="st1" x1="353.6" y1="301.3" x2="451.5" y2="300.8"/>
	<line class="st2" x1="351.4" y1="305.7" x2="451.8" y2="305.2"/>
	<line class="st2" x1="353.6" y1="310.2" x2="451.6" y2="309.7"/>
	<line class="st2" x1="354.6" y1="315.2" x2="455" y2="314.7"/>
	<line class="st2" x1="356.8" y1="319.7" x2="454.8" y2="319.2"/>
	<line class="st2" x1="353.8" y1="324.4" x2="451.7" y2="323.9"/>
	<line class="st2" x1="351.5" y1="328.8" x2="451.9" y2="328.3"/>
	<line class="st2" x1="353.8" y1="333.3" x2="451.7" y2="332.8"/>
	<line class="st2" x1="354.7" y1="338.3" x2="455.1" y2="337.8"/>
	<line class="st2" x1="357" y1="342.8" x2="454.9" y2="342.3"/>
	<line class="st2" x1="354.2" y1="347.6" x2="454.6" y2="347.1"/>
	<line class="st2" x1="356.4" y1="352.1" x2="454.4" y2="351.6"/>
	<line class="st2" x1="354.8" y1="357.1" x2="455.2" y2="356.6"/>
	<line class="st2" x1="355.5" y1="361.6" x2="453.4" y2="361.1"/>
	<line class="st2" x1="356.6" y1="366.3" x2="454.5" y2="365.8"/>
	<line class="st2" x1="354.3" y1="370.7" x2="454.7" y2="370.2"/>
	<line class="st2" x1="356.6" y1="375.2" x2="454.5" y2="374.7"/>
	<line class="st2" x1="356" y1="380.4" x2="456.3" y2="379.9"/>
	<line class="st2" x1="355.6" y1="384.7" x2="453.6" y2="384.2"/>
	<line class="st2" x1="353.1" y1="389.6" x2="453.4" y2="389.1"/>
	<line class="st2" x1="354.3" y1="394.1" x2="452.3" y2="393.6"/>
	<line class="st2" x1="352.7" y1="399.1" x2="453.1" y2="398.6"/>
	<line class="st2" x1="353.4" y1="403.6" x2="451.3" y2="403.1"/>
	<line class="st2" x1="354.4" y1="408.3" x2="452.3" y2="407.8"/>
	<line class="st2" x1="352.2" y1="412.7" x2="452.6" y2="412.2"/>
	<line class="st2" x1="354.4" y1="417.2" x2="452.4" y2="416.7"/>
	<line class="st2" x1="353.8" y1="422.4" x2="454.2" y2="421.9"/>
	<line class="st2" x1="353.5" y1="426.7" x2="451.4" y2="426.2"/>
	<line class="st3" x1="365.4" y1="282.3" x2="365.7" y2="439.8"/>
	<line class="st1" x1="236.7" y1="301.7" x2="334.6" y2="301.2"/>
	<line class="st2" x1="234.5" y1="306.1" x2="334.8" y2="305.6"/>
	<line class="st2" x1="236.7" y1="310.6" x2="334.6" y2="310.1"/>
	<line class="st2" x1="237.7" y1="315.6" x2="338" y2="315.1"/>
	<line class="st2" x1="239.9" y1="320.1" x2="337.8" y2="319.6"/>
	<line class="st2" x1="236.8" y1="324.8" x2="334.7" y2="324.3"/>
	<line class="st2" x1="234.6" y1="329.2" x2="334.9" y2="328.7"/>
	<line class="st2" x1="236.8" y1="333.7" x2="334.8" y2="333.2"/>
	<line class="st2" x1="237.8" y1="338.7" x2="338.1" y2="338.2"/>
	<line class="st2" x1="240" y1="343.2" x2="338" y2="342.7"/>
	<line class="st2" x1="237.3" y1="348" x2="337.6" y2="347.5"/>
	<line class="st2" x1="239.5" y1="352.5" x2="337.4" y2="352"/>
	<line class="st2" x1="237.9" y1="357.5" x2="338.2" y2="357"/>
	<line class="st2" x1="238.5" y1="362" x2="336.5" y2="361.5"/>
	<line class="st2" x1="239.6" y1="366.7" x2="337.5" y2="366.2"/>
	<line class="st2" x1="237.4" y1="371.1" x2="337.7" y2="370.6"/>
	<line class="st2" x1="239.6" y1="375.6" x2="337.6" y2="375.1"/>
	<line class="st2" x1="239" y1="380.8" x2="339.3" y2="380.3"/>
	<line class="st2" x1="238.7" y1="385.1" x2="336.6" y2="384.6"/>
	<line class="st2" x1="236.1" y1="390" x2="336.5" y2="389.5"/>
	<line class="st2" x1="237.4" y1="394.4" x2="335.3" y2="393.9"/>
	<line class="st2" x1="235.7" y1="399.5" x2="336.1" y2="399"/>
	<line class="st2" x1="236.4" y1="403.9" x2="334.4" y2="403.5"/>
	<line class="st2" x1="237.5" y1="408.6" x2="335.4" y2="408.1"/>
	<line class="st2" x1="235.3" y1="413.1" x2="335.6" y2="412.6"/>
	<line class="st2" x1="237.5" y1="417.5" x2="335.4" y2="417"/>
	<line class="st2" x1="236.9" y1="422.8" x2="337.2" y2="422.3"/>
	<line class="st2" x1="236.5" y1="427" x2="334.5" y2="426.5"/>
	<line class="st3" x1="323.9" y1="280.6" x2="324.3" y2="438.1"/>
	<path class="st4" d="M329.2,441h-84.6c-5.6,0-10.1-4.5-10.1-10.1V289c0-5.6,4.5-10.1,10.1-10.1h84.6c5.6,0,10.1,4.5,10.1,10.1
		v141.9C339.3,436.5,334.8,441,329.2,441z"/>
	<path class="st4" d="M445.1,441.8h-85.8c-5.3,0-9.5-4.3-9.5-9.5v-143c0-5.3,4.3-9.5,9.5-9.5h85.8c5.3,0,9.5,4.3,9.5,9.5v143
		C454.6,437.6,450.4,441.8,445.1,441.8z"/>
	<ellipse class="st5" cx="345" cy="278" rx="10.8" ry="4.3"/>
	<ellipse class="st5" cx="345" cy="282.3" rx="10.8" ry="4.3"/>
	<ellipse class="st5" cx="345" cy="286.5" rx="10.8" ry="4.3"/>
	<ellipse class="st5" cx="345" cy="290.8" rx="10.8" ry="4.3"/>
	<ellipse class="st5" cx="345" cy="295" rx="10.8" ry="4.3"/>
	<ellipse class="st5" cx="345" cy="299.3" rx="10.8" ry="4.3"/>
	<ellipse class="st5" cx="345" cy="303.5" rx="10.8" ry="4.3"/>
	<ellipse class="st5" cx="345" cy="307.8" rx="10.8" ry="4.3"/>
	<ellipse class="st5" cx="345" cy="312.1" rx="10.8" ry="4.3"/>
	<ellipse class="st5" cx="345" cy="316.3" rx="10.8" ry="4.3"/>
	<ellipse class="st5" cx="345" cy="320.6" rx="10.8" ry="4.3"/>
	<ellipse class="st5" cx="345" cy="324.8" rx="10.8" ry="4.3"/>
	<ellipse class="st5" cx="345" cy="329.1" rx="10.8" ry="4.3"/>
	<ellipse class="st5" cx="345" cy="333.4" rx="10.8" ry="4.3"/>
	<ellipse class="st5" cx="345" cy="337.6" rx="10.8" ry="4.3"/>
	<ellipse class="st5" cx="345" cy="341.9" rx="10.8" ry="4.3"/>
	<ellipse class="st5" cx="345" cy="346.1" rx="10.8" ry="4.3"/>
	<ellipse class="st5" cx="345" cy="350.4" rx="10.8" ry="4.3"/>
	<ellipse class="st5" cx="345" cy="354.6" rx="10.8" ry="4.3"/>
	<ellipse class="st5" cx="345" cy="358.9" rx="10.8" ry="4.3"/>
	<ellipse class="st5" cx="345" cy="363.2" rx="10.8" ry="4.3"/>
	<ellipse class="st5" cx="345" cy="367.4" rx="10.8" ry="4.3"/>
	<ellipse class="st5" cx="345" cy="371.7" rx="10.8" ry="4.3"/>
	<ellipse class="st5" cx="345" cy="375.9" rx="10.8" ry="4.3"/>
	<ellipse class="st5" cx="345" cy="380.2" rx="10.8" ry="4.3"/>
	<ellipse class="st5" cx="345" cy="384.5" rx="10.8" ry="4.3"/>
	<ellipse class="st5" cx="345" cy="388.7" rx="10.8" ry="4.3"/>
	<ellipse class="st5" cx="345" cy="393" rx="10.8" ry="4.3"/>
	<ellipse class="st5" cx="345" cy="397.2" rx="10.8" ry="4.3"/>
	<ellipse class="st5" cx="345" cy="401.5" rx="10.8" ry="4.3"/>
	<ellipse class="st5" cx="345" cy="405.7" rx="10.8" ry="4.3"/>
	<ellipse class="st5" cx="345" cy="410" rx="10.8" ry="4.3"/>
	<ellipse class="st5" cx="345" cy="414.3" rx="10.8" ry="4.3"/>
	<ellipse class="st5" cx="345" cy="418.5" rx="10.8" ry="4.3"/>
	<ellipse class="st5" cx="345" cy="422.8" rx="10.8" ry="4.3"/>
	<ellipse class="st5" cx="345" cy="427" rx="10.8" ry="4.3"/>
	<ellipse class="st5" cx="345" cy="431.3" rx="10.8" ry="4.3"/>
	<ellipse class="st5" cx="345" cy="435.5" rx="10.8" ry="4.3"/>
	<ellipse class="st5" cx="345" cy="439.8" rx="10.8" ry="4.3"/>
</g>
</svg>
