<?xml version="1.0" encoding="utf-8"?>
<!-- Generator: Adobe Illustrator 24.0.1, SVG Export Plug-In . SVG Version: 6.00 Build 0)  -->
<svg version="1.1" id="Layer_1" xmlns="http://www.w3.org/2000/svg" xmlns:xlink="http://www.w3.org/1999/xlink" x="0px" y="0px"
	 viewBox="0 0 144 144" style="enable-background:new 0 0 144 144;" xml:space="preserve">
<style type="text/css">
	.st0{fill:#F79A8D;stroke:#000000;stroke-width:1.0423;stroke-miterlimit:10;}
	.st1{fill:#F4C34A;stroke:#000000;stroke-width:1.0423;stroke-miterlimit:10;}
	.st2{fill:#F9CDAF;}
	.st3{fill:#C6C6C6;stroke:#000000;stroke-width:1.0423;stroke-miterlimit:10;}
	.st4{fill:none;stroke:#000000;stroke-width:1.0423;stroke-miterlimit:10;}
	.st5{fill:#F9CDAF;stroke:#000000;stroke-width:1.0975;stroke-miterlimit:10;}
	.st6{stroke:#000000;stroke-width:1.1026;stroke-miterlimit:10;}
	.st7{font-family:'KristenITC-Regular';}
	.st8{font-size:3.4744px;}
	.st9{opacity:0.3;enable-background:new    ;}
	.st10{fill:none;stroke:#000000;stroke-width:1.9497;stroke-miterlimit:10;stroke-dasharray:10.4585;}
</style>
<g>
	<path class="st0" d="M77.4,26.8H65.6c-1.7,0-3.1-1.4-3.1-3.1v-7.9c0-1.7,1.4-3.1,3.1-3.1h11.8c1.7,0,3.1,1.4,3.1,3.1v7.9
		C80.5,25.4,79.1,26.8,77.4,26.8z"/>
	<rect x="62.5" y="29.7" class="st1" width="18" height="82.5"/>
	<polygon class="st2" points="71.5,129.1 62.1,112.7 81,112.7 	"/>
	<rect x="62.5" y="25.2" class="st3" width="18" height="4.4"/>
	<rect x="62.5" y="20.8" class="st3" width="18" height="4.4"/>
	<line class="st4" x1="68.3" y1="29.7" x2="68.3" y2="112.2"/>
	<line class="st4" x1="74.8" y1="29.7" x2="74.8" y2="112.2"/>
	<path class="st5" d="M68.2,123.2c0,0,3.3-2.3,6.7,0"/>
	<polygon class="st6" points="71.5,127.9 68.8,123.2 74.2,123.2 	"/>
	<polygon class="st2" points="77.3,107.1 80.5,112.7 74.1,112.7 	"/>
	<polygon class="st2" points="71.5,107.5 74.5,112.7 68.6,112.7 	"/>
	<polygon class="st2" points="65.7,107.5 68.7,112.7 62.8,112.7 	"/>
	<text transform="matrix(0 1 -1 0 70.5952 38.4023)" class="st7 st8">No.2</text>
	<path class="st9" d="M68.5,112.6H62V16.9c0-2.4,1.9-4.2,4.2-4.2h2.2V112.6z"/>
	<path class="st9" d="M71.5,129.1c-1-5.5-2-11-3.1-16.5c-2.1,0-4.3,0-6.4,0C65.2,118.1,68.4,123.6,71.5,129.1z"/>
	<path class="st10" d="M70.6,6.7"/>
</g>
</svg>
