<?xml version="1.0" encoding="utf-8"?>
<!-- Generator: Adobe Illustrator 24.0.2, SVG Export Plug-In . SVG Version: 6.00 Build 0)  -->
<svg version="1.1" id="Layer_1" xmlns="http://www.w3.org/2000/svg" xmlns:xlink="http://www.w3.org/1999/xlink" x="0px" y="0px"
	 viewBox="0 0 216 216" style="enable-background:new 0 0 216 216;" xml:space="preserve">
<style type="text/css">
	.st0{fill:#48A1D3;stroke:#231F20;stroke-linecap:round;stroke-linejoin:round;}
	.st1{fill:#58595B;stroke:#231F20;stroke-linecap:round;stroke-linejoin:round;}
	.st2{fill:#414042;stroke:#231F20;stroke-linecap:round;stroke-linejoin:round;}
	.st3{enable-background:new    ;}
	.st4{fill:#231F20;}
</style>
<title>shipFirstLogo</title>
<polygon class="st0" points="96.3,117.7 66,108.9 75.1,96.3 106.6,102.4 "/>
<polygon class="st0" points="98.7,122.2 110.9,104.6 110.8,137.7 77.7,128.6 77.7,115.5 "/>
<polygon class="st1" points="139.5,84.4 113.3,99.9 105.3,98.4 105.1,80.6 "/>
<polygon class="st1" points="102.7,97.7 78.5,92.9 102.6,81 "/>
<polygon class="st0" points="140.8,120.3 116.7,137.7 116.9,101.9 140.6,87.2 "/>
<polygon class="st2" points="147.8,92.7 142.7,92.1 142.6,85.9 "/>
<g class="st3">
	<path class="st4" d="M65.2,82.2c0.8,0.4,1.3,1.2,1.5,2.2c0.2,1,0.1,1.9-0.4,2.7c-0.3,0.5-0.7,1.1-1.3,1.7c-0.1,0.1-0.3,0.3-0.5,0.5
		c0,0.1-0.1,0.2,0,0.2c0,0.1,0.1,0.1,0.1,0.1c0.3,0.2,0.5,0.2,0.4,0.2c0.1,0.1,0.2,0.3,0,0.5c-0.1,0.1-0.2,0.1-0.5,0.1
		c-1.9-0.3-2.9-0.4-3-0.5c-0.2-0.1-0.2-0.2-0.1-0.4c0-0.1,0.3-0.2,0.6-0.3c0.3,0,0.7-0.1,1.1-0.2c0.9-0.2,1.6-0.9,2.2-2.1
		c0.2-0.3,0.3-0.6,0.4-0.9c0.2-0.5,0.2-0.8,0-0.8c-0.2-0.1-0.5,0.1-1.1,0.7c-0.4,0.4-0.6,0.7-0.8,1c-0.6,0.9-1.3,1.5-2.1,1.7
		c-0.8,0.3-1.7,0.2-2.4-0.2c-1.9-1-2.2-3-0.6-5.9c0.3-0.4,0.7-0.9,1.1-1.6c0.1-0.2,0.1-0.4-0.2-0.6c-0.1-0.1-0.1-0.3,0-0.6
		c0-0.1,0.1-0.1,0.2-0.2c0.1-0.1,0.2-0.1,0.2,0c0.1,0,0.2,0.1,0.4,0.3c0.1,0.1,0.4,0.5,1.1,1.2c0.4,0.5,0.7,0.8,0.9,0.9
		c0.1,0.1,0.3,0.1,0.6,0c0.4,0,0.7-0.1,0.9-0.1C64.5,81.9,64.9,82,65.2,82.2z M61.7,82.5l-0.2-0.1c-0.3-0.2-0.8,0-1.4,0.5
		c-0.5,0.4-0.8,0.7-0.9,1c-0.1,0.2-0.2,0.5-0.3,0.8c-0.1,0.4-0.1,0.7,0,0.8c0.1,0.1,0.3,0,0.5-0.2c0.1-0.1,0.3-0.3,0.3-0.4
		c0.2-0.2,0.6-0.7,1.2-1.3c0.6-0.6,0.8-0.9,0.8-0.9C61.6,82.6,61.6,82.6,61.7,82.5z"/>
</g>
<g class="st3">
	<path class="st4" d="M73.8,76.2c0.1,0.1,0.1,0.2-0.1,0.4c-0.3,0.3-0.7,0.8-1.3,1.3c-0.6,0.6-1,1-1.3,1.3c-0.2,0.2-0.6,0.6-1.1,1.2
		c-0.5,0.6-0.9,1-1.1,1.2c-0.1,0.1-0.2,0.2-0.3,0.1c-0.2-0.1-0.2-0.3,0-0.6c0.2-0.3,0.4-0.6,0.6-0.9c0.2-0.4,0.2-0.7,0-0.9
		c-0.3-0.2-0.7-0.6-1.2-1c-0.5-0.5-0.9-0.8-1.2-1c-0.2-0.2-0.5-0.5-1-1c-0.4-0.4-0.7-0.8-1-1c-0.1-0.1-0.2-0.2-0.3-0.2
		c-0.1,0-0.2,0.1-0.4,0.2c-0.2,0.1-0.4,0.3-0.8,0.6c-0.2,0.1-0.3,0.2-0.3,0.2c-0.1,0-0.2,0-0.3-0.1c-0.2-0.1-0.1-0.3,0.1-0.5
		c0.2-0.2,0.5-0.5,0.8-0.8s0.6-0.6,0.8-0.8c0.3-0.3,0.8-0.9,1.4-1.6c0.6-0.7,1.1-1.2,1.4-1.6c0.1-0.1,0.2-0.1,0.3-0.1
		s0.2,0.1,0.3,0.1c0.1,0.1,0.1,0.3,0,0.5c-0.1,0.3-0.1,0.5-0.1,0.6c0.1,0.1,0.3,0.4,0.7,0.7c0.4,0.4,0.6,0.6,0.7,0.6
		c0.2,0.2,0.4,0.3,0.4,0.3c0.2,0.1,0.3,0,0.4-0.1l0.7-0.8c0.2-0.2,0.3-0.4,0.1-0.5c-0.1-0.1-0.3-0.2-0.5-0.4
		c-0.2-0.2-0.4-0.3-0.5-0.4c-0.1-0.1-0.2-0.2-0.3-0.3c-0.1-0.2-0.2-0.3-0.3-0.3c-0.2-0.2-0.4-0.2-0.5-0.2c-0.1,0.1-0.3,0.2-0.4,0.2
		c-0.2,0.1-0.3,0.1-0.4,0c-0.1-0.1-0.2-0.2-0.1-0.3c0-0.1,0.1-0.2,0.3-0.4c0.1-0.1,0.4-0.4,1-1c0.6-0.5,0.9-0.9,0.9-1
		c0.3-0.3,0.7-0.8,1.3-1.4c0.5-0.6,1-1.1,1.3-1.4c0.2-0.3,0.4-0.3,0.6-0.2c0.2,0.2,0.2,0.4,0,0.7c-0.2,0.3-0.4,0.5-0.6,0.8
		c-0.2,0.3-0.2,0.6,0,0.8c0.2,0.2,0.5,0.5,1,0.9c0.5,0.4,0.8,0.7,1,0.9c0.2,0.2,0.6,0.6,1.1,1.1c0.5,0.5,0.8,0.8,1.1,1.1
		c0.2,0.2,0.3,0.2,0.6,0.1c0.2-0.1,0.5-0.3,1-0.7c0.3-0.3,0.6-0.3,0.7-0.2c0.1,0.1,0.1,0.2,0,0.3c0,0-0.1,0.1-0.3,0.3
		c-0.3,0.3-0.7,0.7-1.2,1.2c-0.5,0.5-0.9,0.9-1.2,1.2c-0.2,0.2-0.5,0.6-0.9,1c-0.4,0.5-0.7,0.8-0.9,1C74.2,76,74,76.2,73.9,76
		c-0.1-0.1-0.1-0.3,0-0.5c0.1-0.2,0.1-0.4,0-0.5c-0.1-0.1-0.3-0.3-0.5-0.4c-0.2-0.2-0.4-0.3-0.5-0.4c-0.2-0.2-0.5-0.5-0.8-0.8
		c-0.2-0.2-0.4-0.2-0.6-0.1L70.9,74c-0.2,0.2-0.3,0.4-0.1,0.6c0.1,0.1,0.3,0.3,0.6,0.6c0.2,0.2,0.5,0.5,0.8,0.8
		c0.2,0.2,0.5,0.3,0.7,0.3c0.1,0,0.3-0.1,0.5-0.2C73.6,76.1,73.7,76.1,73.8,76.2z"/>
</g>
<g class="st3">
	<path class="st4" d="M88.7,65c0.1,0.2,0,0.4-0.2,0.5c-0.8,0.4-1.9,1-3.2,1.8c-0.5,0.3-1.1,0.7-1.9,1.2c-1,0.6-1.6,1-1.9,1.2
		c-0.1,0-0.1,0.1-0.2,0.1c-0.1,0-0.2,0-0.2-0.1c-0.1-0.1-0.1-0.2,0-0.3c0,0,0.1-0.1,0.3-0.3c0.2-0.1,0.4-0.3,0.7-0.5
		c0.4-0.3,0.5-0.6,0.4-0.8c-0.2-0.3-0.5-0.8-0.9-1.4c-0.4-0.6-0.7-1.1-0.9-1.4c-0.2-0.3-0.6-1.1-1.2-2.3c-0.2-0.3-0.3-0.4-0.5-0.5
		c-0.2,0-0.4,0-0.7,0.2c-0.2,0.1-0.4,0.2-0.6,0.4c-0.2,0.1-0.3,0.2-0.4,0.1c-0.1,0-0.2-0.1-0.2-0.2c-0.1-0.1,0-0.3,0.3-0.5
		c0.6-0.3,1.2-0.6,1.7-1c1.1-0.6,1.7-0.9,1.7-1c1.6-1,2.7-1.7,3.2-2c0.3-0.2,0.4-0.2,0.5,0c0.1,0.1,0,0.3-0.1,0.4
		c0,0-0.2,0.2-0.5,0.4c-0.3,0.2-0.5,0.4-0.6,0.6c-0.1,0.2-0.1,0.3,0,0.5c0,0,0.2,0.3,0.6,0.8c0.4,0.5,0.7,1,0.9,1.4
		c0.2,0.3,0.5,0.8,0.8,1.4c0.4,0.7,0.6,1.2,0.8,1.4c0.1,0.2,0.3,0.4,0.4,0.4c0.1,0,0.3,0,0.5-0.1c0,0,0.2-0.1,0.4-0.2
		c0.2-0.1,0.4-0.1,0.4-0.2C88.3,64.8,88.5,64.8,88.7,65z"/>
</g>
<g class="st3">
	<path class="st4" d="M96.3,60.3c0,0.1,0.1,0.3,0.2,0.6c0.1,0.2,0.1,0.4,0.2,0.6c0,0.1,0.2,0.2,0.6,0.1c0.3-0.1,0.6-0.1,0.9-0.2
		c0.3,0,0.5-0.1,0.5-0.1c0.2,0,0.3,0.1,0.3,0.2c0.1,0.2,0,0.3-0.3,0.4c-0.1,0-0.9,0.2-2.3,0.6c-0.3,0.1-0.8,0.2-1.4,0.4
		c-0.3,0.1-0.6,0.2-1.1,0.4c-0.5,0.2-0.9,0.3-1.1,0.4c-0.2,0.1-0.5,0.2-1,0.4c-0.4,0.2-0.8,0.3-1,0.4c-0.2,0.1-0.4,0-0.4-0.2
		c0-0.1,0.1-0.3,0.5-0.6c0.3-0.1,0.5-0.3,0.8-0.4c0.3-0.1,0.4-0.2,0.4-0.2c0.1-0.1,0.1-0.2,0-0.4c-0.1-0.2-0.2-0.5-0.3-0.9
		c-0.1-0.4-0.2-0.7-0.3-0.9c-0.1-0.4-0.3-1.1-0.6-1.9s-0.4-1.5-0.6-1.9c-0.1-0.4-0.4-0.6-0.9-0.4c-0.1,0-0.2,0.1-0.3,0.1
		c-0.1,0.1-0.2,0.1-0.3,0.1c-0.4,0.1-0.6,0-0.7-0.2c-0.1-0.2,0.1-0.4,0.5-0.5c0.2-0.1,0.5-0.2,1-0.3c0.4-0.1,0.8-0.2,1-0.3
		c0.2-0.1,0.5-0.2,0.9-0.3c0.4-0.1,0.7-0.2,0.9-0.3c0.1,0,1-0.3,2.6-0.7c0.8-0.2,1.5-0.2,2.2,0.1c0.7,0.3,1.2,0.9,1.4,1.6
		c0.2,0.8,0.1,1.5-0.4,2.1c-0.4,0.5-1.1,0.9-1.9,1.2c-0.1,0-0.3,0.1-0.4,0.1C96,59.6,96.1,59.9,96.3,60.3z M97,56.5
		c-0.1-0.5-0.4-0.9-0.8-1.2c-0.4-0.4-0.9-0.5-1.3-0.3c-0.2,0.1-0.3,0.1-0.3,0.2c0,0,0,0.1,0,0.3c0,0.2,0.1,0.4,0.3,0.7
		c0.1,0.3,0.2,0.5,0.3,0.7c0,0.1,0.1,0.4,0.2,0.6c0.1,0.3,0.2,0.5,0.2,0.6c0,0.1,0.1,0.2,0.1,0.3c0,0.1,0.1,0.2,0.1,0.3
		c0.2,0,0.3,0,0.5-0.1c0.4-0.1,0.7-0.4,0.8-0.8C97.2,57.4,97.2,57,97,56.5z"/>
</g>
<g class="st3">
	<path class="st4" d="M119.5,53.7c0,0.1,0,0.5-0.1,1.2c-0.1,0.4-0.2,0.6-0.4,0.6c-0.2,0-0.3-0.1-0.3-0.4c0-0.7-0.4-1.2-1.3-1.4
		c-0.5-0.1-0.7-0.2-0.8-0.2c-0.4-0.1-0.7-0.2-0.9-0.2c-0.1,0-0.2,0-0.2,0.2c-0.1,0.9-0.1,1.6,0,2.2c0,0.1,0.2,0.2,0.6,0.2
		c0.5,0,0.9,0.1,1.5,0.1c0.2,0,0.4,0.1,0.4,0.3c0,0,0,0.2,0,0.5c0,0.7-0.1,1.2-0.2,1.5c-0.1,0.3-0.2,0.4-0.4,0.4
		c-0.2,0-0.2-0.1-0.2-0.3c0-0.2,0-0.4,0-0.6c-0.2-0.4-0.3-0.7-0.5-0.8c-0.2-0.2-0.6-0.3-1.1-0.5c-0.1,1.3-0.3,2.3-0.4,3.2
		c0,0.1,0,0.3,0.2,0.4c0.1,0.1,0.3,0.1,0.4,0.1c0.6,0.1,1.1,0.1,1.3,0.2c0.3,0.1,0.5,0.2,0.4,0.5c0,0.2-0.2,0.3-0.7,0.2
		c-0.8-0.1-2-0.2-3.5-0.3c-0.2,0-1.5-0.1-3.8-0.1c-0.1,0-0.2,0-0.6,0c-0.3,0-0.5,0-0.5,0c-0.1,0-0.2-0.1-0.3-0.1
		c-0.1-0.1-0.1-0.1-0.1-0.2c0-0.2,0.1-0.3,0.2-0.3c0.1,0,0.2-0.1,0.5-0.1c0.3,0,0.7,0,1.2-0.1c0.3,0,0.5-0.2,0.5-0.4
		c0-0.9,0.1-2,0.1-3.3c0.1-1.1,0.2-1.9,0.2-2.3c0-0.4,0-0.7,0-0.8c-0.1-0.1-0.3-0.3-0.6-0.3c-0.3,0-0.6-0.1-0.9-0.1
		c-0.3-0.1-0.5-0.1-0.6-0.1c-0.2-0.1-0.2-0.2-0.2-0.3c0-0.1,0.1-0.2,0.2-0.2c0.1,0,0.1-0.1,0.2-0.1c0.6,0.1,1.3,0.1,1.9,0.2
		c1.3,0.1,2.3,0.2,2.9,0.3c0.2,0,0.4,0,0.6,0l4.6,0.2c0.4,0,0.6,0.2,0.7,0.4C119.6,53.1,119.6,53.3,119.5,53.7z"/>
</g>
<g class="st3">
	<path class="st4" d="M129.8,64.1c-0.1,0.2-0.2,0.3-0.5,0.2c-0.9-0.3-2-0.7-3.5-1.2c-0.5-0.2-1.2-0.4-2.2-0.7
		c-1.1-0.3-1.8-0.5-2.2-0.6c-0.1,0-0.1-0.1-0.2-0.1c-0.1-0.1-0.1-0.2-0.1-0.2c0-0.1,0.1-0.2,0.3-0.2c0,0,0.2,0,0.5,0.1
		c0.2,0,0.5,0.1,0.8,0.2c0.5,0.1,0.8,0,0.9-0.2c0.1-0.4,0.3-0.9,0.5-1.6c0.2-0.7,0.3-1.3,0.5-1.6c0.1-0.4,0.4-1.2,0.9-2.4
		c0.1-0.3,0.1-0.5,0-0.7c-0.1-0.2-0.3-0.3-0.6-0.4c-0.2-0.1-0.4-0.2-0.7-0.2c-0.2-0.1-0.3-0.2-0.4-0.2c-0.1-0.1,0-0.2,0-0.3
		c0.1-0.1,0.2-0.2,0.6-0.1c0.6,0.2,1.3,0.4,1.9,0.7c1.2,0.4,1.8,0.6,1.9,0.7c1.8,0.5,3,0.9,3.6,1.1c0.3,0.1,0.4,0.2,0.4,0.4
		c-0.1,0.1-0.2,0.2-0.4,0.2c0,0-0.2,0-0.6-0.1c-0.4-0.1-0.7-0.1-0.8-0.1c-0.2,0-0.3,0.1-0.4,0.3c0,0-0.1,0.4-0.2,1
		c-0.1,0.6-0.3,1.1-0.4,1.6c-0.1,0.4-0.3,0.9-0.6,1.5c-0.3,0.7-0.5,1.2-0.6,1.5c-0.1,0.3-0.1,0.4,0,0.6c0.1,0.1,0.2,0.2,0.4,0.3
		c0,0,0.2,0.1,0.4,0.2c0.2,0.1,0.3,0.2,0.4,0.2C129.7,63.7,129.9,63.9,129.8,64.1z"/>
</g>
<g class="st3">
	<path class="st4" d="M143.4,72.4c0,0.1-0.1,0.1-0.3,0c-0.1,0-0.2-0.1-0.3-0.1c-0.2-0.2-0.6-0.4-1-0.7c-0.4-0.3-0.8-0.6-1-0.7
		c0,0-0.2-0.1-0.4-0.3c-0.3-0.2-0.5-0.3-0.6-0.4c-0.2-0.1-0.3-0.4-0.1-0.7c0.1-0.4,0.3-0.7,0.4-1.1c0.2-0.5,0.3-1,0.2-1.4
		c0-0.5-0.2-1-0.6-1.4c-0.4,0.6-0.6,1-0.7,1.2c-0.1,0.2-0.3,0.4-0.5,0.6c-0.1,0.1-0.3,0.3-0.4,0.4c-0.1,0.1-0.1,0.3,0.1,0.4
		c0.2,0.1,0.4,0.3,0.6,0.5c0.2,0.2,0.3,0.3,0.4,0.4c0.1,0.1,0.1,0.3,0,0.4c-0.1,0.1-0.1,0.1-0.3,0.1c-0.1,0-0.2,0-0.3-0.1
		c-0.2-0.2-1.4-1-3.4-2.4c-0.3-0.2-0.6-0.4-0.9-0.6c-0.7-0.4-1.3-0.8-2-1.2c-0.1-0.1-0.1-0.1-0.2-0.2c0-0.1,0-0.2,0-0.3
		c0.1-0.2,0.3-0.2,0.6-0.1c0.4,0.2,0.7,0.3,1,0.4c0.2,0.1,0.4,0.1,0.5,0.1c0.1,0,0.3-0.1,0.4-0.3c0.2-0.3,0.4-0.7,0.7-1.1
		c0.2-0.3,0.3-0.6,0.5-0.9c0.1-0.2,0.2-0.3,0.3-0.5c0.3-0.4,0.6-0.8,0.9-1.3c0.4-0.5,0.6-0.7,0.6-0.8c0.2-0.3,0.2-0.4,0.3-0.5
		c0-0.2-0.1-0.3-0.3-0.5c0,0-0.1-0.1-0.4-0.2c-0.2-0.1-0.3-0.2-0.4-0.2c-0.2-0.2-0.3-0.2-0.4-0.3c-0.1-0.1,0-0.2,0.1-0.4
		c0.1-0.2,0.4-0.1,0.8,0.1c0.1,0.1,0.2,0.2,0.4,0.3c0.3,0.2,0.8,0.5,1.4,0.9c0.6,0.4,1.1,0.7,1.4,0.9c1.1,0.8,1.8,1.2,2,1.3
		c0.8,0.6,1.3,1.2,1.6,1.8c0.3,0.7,0.2,1.4-0.2,2.2c-0.2,0.2-0.5,0.4-0.9,0.5c-0.1,0-0.4,0.1-0.8,0.1c0.6,1.5,0.8,2.9,0.8,4.3
		c0,0.2,0.2,0.5,0.6,1.1C143.5,72,143.5,72.1,143.4,72.4z M142.2,65.2c0.4-0.6,0.4-1.4-0.1-2.3c-0.1-0.2-0.2-0.3-0.4-0.4
		s-0.3-0.1-0.4,0.1c-0.3,0.5-0.7,1.2-1.2,2.1c0.2,0.2,0.5,0.5,1,0.8C141.5,65.8,141.9,65.7,142.2,65.2z"/>
</g>
<g class="st3">
	<path class="st4" d="M152.2,78c-0.7,0.6-1.6,0.8-2.6,0.7c-1-0.1-1.8-0.6-2.4-1.3c-0.4-0.4-0.8-1-1.2-1.8c-0.1-0.2-0.1-0.4-0.3-0.6
		c-0.1-0.1-0.1-0.1-0.2-0.1c-0.1,0-0.1,0-0.2,0.1c-0.3,0.3-0.4,0.4-0.3,0.3c-0.1,0.1-0.3,0.1-0.5-0.1c-0.1-0.1,0-0.3,0.1-0.5
		c0.9-1.7,1.4-2.6,1.5-2.7c0.2-0.1,0.3-0.1,0.5,0c0.1,0.1,0.1,0.3,0,0.7c-0.1,0.3-0.2,0.7-0.2,1.1c-0.1,0.9,0.3,1.8,1.2,2.8
		c0.2,0.3,0.5,0.5,0.7,0.7c0.4,0.3,0.7,0.4,0.8,0.3c0.2-0.1,0.1-0.5-0.3-1.2c-0.2-0.5-0.5-0.8-0.6-1.1c-0.6-0.8-0.9-1.7-0.9-2.6
		c0-0.9,0.4-1.6,1.1-2.2c1.7-1.5,3.6-1,5.7,1.5c0.2,0.4,0.6,0.9,1.1,1.6c0.1,0.2,0.4,0.2,0.6,0.1c0.2-0.1,0.4,0,0.5,0.2
		c0,0,0.1,0.1,0.1,0.2c0,0.1,0,0.2,0,0.2c-0.1,0.1-0.2,0.1-0.4,0.2c-0.1,0-0.6,0.2-1.5,0.6c-0.6,0.2-1,0.4-1.1,0.5
		c-0.1,0.1-0.2,0.3-0.2,0.6c-0.1,0.4-0.2,0.7-0.3,0.9C152.7,77.4,152.5,77.8,152.2,78z M153.1,74.6l0.2-0.2c0.3-0.3,0.3-0.7,0-1.5
		c-0.2-0.6-0.4-1-0.6-1.2c-0.2-0.2-0.4-0.4-0.7-0.6c-0.4-0.3-0.6-0.3-0.7-0.2c-0.1,0.1-0.1,0.2,0,0.5c0.1,0.2,0.1,0.3,0.2,0.5
		c0.2,0.2,0.4,0.8,0.8,1.5c0.4,0.7,0.5,1.1,0.6,1.1C153,74.5,153.1,74.5,153.1,74.6z"/>
</g>
<g class="st3">
	<path class="st4" d="M162.3,90.2c-0.1,0.1-0.2,0.1-0.4,0c-0.1-0.1-0.2-0.1-0.3-0.2c-0.1-0.1,0-0.3,0.2-0.5c0.2-0.1,0.3-0.3,0.3-0.4
		c0-0.1,0.1-0.3,0.2-0.6c0.1-0.4,0.1-0.8,0.1-1.3c0-0.5-0.1-0.8-0.3-1.1c-0.1-0.2-0.3-0.3-0.5-0.1c-0.5,0.3-1.3,0.8-2.4,1.5
		c-0.4,0.2-0.9,0.4-1.7,0.8c-0.6,0.3-1,0.5-1.1,0.5c-0.2,0.2-0.2,0.5,0,1c0.1,0.2,0.2,0.5,0.4,1.1c0.1,0.3,0,0.5-0.2,0.7
		c-0.2,0.1-0.3,0-0.5-0.4c0,0-0.1-0.2-0.3-0.6c-0.2-0.4-0.3-0.6-0.3-0.6c0-0.1-0.2-0.4-0.5-1.1c-0.3-0.6-0.5-1-0.5-1.1
		c-0.3-0.6-0.8-1.4-1.5-2.5c-0.6-1-1-1.6-1-1.7c-0.1-0.2-0.1-0.4,0.1-0.5c0.2-0.1,0.4,0,0.6,0.3c0.2,0.3,0.4,0.6,0.8,1.1
		c0.2,0.3,0.4,0.4,0.6,0.3c0.2-0.1,0.6-0.4,1.2-0.7c0.6-0.4,1-0.6,1.2-0.8c0.5-0.2,0.9-0.5,1.5-0.7c0.6-0.2,1-0.4,1.2-0.5
		c0.4-0.2,0.6-0.4,0.5-0.7c-0.2-0.5-0.6-0.9-1.2-1.4c-0.3-0.3-0.7-0.4-1-0.5c-0.2,0-0.5,0-0.8,0.1c-0.2,0.1-0.4,0-0.5-0.2
		c-0.1-0.3,0-0.5,0.5-0.8l1-0.5c0.5-0.2,0.8-0.3,1-0.2c0.2,0.1,0.5,0.5,0.8,1.1c0-0.1,0.3,0.6,1,1.9c0.6,1.1,1.1,2.2,1.7,3.2
		c0.3,0.6,0.8,1.5,1.5,2.7c0.6,1.1,0.9,1.6,0.9,1.6c0.1,0.3,0.1,0.5-0.1,0.7c0,0-0.5,0.3-1.4,0.9L162.3,90.2z"/>
</g>
<g class="st3">
	<path class="st4" d="M93.7,154.1c0,0.2,0,0.5-0.1,0.7c-0.1,0.2-0.1,0.5-0.2,0.7c0,0.1-0.2,0.2-0.5,0.2c-0.2,0-0.5,0-1,0s-0.8,0-1,0
		c-1,0-1.8,0-2.4,0l-0.7,0c0,0-0.1,0-0.1-0.1c0,0-0.1-0.1,0-0.1c0-0.1,0-0.1,0.1-0.2c0,0,0.1,0,0.2,0c0.1,0,0.2,0,0.4,0
		c0.3,0,0.4-0.2,0.4-0.4c0-0.1,0-0.3,0-0.8c0-0.3,0-0.6,0-0.9c0,0,0-0.2,0-0.6s0-0.6,0-0.7c0-0.1-0.1-0.3-0.2-0.3
		c-0.1,0-0.2-0.1-0.6-0.1c-0.3,0-0.4-0.1-0.4-0.2c0-0.1,0.1-0.2,0.2-0.2c0,0,0.2,0,0.7,0c0.5,0,1.1,0,1.7,0c0.8,0,1.4,0,1.8,0
		c0.4,0,0.8,0,1.1,0c0.1,0,0.2,0.1,0.3,0.3c0,0.1,0,0.2,0,0.4c0,0.2,0,0.4-0.1,0.7c0,0.1-0.1,0.2-0.2,0.2c0,0-0.1,0-0.1,0
		s-0.1-0.1-0.1-0.1c0-0.1,0-0.1,0-0.2c-0.1-0.3-0.3-0.4-0.6-0.6c-0.2-0.1-0.5-0.1-0.8-0.1c0,0-0.1,0-0.1,0s0,0.1,0,0.1
		c0,0.1,0,0.2,0,0.4c0,0.3,0,0.5,0,0.6c0,0.1,0.1,0.2,0.2,0.2c0,0,0.1,0,0.2,0s0.2,0,0.2,0c0.2,0,0.4,0,0.5,0.1
		c0.1,0,0.2,0.2,0.2,0.4c0,0.1,0,0.4-0.1,0.7c0,0.1-0.1,0.2-0.2,0.2c-0.1,0-0.1,0-0.1-0.1c0,0,0-0.1,0-0.1c0-0.1,0-0.1,0-0.1
		c0-0.1-0.1-0.3-0.2-0.5c-0.2-0.2-0.3-0.3-0.6-0.3c0,0-0.1,0-0.1,0.1c0,0.2,0,0.6,0,1c0,0.5,0,0.7,0,0.7c0,0.1,0,0.1,0.1,0.1
		c0.3,0,0.7-0.2,1.1-0.5c0.3-0.2,0.5-0.4,0.7-0.6c0,0,0.1-0.1,0.1-0.2s0.1-0.1,0.1-0.1c0.1,0,0.1,0,0.1,0.1
		C93.6,154,93.7,154.1,93.7,154.1z"/>
	<path class="st4" d="M99.6,154.1c0,0.5-0.2,0.9-0.6,1.2c-0.4,0.3-0.8,0.5-1.3,0.5c-0.3,0-0.7-0.1-1.1-0.2c-0.1,0-0.2-0.1-0.3-0.1
		c-0.1,0-0.1,0-0.1,0c0,0,0,0.1,0,0.1c0,0.2,0,0.3,0,0.2c0,0.1-0.1,0.1-0.2,0.1c-0.1,0-0.1-0.1-0.2-0.2c-0.3-1-0.5-1.5-0.5-1.5
		c0-0.1,0.1-0.2,0.2-0.2c0.1,0,0.1,0.1,0.3,0.2c0.1,0.1,0.2,0.3,0.3,0.5c0.3,0.3,0.8,0.5,1.5,0.5c0.2,0,0.4,0,0.5,0
		c0.3,0,0.4-0.1,0.4-0.2c0-0.1-0.2-0.2-0.6-0.3c-0.3-0.1-0.5-0.1-0.7-0.1c-0.5-0.1-1-0.2-1.3-0.6c-0.3-0.3-0.5-0.7-0.5-1.2
		c0-1.2,0.9-1.7,2.6-1.7c0.2,0,0.6,0.1,1,0.1c0.1,0,0.2-0.1,0.3-0.2c0-0.1,0.1-0.1,0.3-0.1c0,0,0.1,0,0.1,0s0.1,0.1,0.1,0.1
		c0,0,0,0.1-0.1,0.2c0,0-0.1,0.3-0.3,0.8c-0.1,0.3-0.2,0.5-0.2,0.6c0,0.1,0,0.2,0.1,0.3c0.1,0.2,0.2,0.3,0.3,0.4
		C99.5,153.7,99.6,153.9,99.6,154.1z M98.6,152.5l0-0.1c0-0.2-0.2-0.4-0.6-0.5c-0.3-0.1-0.5-0.2-0.7-0.2c-0.1,0-0.3,0-0.5,0
		c-0.2,0-0.3,0.1-0.3,0.2c0,0.1,0.1,0.1,0.2,0.2c0.1,0,0.2,0.1,0.3,0.1c0.2,0,0.4,0.1,0.9,0.2C98.3,152.5,98.5,152.5,98.6,152.5
		C98.5,152.5,98.5,152.5,98.6,152.5z"/>
	<path class="st4" d="M107.6,152.7c0,0.1,0,0.1-0.1,0.2c-0.1,0.1-0.1,0.1-0.2,0.1c-0.1,0-0.1-0.1-0.2-0.2c0-0.1-0.1-0.2-0.1-0.2
		c0,0-0.1-0.1-0.2-0.2c-0.2-0.1-0.4-0.3-0.6-0.4s-0.4-0.1-0.6-0.1c-0.1,0-0.2,0.1-0.2,0.2c0,0.3,0.1,0.8,0.1,1.5c0,0.2,0,0.5-0.1,1
		c0,0.4,0,0.6,0,0.6c0,0.1,0.2,0.2,0.5,0.2c0.1,0,0.3,0,0.6,0.1c0.2,0,0.3,0.1,0.3,0.3c0,0.1-0.1,0.1-0.3,0.1c0,0-0.1,0-0.3,0
		c-0.2,0-0.3,0-0.4,0c0,0-0.3,0-0.7,0c-0.4,0-0.6,0-0.7,0c-0.3,0-0.8,0-1.5,0.1c-0.6,0-1,0.1-1,0.1c-0.1,0-0.2-0.1-0.2-0.2
		c0-0.1,0.1-0.2,0.3-0.2c0.2,0,0.4,0,0.7-0.1c0.2,0,0.3-0.1,0.3-0.2c0-0.1,0-0.4,0-0.7c0-0.4,0-0.6,0-0.8c0-0.3,0-0.6,0-0.8
		c0-0.3,0-0.6,0-0.7c0-0.2-0.1-0.4-0.2-0.4c-0.3,0-0.6,0.1-0.9,0.2c-0.2,0.1-0.4,0.2-0.5,0.3c-0.1,0.1-0.1,0.2-0.2,0.4
		c0,0.1-0.1,0.2-0.2,0.2c-0.2,0-0.2-0.1-0.2-0.4l0-0.6c0-0.3,0.1-0.4,0.2-0.5s0.3-0.1,0.7-0.1c0,0,0.3,0,1.1,0c0.7,0,1.3,0,1.9,0
		c0.4,0,0.9,0,1.6,0c0.7,0,1,0,1,0c0.2,0,0.3,0.1,0.3,0.2c0,0,0,0.3,0.1,0.9L107.6,152.7z"/>
	<path class="st4" d="M108.7,155.2c0-0.2,0.1-0.3,0.2-0.4c0.1-0.1,0.3-0.2,0.4-0.2s0.3,0.1,0.4,0.2c0.1,0.1,0.2,0.3,0.2,0.4
		s-0.1,0.3-0.2,0.4c-0.1,0.1-0.3,0.2-0.4,0.2s-0.3-0.1-0.4-0.2C108.7,155.5,108.7,155.4,108.7,155.2z"/>
	<path class="st4" d="M118.2,155.6c0,0.1-0.1,0.2-0.2,0.2c-0.4,0-1.1,0-1.8,0c-0.3,0-0.6,0-1.1,0c-0.5,0-0.9,0-1.1,0
		c0,0-0.1,0-0.1,0c0,0-0.1-0.1-0.1-0.1c0-0.1,0-0.1,0.1-0.1c0,0,0.1,0,0.2,0c0.1,0,0.3,0,0.5,0c0.3,0,0.4-0.1,0.4-0.3
		c0-0.2,0-0.5,0-0.8c0-0.3,0-0.6,0-0.8c0-0.1,0-0.5,0-1.2c0-0.2,0-0.2,0-0.3c0-0.1-0.1-0.1-0.2-0.1c0,0-0.1,0-0.2,0s-0.2,0-0.2,0
		c-0.2,0-0.3,0-0.3-0.1c0,0,0-0.1,0.1-0.1c0.1,0,0.1-0.1,0.1-0.1c0,0,0.3-0.1,0.9-0.2c0.6-0.1,1-0.2,1.1-0.2c0.2,0,0.4-0.1,0.8-0.1
		c0.3,0,0.4-0.1,0.5-0.1c0.1,0,0.2,0,0.2,0.1c0,0.1-0.1,0.2-0.3,0.2c-0.1,0-0.2,0-0.2,0.1c-0.1,0-0.1,0.1-0.1,0.2
		c0,0.3,0.1,0.9,0.1,1.7c0,0.3,0,0.8-0.1,1.5c0,0.1,0,0.2,0.1,0.3c0,0.1,0.1,0.1,0.3,0.1c0,0,0.1,0,0.2,0s0.2,0,0.2,0
		C118.1,155.4,118.2,155.4,118.2,155.6z"/>
	<path class="st4" d="M119.7,151.6c0.4-0.3,0.8-0.5,1.4-0.4c0.5,0,0.9,0.2,1.3,0.5c0.4,0.4,0.6,0.8,0.6,1.3c0,0.9-0.3,1.6-0.9,2.1
		c-0.6,0.5-1.3,0.8-2.1,0.8c-0.2,0-0.2,0-0.2-0.1c0-0.1,0.1-0.1,0.1-0.1c0,0,0.1,0,0.3-0.1c0.3-0.1,0.5-0.2,0.7-0.4
		c0.2-0.2,0.4-0.5,0.4-0.7c0,0,0-0.1,0-0.1c0,0-0.1,0-0.1,0c-0.1,0-0.1,0-0.1,0c-0.3,0.1-0.4,0.1-0.5,0.1c-0.4,0-0.8-0.2-1.1-0.5
		c-0.3-0.3-0.4-0.7-0.4-1.1C119.1,152.4,119.3,151.9,119.7,151.6z M121.2,153.8c0-0.1,0.1-0.1,0.1-0.2c0-0.3,0-0.6-0.1-1.1
		c-0.1-0.6-0.3-0.9-0.5-0.9c-0.1,0-0.2,0.1-0.2,0.3c0,0.3,0,0.7,0.1,1.1c0.1,0.6,0.3,0.9,0.4,0.9
		C121.1,153.9,121.2,153.9,121.2,153.8z"/>
	<path class="st4" d="M124.6,151.6c0.4-0.3,0.8-0.5,1.4-0.4c0.5,0,0.9,0.2,1.3,0.5c0.4,0.4,0.6,0.8,0.6,1.3c0,0.9-0.3,1.6-0.9,2.1
		c-0.6,0.5-1.3,0.8-2.1,0.8c-0.2,0-0.2,0-0.2-0.1c0-0.1,0.1-0.1,0.1-0.1c0,0,0.1,0,0.3-0.1c0.3-0.1,0.5-0.2,0.7-0.4
		c0.2-0.2,0.4-0.5,0.4-0.7c0,0,0-0.1,0-0.1c0,0-0.1,0-0.1,0c-0.1,0-0.1,0-0.1,0c-0.3,0.1-0.4,0.1-0.5,0.1c-0.4,0-0.8-0.2-1.1-0.5
		c-0.3-0.3-0.4-0.7-0.4-1.1C124,152.4,124.2,151.9,124.6,151.6z M126.2,153.8c0-0.1,0.1-0.1,0.1-0.2c0-0.3,0-0.6-0.1-1.1
		c-0.1-0.6-0.3-0.9-0.5-0.9c-0.1,0-0.2,0.1-0.2,0.3c0,0.3,0,0.7,0.1,1.1c0.1,0.6,0.3,0.9,0.4,0.9
		C126.1,153.9,126.1,153.9,126.2,153.8z"/>
	<path class="st4" d="M129.3,153.1c-0.1-0.2-0.2-0.5-0.2-0.7c0-0.4,0.2-0.7,0.5-0.9c0.3-0.2,0.7-0.4,1.2-0.4c0.4,0,0.7,0.1,1,0.2
		c0.4,0.2,0.5,0.4,0.5,0.8c0,0.3-0.2,0.6-0.6,0.8c0.3,0.3,0.5,0.4,0.5,0.5c0.2,0.3,0.3,0.6,0.3,0.9c0,0.5-0.2,0.8-0.6,1.1
		c-0.4,0.2-0.8,0.4-1.3,0.3c-0.5,0-0.9-0.1-1.1-0.3c-0.4-0.2-0.5-0.6-0.5-1c0-0.3,0.2-0.7,0.7-0.9
		C129.5,153.5,129.4,153.4,129.3,153.1z M130.5,154.4c-0.2-0.2-0.4-0.4-0.6-0.5c-0.1,0.1-0.1,0.1-0.2,0.2c-0.1,0.1-0.1,0.2-0.1,0.3
		c0,0.3,0.1,0.6,0.3,0.8c0.2,0.2,0.4,0.2,0.6,0.2c0.1,0,0.2,0,0.2-0.1c0-0.1,0.1-0.2,0.1-0.3C130.9,154.9,130.8,154.7,130.5,154.4z
		 M130.7,151.9c0,0.2,0.1,0.3,0.3,0.5c0.1,0.1,0.3,0.2,0.5,0.4c0.1-0.1,0.1-0.2,0.1-0.2c0-0.1,0-0.2,0-0.3c0-0.2-0.1-0.3-0.2-0.5
		c-0.1-0.1-0.3-0.2-0.5-0.2C130.8,151.6,130.7,151.7,130.7,151.9z"/>
</g>
</svg>
