<svg id="Layer_1" data-name="Layer 1" xmlns="http://www.w3.org/2000/svg" viewBox="0 0 216 216"><defs><style>.cls-1{fill:#1473b2;}.cls-1,.cls-2,.cls-3{stroke:#231f20;stroke-linecap:round;stroke-linejoin:round;}.cls-2{fill:#58595b;}.cls-3{fill:#414042;}.cls-4{font-size:11.44px;}.cls-4,.cls-5{fill:#231f20;font-family:GoudyStout, Goudy Stout;}.cls-5{font-size:6px;}</style></defs><title>shipFirstLogo</title><polygon class="cls-1" points="96.31 117.65 65.97 108.89 75.06 96.29 106.61 102.42 96.31 117.65"/><polygon class="cls-1" points="98.73 122.21 110.86 104.64 110.83 137.74 77.67 128.64 77.67 115.53 98.73 122.21"/><polygon class="cls-2" points="139.5 84.42 113.25 99.89 105.28 98.42 105.05 80.64 139.5 84.42"/><polygon class="cls-2" points="102.69 97.65 78.53 92.95 102.56 81.02 102.69 97.65"/><polygon class="cls-1" points="140.84 120.35 116.72 137.7 116.89 101.92 140.57 87.19 140.84 120.35"/><polygon class="cls-3" points="147.83 92.73 142.73 92.12 142.56 85.86 147.83 92.73"/><text class="cls-4" transform="matrix(0.46, -0.89, 0.89, 0.46, 63.45, 92.32)">S</text><text class="cls-4" transform="matrix(0.69, -0.73, 0.73, 0.69, 67.9, 82.65)">H</text><text class="cls-4" transform="translate(79.88 70.45) rotate(-30.64)">I</text><text class="cls-4" transform="translate(89.43 64.66) rotate(-17.14)">P</text><text class="cls-4" transform="translate(101.31 61.29) rotate(-6.88)"> </text><text class="cls-4" transform="translate(106.63 60.24) rotate(3.76)">F</text><text class="cls-4" transform="translate(119.91 61.19) rotate(17.81)">I</text><text class="cls-4" transform="translate(130.64 64.29) rotate(33.01)">R</text><text class="cls-4" transform="translate(143.34 72.84) rotate(47.77)">S</text><text class="cls-4" transform="matrix(0.47, 0.88, -0.88, 0.47, 150.7, 80.49)">T</text><text class="cls-5" transform="translate(87.33 155.68)">EST. 1998</text></svg>