<?xml version="1.0" encoding="utf-8"?>
<!-- Generator: Adobe Illustrator 24.1.1, SVG Export Plug-In . SVG Version: 6.00 Build 0)  -->
<svg version="1.1" id="Layer_1" xmlns="http://www.w3.org/2000/svg" xmlns:xlink="http://www.w3.org/1999/xlink" x="0px" y="0px"
	 viewBox="0 0 216 216" style="enable-background:new 0 0 216 216;" xml:space="preserve">
<style type="text/css">
	.st0{fill:#48A1D3;stroke:#48A1D3;stroke-miterlimit:10;}
	.st1{fill:#58595B;stroke:#58595B;stroke-miterlimit:10;}
	.st2{fill:#414042;}
	.st3{enable-background:new    ;}
	.st4{fill:#231F20;}
</style>
<polygon class="st0" points="85.5,127.7 33.1,112.4 48.8,90.6 103.3,101.2 "/>
<polygon class="st0" points="89.6,135.4 110.7,105 110.5,162.2 53.3,146.5 53.3,123.8 "/>
<polygon class="st1" points="160.2,70.1 114.9,96.9 101,94.3 100.7,63.5 "/>
<polygon class="st1" points="96.5,93.1 54.7,84.8 96.4,64.2 "/>
<polygon class="st0" points="162.4,132.1 120.7,162.2 121.1,100.3 162.1,74.9 "/>
<polygon class="st2" points="174.5,84.4 165.7,83.4 165.5,72.7 "/>
<g class="st3">
	<path class="st4" d="M31.7,66.3c1.4,0.7,2.2,2.1,2.6,3.8c0.3,1.7,0.2,3.3-0.7,4.7c-0.5,0.9-1.2,1.9-2.2,2.9
		c-0.2,0.2-0.5,0.5-0.9,0.9c0,0.2-0.2,0.3,0,0.3c0,0.2,0.2,0.2,0.2,0.2c0.5,0.3,0.9,0.3,0.7,0.3c0.2,0.2,0.3,0.5,0,0.9
		c-0.2,0.2-0.3,0.2-0.9,0.2c-3.3-0.5-5-0.7-5.2-0.9c-0.3-0.2-0.3-0.3-0.2-0.7c0-0.2,0.5-0.3,1-0.5c0.5,0,1.2-0.2,1.9-0.3
		c1.6-0.3,2.8-1.6,3.8-3.6c0.3-0.5,0.5-1,0.7-1.6c0.3-0.9,0.3-1.4,0-1.4c-0.3-0.2-0.9,0.2-1.9,1.2c-0.7,0.7-1,1.2-1.4,1.7
		c-1,1.6-2.2,2.6-3.6,2.9c-1.4,0.5-2.9,0.3-4.1-0.3c-3.3-1.7-3.8-5.2-1-10.2c0.5-0.7,1.2-1.6,1.9-2.8c0.2-0.3,0.2-0.7-0.3-1
		c-0.2-0.2-0.2-0.5,0-1c0-0.2,0.2-0.2,0.3-0.3c0.2-0.2,0.3-0.2,0.3,0c0.2,0,0.3,0.2,0.7,0.5c0.2,0.2,0.7,0.9,1.9,2.1
		c0.7,0.9,1.2,1.4,1.6,1.6c0.2,0.2,0.5,0.2,1,0c0.7,0,1.2-0.2,1.6-0.2C30.5,65.8,31.2,65.9,31.7,66.3z M25.6,66.8l-0.3-0.2
		c-0.5-0.3-1.4,0-2.4,0.9c-0.9,0.7-1.4,1.2-1.6,1.7c-0.2,0.3-0.3,0.9-0.5,1.4c-0.2,0.7-0.2,1.2,0,1.4c0.2,0.2,0.5,0,0.9-0.3
		c0.2-0.2,0.5-0.5,0.5-0.7c0.3-0.3,1-1.2,2.1-2.2c1-1,1.4-1.6,1.4-1.6C25.5,67,25.5,67,25.6,66.8z"/>
</g>
<g class="st3">
	<path class="st4" d="M46.6,55.9c0.2,0.2,0.2,0.3-0.2,0.7c-0.5,0.5-1.2,1.4-2.2,2.2c-1,1-1.7,1.7-2.2,2.2c-0.3,0.3-1,1-1.9,2.1
		c-0.9,1-1.6,1.7-1.9,2.1c-0.2,0.2-0.3,0.3-0.5,0.2c-0.3-0.2-0.3-0.5,0-1s0.7-1,1-1.6c0.3-0.7,0.3-1.2,0-1.6c-0.5-0.3-1.2-1-2.1-1.7
		c-0.9-0.9-1.6-1.4-2.1-1.7c-0.3-0.3-0.9-0.9-1.7-1.7c-0.7-0.7-1.2-1.4-1.7-1.7c-0.2-0.2-0.3-0.3-0.5-0.3s-0.3,0.2-0.7,0.3
		c-0.3,0.2-0.7,0.5-1.4,1c-0.3,0.2-0.5,0.3-0.5,0.3c-0.2,0-0.3,0-0.5-0.2c-0.3-0.2-0.2-0.5,0.2-0.9c0.3-0.3,0.9-0.9,1.4-1.4
		s1-1,1.4-1.4c0.5-0.5,1.4-1.6,2.4-2.8s1.9-2.1,2.4-2.8c0.2-0.2,0.3-0.2,0.5-0.2s0.3,0.2,0.5,0.2c0.2,0.2,0.2,0.5,0,0.9
		c-0.2,0.5-0.2,0.9-0.2,1c0.2,0.2,0.5,0.7,1.2,1.2c0.7,0.7,1,1,1.2,1c0.3,0.3,0.7,0.5,0.7,0.5c0.3,0.2,0.5,0,0.7-0.2l1.2-1.4
		c0.3-0.3,0.5-0.7,0.2-0.9c-0.2-0.2-0.5-0.3-0.9-0.7c-0.3-0.3-0.7-0.5-0.9-0.7s-0.3-0.3-0.5-0.5c-0.2-0.3-0.3-0.5-0.5-0.5
		c-0.3-0.3-0.7-0.3-0.9-0.3c-0.2,0.2-0.5,0.3-0.7,0.3c-0.3,0.2-0.5,0.2-0.7,0c-0.2,0.1-0.4,0-0.2-0.2c0-0.2,0.2-0.3,0.5-0.7
		c0.2-0.2,0.7-0.7,1.7-1.7c1-0.9,1.6-1.6,1.6-1.7c0.5-0.5,1.2-1.4,2.2-2.4c0.9-1,1.7-1.9,2.2-2.4c0.3-0.5,0.7-0.5,1-0.3
		c0.3,0.3,0.3,0.7,0,1.2s-0.7,0.9-1,1.4s-0.3,1,0,1.4c0.3,0.3,0.9,0.9,1.7,1.6c0.9,0.7,1.4,1.2,1.7,1.6c0.3,0.3,1,1,1.9,1.9
		s1.4,1.4,1.9,1.9c0.3,0.3,0.5,0.3,1,0.2c0.3-0.2,0.9-0.5,1.7-1.2c0.5-0.5,1-0.5,1.2-0.3s0.2,0.3,0,0.5c0,0-0.2,0.2-0.5,0.5
		c-0.5,0.5-1.2,1.2-2.1,2.1c-0.9,0.9-1.6,1.6-2.1,2.1c-0.3,0.3-0.9,1-1.6,1.7c-0.7,0.9-1.2,1.4-1.6,1.7c-0.5,1-0.9,1.4-1,1
		c-0.2-0.2-0.2-0.5,0-0.9c0.2-0.3,0.2-0.7,0-0.9s-0.5-0.5-0.9-0.7c-0.3-0.3-0.7-0.5-0.9-0.7c-0.3-0.3-0.9-0.9-1.4-1.4
		c-0.3-0.3-0.7-0.3-1-0.2l-1,1.2c-0.3,0.3-0.5,0.7-0.2,1c0.2,0.2,0.5,0.5,1,1c0.3,0.3,0.9,0.9,1.4,1.4c0.3,0.3,0.9,0.5,1.2,0.5
		c0.2,0,0.5-0.2,0.9-0.3C46.2,55.7,46.4,55.7,46.6,55.9z"/>
</g>
<g class="st3">
	<path class="st4" d="M72.3,36.5c0.2,0.3,0,0.7-0.3,0.9c-1.4,0.7-3.3,1.7-5.5,3.1c-0.9,0.5-1.9,1.2-3.3,2.1c-1.7,1-2.8,1.7-3.3,2.1
		c-0.2,0-0.2,0.2-0.3,0.2s-0.3,0-0.3-0.2c-0.2-0.2-0.2-0.3,0-0.5c0,0,0.2-0.2,0.5-0.5c0.3-0.2,0.7-0.5,1.2-0.9
		c0.7-0.5,0.9-1,0.7-1.4c-0.3-0.5-0.9-1.4-1.6-2.4c-0.7-1-1.2-1.9-1.6-2.4c-0.3-0.5-1-1.9-2.1-4c-0.3-0.5-0.5-0.7-0.9-0.9
		c-0.3,0-0.7,0-1.2,0.3c-0.3,0.2-0.7,0.3-1,0.7c-0.3,0.2-0.5,0.3-0.7,0.2c-0.2,0-0.3-0.2-0.3-0.3c-0.2-0.2,0-0.5,0.5-0.9
		c1-0.5,2.1-1,2.9-1.7c1.9-1,2.9-1.6,2.9-1.7c2.8-1.7,4.7-2.9,5.5-3.5c0.5-0.3,0.7-0.3,0.9,0c0.2,0.2,0,0.5-0.2,0.7
		c0,0-0.3,0.3-0.9,0.7c-0.5,0.3-0.9,0.7-1,1c-0.2,0.3-0.2,0.5,0,0.9c0,0,0.3,0.5,1,1.4c0.7,0.9,1.2,1.7,1.6,2.4
		c0.3,0.5,0.9,1.4,1.4,2.4c0.7,1.2,1,2.1,1.4,2.4c0.2,0.3,0.5,0.7,0.7,0.7s0.5,0,0.9-0.2c0,0,0.3-0.2,0.7-0.3
		c0.3-0.2,0.7-0.2,0.7-0.3C71.6,36.2,72,36.2,72.3,36.5z"/>
</g>
<g class="st3">
	<path class="st4" d="M85.5,28.4c0,0.2,0.2,0.5,0.3,1c0.2,0.3,0.2,0.7,0.3,1c0,0.2,0.3,0.3,1,0.2c0.5-0.2,1-0.2,1.6-0.3
		c0.5,0,0.9-0.2,0.9-0.2c0.3,0,0.5,0.2,0.5,0.3c0.2,0.3,0,0.5-0.5,0.7c-0.2,0-1.6,0.3-4,1c-0.5,0.2-1.4,0.3-2.4,0.7
		c-0.5,0.2-1,0.3-1.9,0.7c-0.9,0.3-1.6,0.5-1.9,0.7s-0.9,0.3-1.7,0.7c-0.7,0.3-1.4,0.5-1.7,0.7c-0.3,0.2-0.7,0-0.7-0.3
		c0-0.2,0.2-0.5,0.9-1c0.5-0.2,0.9-0.5,1.4-0.7s0.7-0.3,0.7-0.3c0.2-0.2,0.2-0.3,0-0.7c-0.2-0.3-0.3-0.9-0.5-1.6s-0.3-1.2-0.5-1.6
		c-0.2-0.7-0.5-1.9-1-3.3s-0.7-2.6-1-3.3c-0.2-0.7-0.7-1-1.6-0.7c-0.2,0-0.3,0.2-0.5,0.2c-0.2,0.2-0.3,0.2-0.5,0.2
		c-0.7,0.2-1,0-1.2-0.3s0.2-0.7,0.9-0.9c0.3-0.2,0.9-0.3,1.7-0.5c0.7-0.2,1.4-0.3,1.7-0.5c0.3-0.2,0.9-0.3,1.6-0.5s1.2-0.3,1.6-0.5
		c0.2,0,1.7-0.5,4.5-1.2c1.4-0.3,2.6-0.3,3.8,0.2c1.2,0.5,2.1,1.6,2.4,2.8c0.3,1.4,0.2,2.6-0.7,3.6c-0.7,0.9-1.9,1.6-3.3,2.1
		c-0.2,0-0.5,0.2-0.7,0.2C84.9,27.2,85.1,27.7,85.5,28.4z M86.7,21.8c-0.2-0.9-0.7-1.6-1.4-2.1c-0.7-0.7-1.6-0.9-2.2-0.5
		c-0.3,0.2-0.5,0.2-0.5,0.3c0,0,0,0.2,0,0.5s0.2,0.7,0.5,1.2c0.2,0.5,0.3,0.9,0.5,1.2c0,0.2,0.2,0.7,0.3,1c0.2,0.5,0.3,0.9,0.3,1
		c0,0.2,0.2,0.3,0.2,0.5s0.2,0.3,0.2,0.5c0.3,0,0.5,0,0.9-0.2c0.7-0.2,1.2-0.7,1.4-1.4C87,23.4,87,22.7,86.7,21.8z"/>
</g>
<g class="st3">
	<path class="st4" d="M125.6,17c0,0.2,0,0.9-0.2,2.1c-0.2,0.7-0.3,1-0.7,1c-0.3,0-0.5-0.2-0.5-0.7c0-1.2-0.7-2.1-2.2-2.4
		c-0.9-0.2-1.2-0.3-1.4-0.3c-0.7-0.2-1.2-0.3-1.6-0.3c-0.2,0-0.3,0-0.3,0.3c-0.2,1.6-0.2,2.8,0,3.8c0,0.2,0.3,0.3,1,0.3
		c0.9,0,1.6,0.2,2.6,0.2c0.3,0,0.7,0.2,0.7,0.5c0,0,0,0.3,0,0.9c0,1.2-0.2,2.1-0.3,2.6c-0.2,0.5-0.3,0.7-0.7,0.7
		c-0.3,0-0.3-0.2-0.3-0.5s0-0.7,0-1c-0.3-0.7-0.5-1.2-0.9-1.4c-0.3-0.3-1-0.5-1.9-0.9c-0.2,2.2-0.5,4-0.7,5.5c0,0.2,0,0.5,0.3,0.7
		c0.2,0.2,0.5,0.2,0.7,0.2c1,0.2,1.9,0.2,2.2,0.3c0.5,0.2,0.9,0.3,0.7,0.9c0,0.3-0.3,0.5-1.2,0.3c-1.4-0.2-3.5-0.3-6.1-0.5
		c-0.3,0-2.6-0.2-6.6-0.2c-0.2,0-0.3,0-1,0c-0.5,0-0.9,0-0.9,0c-0.2,0-0.3-0.2-0.5-0.2c-0.2-0.2-0.2-0.2-0.2-0.3
		c0-0.3,0.2-0.5,0.3-0.5c0.2,0,0.3-0.2,0.9-0.2s1.2,0,2.1-0.2c0.5,0,0.9-0.3,0.9-0.7c0-1.6,0.2-3.5,0.2-5.7c0.2-1.9,0.3-3.3,0.3-4
		s0-1.2,0-1.4c-0.2-0.2-0.5-0.5-1-0.5s-1-0.2-1.6-0.2c-0.5-0.2-0.9-0.2-1-0.2c-0.3-0.2-0.3-0.3-0.3-0.5s0.2-0.3,0.3-0.3
		c0.2,0,0.2-0.2,0.3-0.2c1,0.2,2.2,0.2,3.3,0.3c2.2,0.2,4,0.3,5,0.5c0.3,0,0.7,0,1,0l8,0.3c0.7,0,1,0.3,1.2,0.7
		C125.7,16,125.7,16.3,125.6,17z"/>
</g>
<g class="st3">
	<path class="st4" d="M143.4,35c-0.2,0.3-0.3,0.5-0.9,0.3c-1.6-0.5-3.5-1.2-6.1-2.1c-0.9-0.3-2.1-0.7-3.8-1.2
		c-1.9-0.5-3.1-0.9-3.8-1c-0.2,0-0.2-0.2-0.3-0.2c-0.2-0.2-0.2-0.3-0.2-0.3c0-0.2,0.2-0.3,0.5-0.3c0,0,0.3,0,0.9,0.2
		c0.3,0,0.9,0.2,1.4,0.3c0.9,0.2,1.4,0,1.6-0.3c0.2-0.7,0.5-1.6,0.9-2.8c0.3-1.2,0.5-2.2,0.9-2.8c0.2-0.7,0.7-2.1,1.6-4.1
		c0.2-0.5,0.2-0.9,0-1.2c-0.2-0.3-0.5-0.5-1-0.7c-0.3-0.2-0.7-0.3-1.2-0.3c-0.3-0.2-0.5-0.3-0.7-0.3c-0.2-0.2,0-0.3,0-0.5
		c0.2-0.2,0.3-0.3,1-0.2c1,0.3,2.2,0.7,3.3,1.2c2.1,0.7,3.1,1,3.3,1.2c3.1,0.9,5.2,1.6,6.2,1.9c0.5,0.2,0.7,0.3,0.7,0.7
		c-0.2,0.2-0.3,0.3-0.7,0.3c0,0-0.3,0-1-0.2s-1.2-0.2-1.4-0.2c-0.3,0-0.5,0.2-0.7,0.5c0,0-0.2,0.7-0.3,1.7c-0.2,1-0.5,1.9-0.7,2.8
		c-0.2,0.7-0.5,1.6-1,2.6c-0.5,1.2-0.9,2.1-1,2.6c-0.2,0.5-0.2,0.7,0,1c0.2,0.2,0.3,0.3,0.7,0.5c0,0,0.3,0.2,0.7,0.3
		c0.3,0.2,0.5,0.3,0.7,0.3C143.2,34.3,143.6,34.6,143.4,35z"/>
</g>
<g class="st3">
	<path class="st4" d="M166.9,49.3c0,0.2-0.2,0.2-0.5,0c-0.2,0-0.3-0.2-0.5-0.2c-0.3-0.3-1-0.7-1.7-1.2s-1.4-1-1.7-1.2
		c0,0-0.3-0.2-0.7-0.5c-0.5-0.3-0.9-0.5-1-0.7c-0.3-0.2-0.5-0.7-0.2-1.2c0.2-0.7,0.5-1.2,0.7-1.9c0.3-0.9,0.5-1.7,0.3-2.4
		c0-0.9-0.3-1.7-1-2.4c-0.7,1-1,1.7-1.2,2.1c-0.2,0.3-0.5,0.7-0.9,1c-0.2,0.2-0.5,0.5-0.7,0.7s-0.2,0.5,0.2,0.7
		c0.3,0.2,0.7,0.5,1,0.9c0.3,0.3,0.5,0.5,0.7,0.7s0.2,0.5,0,0.7s-0.2,0.2-0.5,0.2c-0.2,0-0.3,0-0.5-0.2c-0.3-0.3-2.4-1.7-5.9-4.1
		c-0.5-0.3-1-0.7-1.6-1c-1.2-0.7-2.2-1.4-3.5-2.1c-0.2-0.2-0.2-0.2-0.3-0.3c0-0.2,0-0.3,0-0.5c0.2-0.3,0.5-0.3,1-0.2
		c0.7,0.3,1.2,0.5,1.7,0.7c0.3,0.2,0.7,0.2,0.9,0.2s0.5-0.2,0.7-0.5c0.3-0.5,0.7-1.2,1.2-1.9c0.3-0.5,0.5-1,0.9-1.6
		c0.2-0.3,0.3-0.5,0.5-0.9c0.5-0.7,1-1.4,1.6-2.2c0.7-0.9,1-1.2,1-1.4c0.3-0.5,0.3-0.7,0.5-0.9c0-0.3-0.2-0.5-0.5-0.9
		c0,0-0.2-0.2-0.7-0.3c-0.3-0.2-0.5-0.3-0.7-0.3c-0.3-0.3-0.5-0.3-0.7-0.5s0-0.3,0.2-0.7c0.2-0.3,0.7-0.2,1.4,0.2
		c0.2,0.2,0.3,0.3,0.7,0.5c0.5,0.3,1.4,0.9,2.4,1.6s1.9,1.2,2.4,1.6c1.9,1.4,3.1,2.1,3.5,2.2c1.4,1,2.2,2.1,2.8,3.1
		c0.5,1.2,0.3,2.4-0.3,3.8c-0.3,0.3-0.9,0.7-1.6,0.9c-0.2,0-0.7,0.2-1.4,0.2c1,2.6,1.4,5,1.4,7.4c0,0.3,0.3,0.9,1,1.9
		C167.1,48.6,167.1,48.8,166.9,49.3z M164.8,36.9c0.7-1,0.7-2.4-0.2-4c-0.2-0.3-0.3-0.5-0.7-0.7c-0.3-0.2-0.5-0.2-0.7,0.2
		c-0.5,0.9-1.2,2.1-2.1,3.6c0.3,0.3,0.9,0.9,1.7,1.4S164.3,37.7,164.8,36.9z"/>
</g>
<g class="st3">
	<path class="st4" d="M182.1,59c-1.2,1-2.8,1.4-4.5,1.2s-3.1-1-4.1-2.2c-0.7-0.7-1.4-1.7-2.1-3.1c-0.2-0.3-0.2-0.7-0.5-1
		c-0.2-0.2-0.2-0.2-0.3-0.2c-0.2,0-0.2,0-0.3,0.2c-0.5,0.5-0.7,0.7-0.5,0.5c-0.2,0.2-0.5,0.2-0.9-0.2c-0.2-0.2,0-0.5,0.2-0.9
		c1.6-2.9,2.4-4.5,2.6-4.7c0.3-0.2,0.5-0.2,0.9,0c0.2,0.2,0.2,0.5,0,1.2c-0.2,0.5-0.3,1.2-0.3,1.9c-0.2,1.6,0.5,3.1,2.1,4.8
		c0.3,0.5,0.9,0.9,1.2,1.2c0.7,0.5,1.2,0.7,1.4,0.5c0.3-0.2,0.2-0.9-0.5-2.1c-0.3-0.9-0.9-1.4-1-1.9c-1-1.4-1.6-2.9-1.6-4.5
		s0.7-2.8,1.9-3.8c2.9-2.6,6.2-1.7,9.9,2.6c0.3,0.7,1,1.6,1.9,2.8c0.2,0.3,0.7,0.3,1,0.2c0.3-0.2,0.7,0,0.9,0.3c0,0,0.2,0.2,0.2,0.3
		s0,0.3,0,0.3c-0.2,0.2-0.3,0.2-0.7,0.3c-0.2,0-1,0.3-2.6,1c-1,0.3-1.7,0.7-1.9,0.9s-0.3,0.5-0.3,1c-0.2,0.7-0.3,1.2-0.5,1.6
		C183,58,182.6,58.7,182.1,59z M183.7,53.1l0.3-0.3c0.5-0.5,0.5-1.2,0-2.6c-0.3-1-0.7-1.7-1-2.1c-0.3-0.3-0.7-0.7-1.2-1
		c-0.7-0.5-1-0.5-1.2-0.3s-0.2,0.3,0,0.9c0.2,0.3,0.2,0.5,0.3,0.9c0.3,0.3,0.7,1.4,1.4,2.6c0.7,1.2,0.9,1.9,1,1.9
		C183.5,53,183.7,53,183.7,53.1z"/>
</g>
<g class="st3">
	<path class="st4" d="M199.6,80.1c-0.2,0.2-0.3,0.2-0.7,0c-0.2-0.2-0.3-0.2-0.5-0.3c-0.2-0.2,0-0.5,0.3-0.9c0.3-0.2,0.5-0.5,0.5-0.7
		s0.2-0.5,0.3-1c0.2-0.7,0.2-1.4,0.2-2.2s-0.2-1.4-0.5-1.9c-0.2-0.3-0.5-0.5-0.9-0.2c-0.9,0.5-2.2,1.4-4.1,2.6
		c-0.7,0.3-1.6,0.7-2.9,1.4c-1,0.5-1.7,0.9-1.9,0.9c-0.3,0.3-0.3,0.9,0,1.7c0.2,0.3,0.3,0.9,0.7,1.9c0.2,0.5,0,0.9-0.3,1.2
		c-0.3,0.2-0.5,0-0.9-0.7c0,0-0.2-0.3-0.5-1s-0.5-1-0.5-1c0-0.2-0.3-0.7-0.9-1.9c-0.5-1-0.9-1.7-0.9-1.9c-0.5-1-1.4-2.4-2.6-4.3
		c-1-1.7-1.7-2.8-1.7-2.9c-0.2-0.3-0.2-0.7,0.2-0.9c0.3-0.2,0.7,0,1,0.5s0.7,1,1.4,1.9c0.3,0.5,0.7,0.7,1,0.5s1-0.7,2.1-1.2
		c1-0.7,1.7-1,2.1-1.4c0.9-0.3,1.6-0.9,2.6-1.2c1-0.3,1.7-0.7,2.1-0.9c0.7-0.3,1-0.7,0.9-1.2c-0.3-0.9-1-1.6-2.1-2.4
		c-0.5-0.5-1.2-0.7-1.7-0.9c-0.3,0-0.9,0-1.4,0.2c-0.3,0.2-0.7,0-0.9-0.3c-0.2-0.5,0-0.9,0.9-1.4l1.7-0.9c0.9-0.3,1.4-0.5,1.7-0.3
		s0.9,0.9,1.4,1.9c0-0.2,0.5,1,1.7,3.3c1,1.9,1.9,3.8,2.9,5.5c0.5,1,1.4,2.6,2.6,4.7c1,1.9,1.6,2.8,1.6,2.8c0.2,0.5,0.2,0.9-0.2,1.2
		c0,0-0.9,0.5-2.4,1.6L199.6,80.1z"/>
</g>
<g class="st3">
	<path class="st4" d="M81,190.6c0,0.3,0,0.9-0.2,1.2s-0.2,0.9-0.3,1.2c0,0.2-0.3,0.3-0.9,0.3c-0.3,0-0.9,0-1.7,0c-0.9,0-1.4,0-1.7,0
		c-1.7,0-3.1,0-4.1,0h-1.2c0,0-0.2,0-0.2-0.2c0,0-0.2-0.2,0-0.2c0-0.2,0-0.2,0.2-0.3c0,0,0.2,0,0.3,0c0.2,0,0.3,0,0.7,0
		c0.5,0,0.7-0.3,0.7-0.7c0-0.2,0-0.5,0-1.4c0-0.5,0-1,0-1.6c0,0,0-0.3,0-1s0-1,0-1.2s-0.2-0.5-0.3-0.5s-0.3-0.2-1-0.2
		c-0.5,0-0.7-0.2-0.7-0.3c0-0.2,0.2-0.3,0.3-0.3c0,0,0.3,0,1.2,0s1.9,0,2.9,0c1.4,0,2.4,0,3.1,0s1.4,0,1.9,0c0.2,0,0.3,0.2,0.5,0.5
		c0,0.2,0,0.3,0,0.7c0,0.3,0,0.7-0.2,1.2c0,0.2-0.2,0.3-0.3,0.3h-0.2l-0.2-0.2c0-0.2,0-0.2,0-0.3c-0.2-0.5-0.5-0.7-1-1
		c-0.3-0.2-0.9-0.2-1.4-0.2H77v0.2c0,0.2,0,0.3,0,0.7c0,0.5,0,0.9,0,1c0,0.2,0.2,0.3,0.3,0.3c0,0,0.2,0,0.3,0s0.3,0,0.3,0
		c0.3,0,0.7,0,0.9,0.2c0.2,0,0.3,0.3,0.3,0.7c0,0.2,0,0.7-0.2,1.2c0,0.2-0.2,0.3-0.3,0.3c-0.2,0-0.2,0-0.2-0.2v-0.2
		c0-0.2,0-0.2,0-0.2c0-0.2-0.2-0.5-0.3-0.9c-0.3-0.3-0.5-0.5-1-0.5c0,0-0.2,0-0.2,0.2c0,0.3,0,1,0,1.7c0,0.9,0,1.2,0,1.2
		c0,0.2,0,0.2,0.2,0.2c0.5,0,1.2-0.3,1.9-0.9c0.5-0.3,0.9-0.7,1.2-1c0,0,0.2-0.2,0.2-0.3s0.2-0.2,0.2-0.2c0.2,0,0.2,0,0.2,0.2
		C80.8,190.4,81,190.6,81,190.6z"/>
	<path class="st4" d="M91.2,190.6c0,0.9-0.3,1.6-1,2.1s-1.4,0.9-2.2,0.9c-0.5,0-1.2-0.2-1.9-0.3c-0.2,0-0.3-0.2-0.5-0.2
		s-0.2,0-0.2,0v0.2c0,0.3,0,0.5,0,0.3c0,0.2-0.2,0.2-0.3,0.2c-0.2,0-0.2-0.2-0.3-0.3c-0.5-1.7-0.9-2.6-0.9-2.6
		c0-0.2,0.2-0.3,0.3-0.3c0.2,0,0.2,0.2,0.5,0.3c0.2,0.2,0.3,0.5,0.5,0.9c0.5,0.5,1.4,0.9,2.6,0.9c0.3,0,0.7,0,0.9,0
		c0.5,0,0.7-0.2,0.7-0.3c0-0.2-0.3-0.3-1-0.5c-0.5-0.2-0.9-0.2-1.2-0.2c-0.9-0.2-1.7-0.3-2.2-1c-0.5-0.5-0.9-1.2-0.9-2.1
		c0-2.1,1.6-2.9,4.5-2.9c0.3,0,1,0.2,1.7,0.2c0.2,0,0.3-0.2,0.5-0.3c0-0.2,0.2-0.2,0.5-0.2h0.2l0.2,0.2c0,0,0,0.2-0.2,0.3
		c0,0-0.2,0.5-0.5,1.4c-0.2,0.5-0.3,0.9-0.3,1c0,0.2,0,0.3,0.2,0.5c0.2,0.3,0.3,0.5,0.5,0.7C91,189.9,91.2,190.2,91.2,190.6z
		 M89.4,187.8v-0.2c0-0.3-0.3-0.7-1-0.9c-0.5-0.2-0.9-0.3-1.2-0.3c-0.2,0-0.5,0-0.9,0s-0.5,0.2-0.5,0.3c0,0.2,0.2,0.2,0.3,0.3
		c0.2,0,0.3,0.2,0.5,0.2c0.3,0,0.7,0.2,1.6,0.3C88.9,187.8,89.3,187.8,89.4,187.8C89.3,187.8,89.3,187.8,89.4,187.8z"/>
	<path class="st4" d="M105,188.2c0,0.2,0,0.2-0.2,0.3c-0.2,0.2-0.2,0.2-0.3,0.2s-0.2-0.2-0.3-0.3c0-0.2-0.2-0.3-0.2-0.3
		s-0.2-0.2-0.3-0.3c-0.3-0.2-0.7-0.5-1-0.7s-0.7-0.2-1-0.2c-0.2,0-0.3,0.2-0.3,0.3c0,0.5,0.2,1.4,0.2,2.6c0,0.3,0,0.9-0.2,1.7
		c0,0.7,0,1,0,1c0,0.2,0.3,0.3,0.9,0.3c0.2,0,0.5,0,1,0.2c0.3,0,0.5,0.2,0.5,0.5c0,0.2-0.2,0.2-0.5,0.2c0,0-0.2,0-0.5,0
		s-0.5,0-0.7,0c0,0-0.5,0-1.2,0s-1,0-1.2,0c-0.5,0-1.4,0-2.6,0.2c-1,0-1.7,0.2-1.7,0.2c-0.2,0-0.3-0.2-0.3-0.3
		c0-0.2,0.2-0.3,0.5-0.3s0.7,0,1.2-0.2c0.3,0,0.5-0.2,0.5-0.3c0-0.2,0-0.7,0-1.2c0-0.7,0-1,0-1.4c0-0.5,0-1,0-1.4c0-0.5,0-1,0-1.2
		c0-0.3-0.2-0.7-0.3-0.7c-0.5,0-1,0.2-1.6,0.3c-0.3,0.2-0.7,0.3-0.9,0.5c-0.2,0.2-0.2,0.3-0.3,0.7c0,0.2-0.2,0.3-0.3,0.3
		c-0.3,0-0.3-0.2-0.3-0.7v-1c0-0.5,0.2-0.7,0.3-0.9c0.2-0.2,0.5-0.2,1.2-0.2c0,0,0.5,0,1.9,0c1.2,0,2.2,0,3.3,0c0.7,0,1.6,0,2.8,0
		c1.2,0,1.7,0,1.7,0c0.3,0,0.5,0.2,0.5,0.3c0,0,0,0.5,0.2,1.6L105,188.2z"/>
	<path class="st4" d="M106.9,192.5c0-0.3,0.2-0.5,0.3-0.7c0.2-0.2,0.5-0.3,0.7-0.3s0.5,0.2,0.7,0.3c0.2,0.2,0.3,0.5,0.3,0.7
		s-0.2,0.5-0.3,0.7c-0.2,0.2-0.5,0.3-0.7,0.3s-0.5-0.2-0.7-0.3C106.9,193,106.9,192.8,106.9,192.5z"/>
	<path class="st4" d="M123.3,193.2c0,0.2-0.2,0.3-0.3,0.3c-0.7,0-1.9,0-3.1,0c-0.5,0-1,0-1.9,0s-1.6,0-1.9,0h-0.2l-0.2-0.2
		c0-0.2,0-0.2,0.2-0.2c0,0,0.2,0,0.3,0c0.2,0,0.5,0,0.9,0c0.5,0,0.7-0.2,0.7-0.5s0-0.9,0-1.4s0-1,0-1.4c0-0.2,0-0.9,0-2.1
		c0-0.3,0-0.3,0-0.5s-0.2-0.2-0.3-0.2c0,0-0.2,0-0.3,0c-0.2,0-0.3,0-0.3,0c-0.3,0-0.5,0-0.5-0.2c0,0,0-0.2,0.2-0.2s0.2-0.2,0.2-0.2
		s0.5-0.2,1.6-0.3c1-0.2,1.7-0.3,1.9-0.3c0.3,0,0.7-0.2,1.4-0.2c0.5,0,0.7-0.2,0.9-0.2s0.3,0,0.3,0.2s-0.2,0.3-0.5,0.3
		c-0.2,0-0.3,0-0.3,0.2c-0.2,0-0.2,0.2-0.2,0.3c0,0.5,0.2,1.6,0.2,2.9c0,0.5,0,1.4-0.2,2.6c0,0.2,0,0.3,0.2,0.5
		c0,0.2,0.2,0.2,0.5,0.2c0,0,0.2,0,0.3,0c0.2,0,0.3,0,0.3,0C123.2,192.8,123.3,192.8,123.3,193.2z"/>
	<path class="st4" d="M125.9,186.3c0.7-0.5,1.4-0.9,2.4-0.7c0.9,0,1.6,0.3,2.2,0.9c0.7,0.7,1,1.4,1,2.2c0,1.6-0.5,2.8-1.6,3.6
		s-2.2,1.4-3.6,1.4c-0.3,0-0.3,0-0.3-0.2s0.2-0.2,0.2-0.2s0.2,0,0.5-0.2c0.5-0.2,0.9-0.3,1.2-0.7c0.3-0.3,0.7-0.9,0.7-1.2V191h-0.2
		c-0.2,0-0.2,0-0.2,0c-0.5,0.2-0.7,0.2-0.9,0.2c-0.7,0-1.4-0.3-1.9-0.9c-0.5-0.5-0.7-1.2-0.7-1.9
		C124.9,187.7,125.2,186.8,125.9,186.3z M128.5,190.1c0-0.2,0.2-0.2,0.2-0.3c0-0.5,0-1-0.2-1.9c-0.2-1-0.5-1.6-0.9-1.6
		c-0.2,0-0.3,0.2-0.3,0.5c0,0.5,0,1.2,0.2,1.9c0.2,1,0.5,1.6,0.7,1.6C128.3,190.2,128.5,190.2,128.5,190.1z"/>
	<path class="st4" d="M134.4,186.3c0.7-0.5,1.4-0.9,2.4-0.7c0.9,0,1.6,0.3,2.2,0.9c0.7,0.7,1,1.4,1,2.2c0,1.6-0.5,2.8-1.6,3.6
		s-2.2,1.4-3.6,1.4c-0.3,0-0.3,0-0.3-0.2s0.2-0.2,0.2-0.2s0.2,0,0.5-0.2c0.5-0.2,0.9-0.3,1.2-0.7c0.3-0.3,0.7-0.9,0.7-1.2V191H137
		c-0.2,0-0.2,0-0.2,0c-0.5,0.2-0.7,0.2-0.9,0.2c-0.7,0-1.4-0.3-1.9-0.9c-0.5-0.5-0.7-1.2-0.7-1.9
		C133.4,187.7,133.7,186.8,134.4,186.3z M137.2,190.1c0-0.2,0.2-0.2,0.2-0.3c0-0.5,0-1-0.2-1.9c-0.2-1-0.5-1.6-0.9-1.6
		c-0.2,0-0.3,0.2-0.3,0.5c0,0.5,0,1.2,0.2,1.9c0.2,1,0.5,1.6,0.7,1.6C137,190.2,137,190.2,137.2,190.1z"/>
	<path class="st4" d="M142.5,188.9c-0.2-0.3-0.3-0.9-0.3-1.2c0-0.7,0.3-1.2,0.9-1.6s1.2-0.7,2.1-0.7c0.7,0,1.2,0.2,1.7,0.3
		c0.7,0.3,0.9,0.7,0.9,1.4c0,0.5-0.3,1-1,1.4c0.5,0.5,0.9,0.7,0.9,0.9c0.3,0.5,0.5,1,0.5,1.6c0,0.9-0.3,1.4-1,1.9
		c-0.7,0.3-1.4,0.7-2.2,0.5c-0.9,0-1.6-0.2-1.9-0.5c-0.7-0.3-0.9-1-0.9-1.7c0-0.5,0.3-1.2,1.2-1.6
		C142.9,189.6,142.7,189.4,142.5,188.9z M144.6,191.1c-0.3-0.3-0.7-0.7-1-0.9c-0.2,0.2-0.2,0.2-0.3,0.3c-0.2,0.2-0.2,0.3-0.2,0.5
		c0,0.5,0.2,1,0.5,1.4c0.3,0.3,0.7,0.3,1,0.3c0.2,0,0.3,0,0.3-0.2s0.2-0.3,0.2-0.5C145.3,192,145.1,191.6,144.6,191.1z M144.9,186.8
		c0,0.3,0.2,0.5,0.5,0.9c0.2,0.2,0.5,0.3,0.9,0.7c0.2-0.2,0.2-0.3,0.2-0.3c0-0.2,0-0.3,0-0.5c0-0.3-0.2-0.5-0.3-0.9
		c-0.2-0.2-0.5-0.3-0.9-0.3C145.1,186.3,144.9,186.4,144.9,186.8z"/>
</g>
</svg>
