<svg id="Layer_1" data-name="Layer 1" xmlns="http://www.w3.org/2000/svg" xmlns:xlink="http://www.w3.org/1999/xlink" viewBox="0 0 216 216"><defs><style>.cls-1,.cls-10,.cls-15,.cls-18,.cls-19,.cls-20,.cls-9{fill:none;}.cls-2{fill:#a7a9ac;}.cls-11,.cls-16,.cls-21,.cls-3{fill:#fff;}.cls-10,.cls-11,.cls-12,.cls-13,.cls-14,.cls-3{stroke:#231f20;}.cls-10,.cls-11,.cls-12,.cls-13,.cls-14,.cls-15,.cls-21,.cls-3,.cls-6,.cls-7,.cls-8,.cls-9{stroke-linecap:round;stroke-linejoin:round;}.cls-3{stroke-width:1.08px;}.cls-4{clip-path:url(#clip-path);}.cls-5{opacity:0.25;}.cls-13,.cls-6{fill:#fbb040;}.cls-18,.cls-19,.cls-20,.cls-21,.cls-6,.cls-7,.cls-8,.cls-9{stroke:#939598;}.cls-15,.cls-21,.cls-6,.cls-7,.cls-8,.cls-9{stroke-width:0.5px;}.cls-14,.cls-7{fill:#e6e7e8;}.cls-8{fill:#414042;}.cls-12{fill:#231f20;}.cls-15{stroke:#fff;}.cls-16{font-size:20px;font-family:AkkoRoundedStd-Regular, Akko Rounded Std;letter-spacing:0.2em;}.cls-17{letter-spacing:0.19em;}.cls-18,.cls-19,.cls-20{stroke-miterlimit:10;}.cls-18{stroke-width:0.48px;}.cls-19{stroke-width:0.49px;}.cls-20{stroke-width:0.49px;}.cls-22{fill:#ed1c24;}.cls-23{fill:#2e3192;}</style><clipPath id="clip-path"><rect class="cls-1" y="-236" width="216" height="216"/></clipPath></defs><rect class="cls-2" y="0.64" width="215.36" height="215.36"/><rect class="cls-3" x="101.82" y="98.69" width="11.09" height="21.59"/><g class="cls-4"><image class="cls-5" width="2550" height="3507" transform="translate(-78.9 -458.65) rotate(2.42) scale(0.15)" xlink:href="../../../design/logos/001.jpg"/></g><path class="cls-6" d="M107.56,69.91s-5.57,2.66-5.87,49"/><path class="cls-7" d="M94.58,87.92s-1.94.27-2.33,7.09v45"/><path class="cls-7" d="M118.2,134.73V95c.39-6.82,2.33-7.09,2.33-7.09"/><path class="cls-8" d="M115.25,163.36s2.54,1,10.84.17"/><path class="cls-8" d="M115.9,162.06a35.81,35.81,0,0,0,9.33,0"/><path class="cls-8" d="M100.16,163.36s-2.54,1-10.84.17"/><path class="cls-9" d="M99.51,162.06a35.81,35.81,0,0,1-9.33,0"/><path class="cls-10" d="M111.86,114.55c0-1.09,0-2.13,0-3.13"/><polygon class="cls-11" points="102.55 151.63 102.33 152.6 102.25 152.94 100.84 159.07 98.54 158.39 98.54 151.6 99.64 151.61 102.55 151.63"/><path class="cls-11" d="M114.05,159.07a9.27,9.27,0,0,1-5.41,3.27c.13-1.54.21-3.37.21-5.34,0-1.45,0-2.82-.12-4.06h4Z"/><path class="cls-12" d="M113,163.45c-1,1-2.06,1.41-2.45,1s.06-1.5,1-2.46,2.06-1.41,2.45-1S113.91,162.49,113,163.45Z"/><path class="cls-10" d="M103.08,111.42s-.17,1.37-.66,4"/><polygon class="cls-11" points="132.89 153.52 127.21 155.19 124.49 155.99 116.57 158.33 116.57 151.7 118.76 151.71 124.49 151.74 132.69 151.78 132.89 153.52"/><polygon class="cls-11" points="116.57 151.7 116.57 158.33 114.05 159.07 112.78 152.94 112.52 151.68 115.47 151.69 116.57 151.7"/><ellipse class="cls-12" cx="102.72" cy="162.73" rx="1.02" ry="2.45" transform="translate(-84.98 120.29) rotate(-45)"/><path class="cls-12" d="M106.5,162.75c.07.71.15,1.35.23,1.9-1-.13-1.71-.52-1.71-1S105.63,162.91,106.5,162.75Z"/><path class="cls-12" d="M109.92,163.68c0,.43-.63.8-1.54.94.08-.54.16-1.15.22-1.83C109.39,163,109.92,163.29,109.92,163.68Z"/><line class="cls-11" x1="127.21" y1="151.76" x2="127.21" y2="155.22"/><line class="cls-10" x1="95.9" y1="157.63" x2="95.9" y2="157.61"/><line class="cls-11" x1="118.76" y1="151.71" x2="118.77" y2="157.63"/><path class="cls-10" d="M110.56,100.65H110a3.25,3.25,0,0,1,.67.34A1.89,1.89,0,0,0,110.56,100.65Zm-5.39,0h-1a2.64,2.64,0,0,0-.07.3.06.06,0,0,0,0,0,12.14,12.14,0,0,1,1.18-.34,11.64,11.64,0,0,1,2.1-.32h0A12.51,12.51,0,0,0,105.17,100.65Zm7.3,14.74c-.49-2.6-.66-4-.66-4,0,1,0,2,0,3.13v.84Z"/><path class="cls-11" d="M112,149.26h-3.66c-.22-1.34-.5-2.13-.81-2.13s-.58.79-.8,2.13h-3.66V130.68h8.84Z"/><path class="cls-11" d="M106.75,149.26c-.11.67-.21,1.48-.28,2.39,0,.41-.07.84-.1,1.29h-4.12l.08-.34.22-1,.54-2.37Z"/><path class="cls-11" d="M112.78,152.94h-4c0-.45,0-.88-.09-1.28-.07-.92-.17-1.73-.28-2.4H112l.5,2.42Z"/><path class="cls-12" d="M132.69,151.78h-1.25l-.3-2.69a69.44,69.44,0,0,1-8-6.23,41.59,41.59,0,0,1-5-5.31,17.92,17.92,0,0,1-3-5.32c0-.1-.07-.2-.1-.3-.36-1.24-.7-2.42-1-3.55-1-3.72-1.75-6.83-2.26-9.27l0-3.71h.61c.54,2.8,1.47,7,3,12.57.25.87.5,1.78.78,2.72.09.31.2.62.32.93a16.65,16.65,0,0,0,1.63,3.12,37.94,37.94,0,0,0,6.29,7.07,68,68,0,0,0,7.76,6Z"/><polygon class="cls-11" points="111.93 130.68 103.09 130.68 103.09 114.55 111.86 114.55 111.86 115.39 111.93 130.68"/><path class="cls-13" d="M115.47,93.56V128c-1.53-5.52-2.46-9.77-3-12.57-.49-2.6-.66-4-.66-4A49.61,49.61,0,0,0,110.65,101a1.89,1.89,0,0,0-.09-.34c-.69-2.51-1.69-3.85-3-3.9-1.58-.25-2.67,1.16-3.38,3.9a2.64,2.64,0,0,0-.07.3.06.06,0,0,0,0,0,61.57,61.57,0,0,0-1,13.56v.84h-.67c-.19,1-.42,2.11-.72,3.42,0,0,0,0,0,.06-.12.57-.26,1.17-.41,1.8-.06.28-.13.57-.2.86s-.18.75-.28,1.14c-.13.55-.28,1.12-.43,1.7-.22.88-.47,1.8-.73,2.76V93.56Z"/><path class="cls-13" d="M115.48,93.56q-.92-22.5-7.92-23.65c-3.34,1-6.62,4.33-7.92,23.65"/><rect class="cls-14" x="116.57" y="115.39" width="7.92" height="15.29"/><rect class="cls-14" x="116.57" y="95.01" width="7.92" height="20.38"/><path class="cls-14" d="M124.49,130.68V141.8a37.94,37.94,0,0,1-6.29-7.07,16.65,16.65,0,0,1-1.63-3.12v-.93Z"/><polygon class="cls-14" points="124.49 155.99 124.49 160.62 116.57 160.62 116.57 158.33 124.49 155.99"/><path class="cls-14" d="M124.49,95q-.45-6.75-4-7.09c-1.67.29-3.31,1.3-4,7.09"/><path class="cls-14" d="M98.54,95v36c-1.2,3.76-4.58,7.58-7.92,10.63V95Z"/><path class="cls-14" d="M98.54,95q-.45-6.75-4-7.09c-1.67.29-3.31,1.3-4,7.09"/><path class="cls-12" d="M126.41,165c-1,.87-11,.78-11.45,0s1.08-2.92,1.61-4.37h7.92C125.13,162.08,126.77,164.49,126.41,165Z"/><path class="cls-12" d="M88.84,165c1,.87,11,.78,11.45,0s-1.07-2.92-1.61-4.37H90.76C90.12,162.08,88.48,164.49,88.84,165Z"/><path class="cls-10" d="M108.33,100.33a5.37,5.37,0,0,1,.92.13,4.19,4.19,0,0,1,.63.19,3.25,3.25,0,0,1,.67.34h0"/><polyline class="cls-10" points="115.47 100.65 116.57 100.65 124.49 100.65"/><polyline class="cls-10" points="99.64 100.65 98.54 100.65 90.62 100.65"/><line class="cls-10" x1="105.27" y1="100.65" x2="105.17" y2="100.65"/><line class="cls-10" x1="116.57" y1="115.39" x2="115.47" y2="115.39"/><polyline class="cls-10" points="90.62 115.39 98.54 115.39 99.64 115.39"/><line class="cls-10" x1="116.57" y1="130.68" x2="116.25" y2="130.68"/><polyline class="cls-10" points="98.64 130.68 98.54 130.68 90.62 130.58"/><line class="cls-10" x1="100.71" y1="83.33" x2="114.6" y2="83.33"/><line class="cls-10" x1="103.09" y1="74.28" x2="112.23" y2="74.34"/><path class="cls-10" d="M105.1,107.24V105.4s2.38-2.13,4.55,0v1.84"/><line class="cls-10" x1="104.79" y1="112.98" x2="106.26" y2="112.98"/><line class="cls-10" x1="104.79" y1="115.9" x2="106.26" y2="115.9"/><line class="cls-10" x1="104.79" y1="129.08" x2="106.26" y2="129.08"/><line class="cls-10" x1="104.79" y1="132.69" x2="106.26" y2="132.69"/><line class="cls-10" x1="104.79" y1="147.66" x2="105.88" y2="147.66"/><path class="cls-11" d="M131.44,151.77l-7,0-5.73,0h-6.24l-.5-2.42-.09-18.58-.05-11.58c.51,2.44,1.25,5.55,2.26,9.27.3,1.13.64,2.31,1,3.55,0,.1.06.2.1.3a17.92,17.92,0,0,0,3,5.32,41.59,41.59,0,0,0,5,5.31,69.44,69.44,0,0,0,8,6.23Z"/><path class="cls-11" d="M131.44,151.77v0l-3.55,0H124.3l-5.27,0h-3.75l-2.91,0-.53-2.37v-30.6a1.16,1.16,0,0,0,0,.18l.05,11.58.09,18.58.5,2.42h6.24l5.73,0Z"/><path class="cls-15" d="M45.16,179.9S97-89.52,175.61,179.9"/><path class="cls-15" d="M44.7,172.52s51.87-269.42,130.45,0"/><text class="cls-16" transform="translate(78.52 192.53)">NA<tspan class="cls-17" x="31.96" y="0">S</tspan><tspan x="45.72" y="0">A</tspan></text><path class="cls-15" d="M44.35,156.48s51.87-269.42,130.45,0"/><polygon class="cls-14" points="90.69 156.09 90.69 160.72 98.61 160.72 98.61 158.43 90.69 156.09"/><path class="cls-18" d="M107.64,70.17s-5.57,2.46-5.87,45.37"/><path class="cls-19" d="M94.66,88.18s-1.94.26-2.33,6.9v43.77"/><path class="cls-20" d="M118.28,133.51V95.05c.39-6.61,2.33-6.87,2.33-6.87"/><line class="cls-21" x1="107.37" y1="100.32" x2="107.55" y2="147.13"/><path class="cls-11" d="M108.85,157c0,2-.08,3.8-.21,5.34,0,.16,0,.31,0,.45-.06.68-.14,1.29-.22,1.83h0c-.22,1.4-.52,2.24-.83,2.24s-.59-.83-.82-2.22c-.08-.55-.16-1.19-.23-1.9l0-.37c-.14-1.54-.21-3.39-.21-5.38,0-1.45,0-2.82.11-4.06,0-.45.06-.88.1-1.29.07-.91.17-1.72.28-2.39.22-1.34.5-2.13.8-2.13s.59.79.81,2.13c.11.67.21,1.48.28,2.4,0,.4.07.83.09,1.28C108.81,154.18,108.85,155.55,108.85,157Z"/><polygon class="cls-11" points="82.27 153.66 87.95 155.33 90.67 156.13 98.59 158.47 98.59 151.84 96.4 151.85 90.67 151.88 82.47 151.92 82.27 153.66"/><line class="cls-11" x1="87.95" y1="151.9" x2="87.95" y2="155.36"/><line class="cls-11" x1="96.4" y1="151.85" x2="96.4" y2="157.77"/><path class="cls-12" d="M82.47,151.92h1.25l.3-2.69A69.44,69.44,0,0,0,92,143a41.59,41.59,0,0,0,5-5.31,17.92,17.92,0,0,0,3-5.32c0-.1.07-.2.1-.3.36-1.24.7-2.42,1-3.55,1-3.72,1.75-6.83,2.26-9.27l0-3.71h-.61c-.54,2.8-1.47,7-3,12.57-.25.87-.5,1.78-.78,2.72-.09.31-.2.62-.32.93A16.65,16.65,0,0,1,97,134.87a37.94,37.94,0,0,1-6.29,7.07,68,68,0,0,1-7.76,6Z"/><path class="cls-11" d="M83.72,151.91l7,0,5.73,0h6.24l.5-2.42.09-18.58,0-11.58c-.51,2.44-1.25,5.55-2.26,9.27-.3,1.13-.64,2.31-1,3.55,0,.1-.06.2-.1.3a17.92,17.92,0,0,1-3,5.32A41.59,41.59,0,0,1,92,143a69.44,69.44,0,0,1-8,6.23Z"/><line class="cls-11" x1="103.08" y1="110.68" x2="102.27" y2="116.44"/><path class="cls-11" d="M101,159.12a9.27,9.27,0,0,0,5.41,3.27c-.13-1.54-.21-3.37-.21-5.34,0-1.45,0-2.82.12-4.06h-4Z"/><rect class="cls-22" x="97.29" y="148.32" width="3.26" height="1.87"/><rect class="cls-23" x="97.29" y="148.32" width="1.32" height="0.94"/><path class="cls-12" d="M110.56,100.65H110a5.4,5.4,0,0,0-1.65-.32,5.21,5.21,0,0,0-.79,0h-.17a12.51,12.51,0,0,0-2.2.33h-1c.71-2.74,1.8-4.15,3.38-3.9C108.87,96.8,109.87,98.14,110.56,100.65Z"/></svg>