<svg id="Layer_1" data-name="Layer 1" xmlns="http://www.w3.org/2000/svg" xmlns:xlink="http://www.w3.org/1999/xlink" viewBox="0 0 216 216"><defs><style>.cls-1,.cls-4,.cls-5,.cls-6,.cls-7,.cls-8{fill:none;}.cls-2{clip-path:url(#clip-path);}.cls-3{opacity:0.25;}.cls-4,.cls-5,.cls-6,.cls-7,.cls-8{stroke:#231f20;stroke-miterlimit:10;}.cls-5{stroke-width:0.98px;}.cls-6{stroke-width:1.06px;}.cls-7{stroke-width:0.94px;}.cls-8{stroke-width:0.75px;}</style><clipPath id="clip-path"><rect class="cls-1" width="216" height="216"/></clipPath></defs><g class="cls-2"><g class="cls-2"><image class="cls-3" width="2550" height="3507" transform="translate(-78.9 -222.65) rotate(2.42) scale(0.15)" xlink:href="../../../design/logos/001.jpg"/><polygon class="cls-4" points="118.96 130.74 119.12 165.45 110.18 165.45 110.18 130.74 118.96 130.74"/><path class="cls-5" d="M119,130.74c-.07-11.34-1.4-17.67-4.31-17.8-3.38-.54-4.53,6.54-4.47,17.8"/><path class="cls-5" d="M110.18,127.61a133.43,133.43,0,0,1-4.44,19.26c-2.45,8.39-16,17.16-16,17.16l-.65,5.68,18.84,5.55c4.25,4.79,9.55,4.22,13.22,0"/><path class="cls-5" d="M119.12,165.45l2,9.81L140,169.71l-.65-5.68s-13.54-8.77-16-17.16a135.2,135.2,0,0,1-4.44-19.26"/><line class="cls-5" x1="110.18" y1="165.45" x2="107.93" y2="175.26"/><ellipse class="cls-5" cx="119.33" cy="178.92" rx="2.45" ry="1.02" transform="translate(-91.57 136.78) rotate(-45)"/><ellipse class="cls-5" cx="114.65" cy="173.19" rx="1.29" ry="9.87"/><ellipse class="cls-5" cx="109.81" cy="178.92" rx="1.02" ry="2.45" transform="translate(-94.35 130.05) rotate(-45)"/><ellipse class="cls-5" cx="114.57" cy="179.87" rx="2.45" ry="1.02"/><line class="cls-5" x1="89.09" y1="167.71" x2="139.79" y2="167.97"/><line class="cls-5" x1="94.13" y1="167.74" x2="94.13" y2="171.19"/><line class="cls-5" x1="134.31" y1="167.95" x2="134.31" y2="171.41"/><line class="cls-5" x1="103" y1="173.82" x2="103" y2="167.78"/><line class="cls-5" x1="125.86" y1="167.78" x2="125.86" y2="173.82"/><rect class="cls-6" x="106.73" y="109.75" width="15.84" height="59.38"/><path class="cls-6" d="M122.57,109.75q-.9-22.48-7.92-23.65c-3.34,1-6.62,4.34-7.92,23.65"/><rect class="cls-7" x="123.67" y="111.2" width="7.92" height="65.61"/><path class="cls-8" d="M131.59,111.2q-.45-6.75-4-7.09c-1.67.3-3.31,1.3-4,7.09"/><rect class="cls-7" x="97.72" y="111.2" width="7.92" height="65.61"/><path class="cls-8" d="M105.64,111.2q-.47-6.75-4-7.09c-1.67.3-3.31,1.3-4,7.09"/><path class="cls-4" d="M133.51,181.19c-1,.87-11,.78-11.46,0s1.08-2.92,1.62-4.37h7.92C132.23,178.27,133.86,180.68,133.51,181.19Z"/><path class="cls-4" d="M95.93,181.19c1,.87,11,.78,11.46,0s-1.08-2.92-1.62-4.37H97.85C97.21,178.27,95.58,180.68,95.93,181.19Z"/><path class="cls-4" d="M111.18,117.18s4.22-1.54,6.58,0"/><path class="cls-4" d="M108.67,95.07a13.57,13.57,0,0,1,12.17,0"/><path class="cls-4" d="M107.33,103s8-4.26,14.79,0"/><path class="cls-4" d="M99,106a6.75,6.75,0,0,1,5.37,0"/><path class="cls-4" d="M125,106a6.07,6.07,0,0,1,5.37,0"/><polyline class="cls-4" points="97.72 116.84 105.64 116.84 123.67 116.84 131.59 116.84"/><polyline class="cls-4" points="97.72 131.58 105.64 131.58 123.67 131.58 131.59 131.58"/><polyline class="cls-4" points="97.72 146.77 105.74 146.87 123.34 146.87 131.59 146.87"/></g></g></svg>