<svg id="Layer_1" data-name="Layer 1" xmlns="http://www.w3.org/2000/svg" xmlns:xlink="http://www.w3.org/1999/xlink" viewBox="0 0 216 216"><defs><style>.cls-1,.cls-10,.cls-15,.cls-16,.cls-17,.cls-18,.cls-9{fill:none;}.cls-2{fill:#f15a29;}.cls-3{clip-path:url(#clip-path);}.cls-4{opacity:0.25;}.cls-11,.cls-19,.cls-22,.cls-5{fill:#fff;}.cls-10,.cls-11,.cls-12,.cls-13,.cls-14,.cls-5{stroke:#231f20;}.cls-10,.cls-11,.cls-12,.cls-13,.cls-14,.cls-15,.cls-19,.cls-5,.cls-6,.cls-7,.cls-8,.cls-9{stroke-linecap:round;stroke-linejoin:round;}.cls-5{stroke-width:1.25px;}.cls-13,.cls-6{fill:#fbb040;}.cls-16,.cls-17,.cls-18,.cls-19,.cls-6,.cls-7,.cls-8,.cls-9{stroke:#939598;}.cls-15,.cls-19,.cls-6,.cls-7,.cls-8,.cls-9{stroke-width:0.58px;}.cls-14,.cls-7{fill:#e6e7e8;}.cls-8{fill:#414042;}.cls-10,.cls-11,.cls-12,.cls-13,.cls-14{stroke-width:1.16px;}.cls-12{fill:#231f20;}.cls-15{stroke:#fff;}.cls-16,.cls-17,.cls-18{stroke-miterlimit:10;}.cls-16{stroke-width:0.56px;}.cls-17{stroke-width:0.57px;}.cls-18{stroke-width:0.57px;}.cls-20{fill:#ed1c24;}.cls-21{fill:#2e3192;}.cls-22{font-size:23.17px;font-family:AkkoRoundedStd-Regular, Akko Rounded Std;letter-spacing:0.2em;}.cls-23{letter-spacing:0.19em;}.cls-24{letter-spacing:0.2em;}</style><clipPath id="clip-path"><rect class="cls-1" x="-236" y="-236" width="216" height="216"/></clipPath></defs><rect class="cls-2" width="216" height="216"/><g class="cls-3"><image class="cls-4" width="2550" height="3507" transform="translate(-314.9 -458.65) rotate(2.42) scale(0.15)" xlink:href="../../../design/logos/001.jpg"/></g><rect class="cls-5" x="101.1" y="85.79" width="12.85" height="25.01"/><path class="cls-6" d="M107.75,52.45s-6.45,3.09-6.8,56.78"/><path class="cls-7" d="M92.72,73.31s-2.25.32-2.7,8.21v52.09"/><path class="cls-7" d="M120.08,127.54v-46c.45-7.9,2.7-8.22,2.7-8.22"/><path class="cls-8" d="M116.66,160.7s2.94,1.17,12.56.2"/><path class="cls-8" d="M117.41,159.2s6.46.86,10.81,0"/><path class="cls-8" d="M99.17,160.7s-2.93,1.17-12.55.2"/><path class="cls-9" d="M98.43,159.2s-6.46.86-10.81,0"/><path class="cls-10" d="M112.74,104.16c0-1.26,0-2.47-.06-3.62"/><polygon class="cls-11" points="101.95 147.12 101.7 148.24 101.6 148.63 99.97 155.73 97.31 154.95 97.31 147.08 98.58 147.09 101.95 147.12"/><path class="cls-11" d="M115.27,155.73a10.72,10.72,0,0,1-6.26,3.79c.15-1.78.24-3.9.24-6.18,0-1.68,0-3.27-.14-4.71h4.69Z"/><path class="cls-12" d="M114,160.81c-1.11,1.11-2.39,1.63-2.84,1.18s.07-1.74,1.17-2.85,2.39-1.63,2.84-1.17S115.11,159.7,114,160.81Z"/><path class="cls-10" d="M102.56,100.54s-.19,1.58-.76,4.6"/><polygon class="cls-11" points="137.1 149.31 130.52 151.24 127.37 152.17 118.19 154.88 118.19 147.2 120.73 147.21 127.37 147.24 136.87 147.29 137.1 149.31"/><polygon class="cls-11" points="118.19 147.2 118.19 154.88 115.27 155.73 113.8 148.63 113.5 147.17 116.92 147.19 118.19 147.2"/><ellipse class="cls-12" cx="102.14" cy="159.98" rx="1.18" ry="2.84" transform="translate(-83.2 119.08) rotate(-45)"/><path class="cls-12" d="M106.53,160c.08.82.17,1.56.26,2.2-1.14-.15-2-.6-2-1.13S105.52,160.18,106.53,160Z"/><path class="cls-12" d="M110.49,161.07c0,.5-.73.93-1.79,1.09.1-.62.19-1.33.26-2.12C109.87,160.23,110.49,160.62,110.49,161.07Z"/><line class="cls-11" x1="130.52" y1="147.26" x2="130.52" y2="151.27"/><line class="cls-10" x1="94.25" y1="154.07" x2="94.25" y2="154.04"/><line class="cls-11" x1="120.73" y1="147.21" x2="120.73" y2="154.06"/><path class="cls-10" d="M111.23,88.06h-.68a3.59,3.59,0,0,1,.78.4A2.6,2.6,0,0,0,111.23,88.06Zm-6.25,0h-1.16c0,.12,0,.22-.08.35a.07.07,0,0,0,0,0s.55-.2,1.37-.4a14,14,0,0,1,2.43-.37h0A15.17,15.17,0,0,0,105,88.06Zm8.46,17.08c-.57-3-.77-4.6-.77-4.6,0,1.16,0,2.36.06,3.62v1Z"/><path class="cls-11" d="M112.92,144.37h-4.24c-.25-1.55-.58-2.47-.94-2.47s-.67.92-.92,2.47h-4.24V122.85h10.24Z"/><path class="cls-11" d="M106.82,144.37c-.13.78-.25,1.71-.33,2.77,0,.47-.08,1-.11,1.49H101.6l.1-.39.25-1.12.63-2.75Z"/><path class="cls-11" d="M113.8,148.63h-4.69c0-.52-.06-1-.1-1.48-.09-1.07-.2-2-.33-2.78h4.24l.58,2.8Z"/><path class="cls-12" d="M136.86,147.29h-1.44l-.35-3.12a78.9,78.9,0,0,1-9.24-7.22,47.86,47.86,0,0,1-5.75-6.15,20.76,20.76,0,0,1-3.43-6.16,2,2,0,0,1-.11-.35c-.42-1.43-.82-2.8-1.16-4.11-1.17-4.31-2-7.91-2.62-10.74l0-4.29h.7c.63,3.24,1.7,8.16,3.48,14.56.29,1,.58,2.06.9,3.15.11.36.23.72.37,1.07a18.73,18.73,0,0,0,1.89,3.62,43.8,43.8,0,0,0,7.29,8.19,79.34,79.34,0,0,0,9,7Z"/><polygon class="cls-11" points="112.82 122.85 102.58 122.85 102.58 104.16 112.73 104.16 112.73 105.14 112.82 122.85"/><path class="cls-13" d="M116.91,79.85V119.7c-1.77-6.4-2.85-11.32-3.47-14.56-.57-3-.77-4.6-.77-4.6a57.51,57.51,0,0,0-1.34-12.08,2.6,2.6,0,0,0-.1-.4c-.8-2.91-2-4.46-3.49-4.52-1.83-.29-3.09,1.35-3.92,4.52,0,.12,0,.22-.08.35a.07.07,0,0,0,0,0c-.87,3.6-1.2,9-1.16,15.7v1h-.77c-.22,1.11-.49,2.44-.84,4,0,0,0,0,0,.07-.14.66-.3,1.35-.47,2.08-.07.33-.15.66-.23,1s-.21.87-.33,1.32c-.15.64-.32,1.3-.5,2-.25,1-.54,2.08-.84,3.2V79.85Z"/><path class="cls-13" d="M116.92,79.85q-1-26.05-9.17-27.4c-3.87,1.14-7.67,5-9.18,27.4"/><rect class="cls-14" x="118.19" y="105.14" width="9.17" height="17.71"/><rect class="cls-14" x="118.19" y="81.53" width="9.17" height="23.61"/><path class="cls-14" d="M127.37,122.85v12.88a43.8,43.8,0,0,1-7.29-8.19,18.73,18.73,0,0,1-1.89-3.62v-1.07Z"/><polygon class="cls-14" points="127.37 152.17 127.37 157.53 118.19 157.53 118.19 154.88 127.37 152.17"/><path class="cls-14" d="M127.37,81.52q-.53-7.8-4.59-8.21c-1.94.35-3.84,1.51-4.59,8.21"/><path class="cls-14" d="M97.31,81.53v41.66c-1.39,4.36-5.31,8.79-9.18,12.32v-54Z"/><path class="cls-14" d="M97.3,81.52q-.52-7.8-4.58-8.21c-1.94.35-3.84,1.51-4.59,8.21"/><path class="cls-12" d="M129.59,162.61c-1.2,1-12.74.89-13.27,0s1.25-3.38,1.87-5.07h9.18C128.11,159.22,130,162,129.59,162.61Z"/><path class="cls-12" d="M86.07,162.61c1.19,1,12.74.89,13.26,0s-1.25-3.38-1.87-5.07H88.29C87.55,159.22,85.65,162,86.07,162.61Z"/><path class="cls-10" d="M108.64,87.69a6.13,6.13,0,0,1,1.07.15,5.62,5.62,0,0,1,.73.22,3.83,3.83,0,0,1,.78.4h0"/><polyline class="cls-10" points="116.92 88.06 118.19 88.06 127.37 88.06"/><polyline class="cls-10" points="98.58 88.06 97.31 88.06 88.13 88.06"/><line class="cls-10" x1="105.1" y1="88.06" x2="104.98" y2="88.06"/><line class="cls-10" x1="118.19" y1="105.14" x2="116.92" y2="105.14"/><polyline class="cls-10" points="88.13 105.14 97.31 105.14 98.58 105.14"/><line class="cls-10" x1="118.19" y1="122.85" x2="117.82" y2="122.85"/><polyline class="cls-10" points="97.42 122.85 97.31 122.85 88.13 122.73"/><line class="cls-10" x1="99.81" y1="68" x2="115.9" y2="68"/><line class="cls-10" x1="102.57" y1="57.51" x2="113.17" y2="57.59"/><path class="cls-10" d="M104.9,95.7V93.57s2.76-2.47,5.27,0V95.7"/><line class="cls-10" x1="104.54" y1="102.35" x2="106.25" y2="102.35"/><line class="cls-10" x1="104.54" y1="105.73" x2="106.25" y2="105.73"/><line class="cls-10" x1="104.54" y1="121" x2="106.25" y2="121"/><line class="cls-10" x1="104.54" y1="125.18" x2="106.25" y2="125.18"/><line class="cls-10" x1="104.54" y1="142.52" x2="105.8" y2="142.52"/><path class="cls-11" d="M135.42,147.28l-8,0-6.64,0h-2.54l-1.27,0H113.5l-.58-2.8-.1-21.52-.06-13.42c.59,2.83,1.45,6.43,2.62,10.74.34,1.31.74,2.68,1.16,4.11a2,2,0,0,0,.11.35,20.76,20.76,0,0,0,3.43,6.16,47.86,47.86,0,0,0,5.75,6.15,78.9,78.9,0,0,0,9.24,7.22Z"/><path class="cls-11" d="M135.42,147.28v0l-4.12,0-4.15,0-6.11,0H116.7l-3.37,0-.62-2.75V109.22a1.6,1.6,0,0,0,.05.21l.06,13.42.1,21.52.58,2.8h3.42l1.27,0h2.54l6.64,0Z"/><path class="cls-15" d="M35.47,179.86s60.09-312.09,151.11,0"/><path class="cls-15" d="M34.93,171.31S95-140.78,186,171.31"/><path class="cls-15" d="M34.53,152.73s60.08-312.09,151.11,0"/><polygon class="cls-14" points="88.21 152.29 88.21 157.65 97.39 157.65 97.39 155 88.21 152.29"/><path class="cls-16" d="M107.84,52.75s-6.45,2.86-6.8,52.56"/><path class="cls-17" d="M92.81,73.62s-2.25.3-2.7,8v50.7"/><path class="cls-18" d="M120.17,126.13V81.57c.45-7.65,2.7-7.95,2.7-7.95"/><line class="cls-19" x1="107.53" y1="87.68" x2="107.74" y2="141.9"/><path class="cls-11" d="M109.25,153.34c0,2.28-.09,4.4-.24,6.18,0,.19,0,.36-.05.52-.07.79-.16,1.5-.26,2.12h0c-.25,1.63-.6,2.6-1,2.6s-.68-1-.95-2.57c-.09-.64-.18-1.38-.26-2.2,0-.14,0-.28,0-.43-.16-1.79-.24-3.93-.24-6.23,0-1.68,0-3.27.13-4.71,0-.52.07-1,.11-1.49.08-1.06.2-2,.33-2.77.25-1.55.58-2.47.92-2.47s.69.92.94,2.47c.13.78.24,1.71.33,2.78,0,.46.08,1,.1,1.48C109.2,150.07,109.25,151.66,109.25,153.34Z"/><polygon class="cls-11" points="78.46 149.47 85.04 151.41 88.19 152.33 97.36 155.04 97.36 147.36 94.83 147.37 88.19 147.41 78.69 147.46 78.46 149.47"/><line class="cls-11" x1="85.03" y1="147.43" x2="85.03" y2="151.44"/><line class="cls-11" x1="94.82" y1="147.37" x2="94.82" y2="154.23"/><path class="cls-12" d="M78.69,147.46l1.45,0,.34-3.11a80.79,80.79,0,0,0,9.25-7.22A47.78,47.78,0,0,0,95.47,131a20.76,20.76,0,0,0,3.43-6.16c0-.12.08-.23.12-.35.42-1.44.81-2.8,1.16-4.11,1.17-4.31,2-7.91,2.61-10.74l0-4.3h-.71c-.62,3.24-1.7,8.17-3.47,14.56-.29,1-.58,2.06-.91,3.15-.1.36-.23.72-.37,1.08a18.66,18.66,0,0,1-1.89,3.61,43.48,43.48,0,0,1-7.28,8.19,79,79,0,0,1-9,7Z"/><path class="cls-11" d="M80.14,147.44l8,0,6.63,0h7.23l.58-2.8.11-21.53.05-13.41c-.59,2.83-1.44,6.43-2.61,10.74-.35,1.31-.74,2.67-1.16,4.11,0,.12-.07.23-.12.35A20.76,20.76,0,0,1,95.47,131a47.78,47.78,0,0,1-5.74,6.15,80.79,80.79,0,0,1-9.25,7.22Z"/><line class="cls-11" x1="102.56" y1="99.68" x2="101.63" y2="106.35"/><path class="cls-11" d="M100.17,155.79a10.71,10.71,0,0,0,6.27,3.79c-.16-1.78-.25-3.9-.25-6.19,0-1.68,0-3.26.14-4.7h-4.69Z"/><rect class="cls-20" x="95.85" y="143.29" width="3.77" height="2.17"/><rect class="cls-21" x="95.85" y="143.29" width="1.53" height="1.08"/><path class="cls-12" d="M111.23,88.06h-.68a5.58,5.58,0,0,0-.85-.24,5.3,5.3,0,0,0-1.06-.13,6.91,6.91,0,0,0-.91,0h-.2a15.17,15.17,0,0,0-2.55.38h-1.16c.83-3.17,2.09-4.81,3.92-4.52C109.27,83.6,110.43,85.15,111.23,88.06Z"/><text class="cls-22" transform="translate(74.12 194.49)">NA<tspan class="cls-23" x="37.02" y="0">S</tspan><tspan class="cls-24" x="52.96" y="0">A</tspan></text></svg>