<svg id="Layer_1" data-name="Layer 1" xmlns="http://www.w3.org/2000/svg" xmlns:xlink="http://www.w3.org/1999/xlink" viewBox="0 0 216 216"><defs><style>.cls-1,.cls-2,.cls-3,.cls-6,.cls-7{fill:none;}.cls-2{stroke:#939598;}.cls-2,.cls-3,.cls-6,.cls-7{stroke-miterlimit:10;}.cls-2,.cls-6{stroke-width:0.5px;}.cls-3,.cls-7{stroke:#231f20;}.cls-4{clip-path:url(#clip-path);}.cls-5{opacity:0.25;}.cls-6{stroke:#a7a9ac;}.cls-7{stroke-width:0.2px;}.cls-8{font-size:20px;fill:#231f20;font-family:AkkoRoundedStd-Regular, Akko Rounded Std;letter-spacing:0.2em;}.cls-9{letter-spacing:0.19em;}</style><clipPath id="clip-path"><rect class="cls-1" x="-236" width="216" height="216"/></clipPath></defs><path class="cls-2" d="M106.59,61.89s-5.57,2.66-5.87,49"/><line class="cls-2" x1="106.4" y1="92.3" x2="106.58" y2="139.11"/><path class="cls-2" d="M93.61,79.9s-1.94.27-2.33,7.09v45"/><path class="cls-2" d="M117.23,126.71V87c.39-6.82,2.33-7.09,2.33-7.09"/><path class="cls-2" d="M114.28,155.34s2.53,1,10.84.17"/><path class="cls-2" d="M114.93,154a35.8,35.8,0,0,0,9.33,0"/><path class="cls-2" d="M99.18,155.34s-2.53,1-10.83.17"/><path class="cls-2" d="M98.54,154a35.81,35.81,0,0,1-9.33,0"/><path class="cls-3" d="M110.89,106.53c0-1.09,0-2.13,0-3.13"/><polygon class="cls-3" points="101.58 143.61 101.36 144.58 101.28 144.92 99.87 151.05 97.57 150.37 97.57 143.58 98.67 143.59 101.58 143.61"/><line class="cls-3" x1="97.57" y1="150.37" x2="94.93" y2="149.59"/><path class="cls-3" d="M99.87,151.05a9.25,9.25,0,0,0,5.63,3.31"/><polygon class="cls-3" points="86.06 143.53 86.06 146.98 81.03 145.5 81.26 143.5 82.51 143.51 86.06 143.53"/><path class="cls-3" d="M113.08,151.05a9.27,9.27,0,0,1-5.41,3.27c.13-1.54.21-3.37.21-5.34,0-1.45,0-2.82-.12-4.06h4Z"/><path class="cls-3" d="M112,155.43c-1,1-2.06,1.41-2.45,1s.06-1.5,1-2.46,2.06-1.41,2.45-1S112.94,154.47,112,155.43Z"/><path class="cls-3" d="M102.11,103.4s-.17,1.37-.66,4"/><polygon class="cls-3" points="131.92 145.5 126.24 147.17 123.52 147.97 115.6 150.31 115.6 143.68 117.79 143.69 123.52 143.72 131.72 143.76 131.92 145.5"/><polygon class="cls-3" points="115.6 143.68 115.6 150.31 113.08 151.05 111.81 144.92 111.55 143.66 114.5 143.67 115.6 143.68"/><ellipse class="cls-3" cx="101.74" cy="154.71" rx="1.02" ry="2.45" transform="translate(-79.6 117.26) rotate(-45)"/><path class="cls-3" d="M105.53,154.73c.07.71.15,1.35.23,1.9-1-.13-1.71-.52-1.71-1S104.66,154.89,105.53,154.73Z"/><path class="cls-3" d="M109,155.66c0,.43-.63.8-1.54.94.08-.54.16-1.15.22-1.83C108.42,154.93,109,155.27,109,155.66Z"/><line class="cls-3" x1="81.26" y1="143.5" x2="81.03" y2="143.5"/><line class="cls-3" x1="86.06" y1="143.53" x2="86.06" y2="143.52"/><line class="cls-3" x1="126.24" y1="143.74" x2="126.24" y2="147.2"/><line class="cls-3" x1="94.93" y1="149.61" x2="94.93" y2="149.59"/><line class="cls-3" x1="117.79" y1="143.57" x2="117.79" y2="149.61"/><path class="cls-3" d="M111.5,107.37c-.49-2.6-.66-4-.66-4,0,1,0,2,0,3.13v.84Zm-1.91-14.74c-.69-2.51-1.69-3.85-3-3.9-1.58-.25-2.67,1.16-3.38,3.9a3.38,3.38,0,0,0-.08.34,12.14,12.14,0,0,1,1.18-.34,8.46,8.46,0,0,1,4.71,0,3.25,3.25,0,0,1,.67.34A1.89,1.89,0,0,0,109.59,92.63Z"/><path class="cls-3" d="M111.05,141.24h-3.66c-.22-1.34-.5-2.13-.81-2.13s-.58.79-.8,2.13h-3.66V122.66H111Z"/><path class="cls-3" d="M105.78,141.24c-.11.67-.21,1.48-.28,2.39,0,.41-.07.84-.1,1.29h-4.12l.08-.34.22-1,.54-2.37Z"/><path class="cls-3" d="M111.81,144.92h-4c0-.45-.05-.88-.09-1.28-.07-.92-.17-1.73-.28-2.4h3.66l.5,2.42Z"/><path class="cls-3" d="M107.88,149c0,2-.08,3.8-.21,5.34,0,.16,0,.31,0,.45-.06.68-.14,1.29-.22,1.83h0c-.22,1.4-.52,2.24-.83,2.24s-.59-.83-.82-2.22c-.08-.55-.16-1.19-.23-1.9l0-.37c-.14-1.54-.21-3.39-.21-5.38,0-1.45,0-2.82.11-4.06,0-.45.06-.88.1-1.29.07-.91.17-1.72.28-2.39.22-1.34.5-2.13.8-2.13s.59.79.81,2.13c.11.67.21,1.48.28,2.4,0,.4.07.83.09,1.28C107.84,146.16,107.88,147.53,107.88,149Z"/><path class="cls-3" d="M102.12,107.37v33.87l-.54,2.37-2.91,0H94.93l-5.28,0H86.06l-3.55,0H81.26l.41-3.68a69.44,69.44,0,0,0,8-6.23c3.34-3.05,6.72-6.87,7.92-10.63,0-.1.07-.2.1-.3.36-1.24.7-2.42,1-3.55.26-1,.51-1.88.73-2.76.16-.59.3-1.16.43-1.7s.19-.77.28-1.14.14-.58.2-.86c.15-.63.29-1.23.41-1.8.3-1.33.54-2.5.73-3.48Z"/><path class="cls-3" d="M131.72,143.76h-1.25l-.3-2.69a69.44,69.44,0,0,1-8-6.23,41.59,41.59,0,0,1-5-5.31,17.92,17.92,0,0,1-3-5.32c0-.1-.07-.2-.1-.3-.36-1.24-.7-2.42-1-3.55-1-3.72-1.75-6.83-2.26-9.27l0-3.71h.61c.54,2.8,1.47,7,3,12.57.25.87.5,1.78.78,2.72.09.31.2.62.32.93a16.65,16.65,0,0,0,1.63,3.12,37.94,37.94,0,0,0,6.29,7.07,68,68,0,0,0,7.76,6Z"/><polygon class="cls-3" points="110.96 122.66 102.12 122.66 102.12 106.53 110.89 106.53 110.89 107.37 110.96 122.66"/><path class="cls-3" d="M114.5,85.54v34.4c-1.53-5.52-2.46-9.77-3-12.57-.49-2.6-.66-4-.66-4A49.61,49.61,0,0,0,109.68,93a1.89,1.89,0,0,0-.09-.34c-.69-2.51-1.69-3.85-3-3.9-1.58-.25-2.67,1.16-3.38,3.9a3.38,3.38,0,0,0-.08.34,61.57,61.57,0,0,0-1,13.56v.84h-.67c-.19,1-.43,2.15-.73,3.48-.12.57-.26,1.17-.41,1.8-.06.28-.13.57-.2.86s-.18.75-.28,1.14c-.13.55-.28,1.12-.43,1.7-.22.88-.47,1.8-.73,2.76V85.54Z"/><path class="cls-3" d="M114.5,85.54q-.9-22.5-7.91-23.65c-3.34,1-6.63,4.33-7.92,23.65"/><rect class="cls-3" x="115.6" y="107.37" width="7.92" height="15.29"/><rect class="cls-3" x="115.6" y="86.99" width="7.92" height="20.38"/><path class="cls-3" d="M123.52,122.66v11.12a37.94,37.94,0,0,1-6.29-7.07,16.65,16.65,0,0,1-1.63-3.12v-.93Z"/><polygon class="cls-3" points="123.52 147.97 123.52 152.6 115.6 152.6 115.6 150.31 123.52 147.97"/><path class="cls-3" d="M123.52,87q-.45-6.75-4-7.09c-1.67.29-3.31,1.3-4,7.09"/><polygon class="cls-3" points="94.93 143.57 94.93 149.59 89.65 148.04 86.06 146.98 86.06 143.53 89.65 143.54 94.93 143.57"/><polygon class="cls-3" points="97.57 143.58 97.57 152.6 89.65 152.6 89.65 148.04 94.93 149.59 94.93 143.57 97.57 143.58"/><path class="cls-3" d="M97.57,87v36c-1.2,3.76-4.58,7.58-7.92,10.63V87Z"/><path class="cls-3" d="M97.57,87q-.45-6.75-4-7.09c-1.67.29-3.31,1.3-4,7.09"/><path class="cls-3" d="M125.44,157c-1,.87-11,.78-11.45,0s1.07-2.92,1.61-4.37h7.92C124.16,154.06,125.79,156.47,125.44,157Z"/><path class="cls-3" d="M87.87,157c1,.87,11,.78,11.45,0s-1.08-2.92-1.61-4.37H89.79C89.15,154.06,87.51,156.47,87.87,157Z"/><path class="cls-3" d="M109.59,93h0a3.25,3.25,0,0,0-.67-.34,8.46,8.46,0,0,0-4.71,0A12.14,12.14,0,0,0,103,93"/><line class="cls-3" x1="109.59" y1="92.63" x2="109.01" y2="92.63"/><polyline class="cls-3" points="114.5 92.63 115.6 92.63 123.52 92.63"/><polyline class="cls-3" points="98.67 92.63 97.57 92.63 89.65 92.63"/><line class="cls-3" x1="104.3" y1="92.63" x2="103.2" y2="92.63"/><line class="cls-3" x1="115.6" y1="107.37" x2="114.5" y2="107.37"/><polyline class="cls-3" points="89.65 107.37 97.57 107.37 98.67 107.37"/><line class="cls-3" x1="115.6" y1="122.66" x2="115.28" y2="122.66"/><polyline class="cls-3" points="97.67 122.66 97.57 122.66 89.65 122.56"/><g class="cls-4"><image class="cls-5" width="2550" height="3507" transform="translate(-314.9 -222.65) rotate(2.42) scale(0.15)" xlink:href="../../../design/logos/001.jpg"/></g><line class="cls-3" x1="99.74" y1="75.31" x2="113.62" y2="75.31"/><line class="cls-3" x1="102.11" y1="66.26" x2="111.26" y2="66.32"/><path class="cls-3" d="M104.13,99.22V97.38s2.38-2.13,4.54,0v1.84"/><line class="cls-3" x1="103.81" y1="104.96" x2="105.29" y2="104.96"/><line class="cls-3" x1="103.81" y1="107.88" x2="105.29" y2="107.88"/><line class="cls-3" x1="103.81" y1="121.06" x2="105.29" y2="121.06"/><line class="cls-3" x1="103.81" y1="124.67" x2="105.29" y2="124.67"/><line class="cls-3" x1="103.81" y1="139.64" x2="104.91" y2="139.64"/><path class="cls-3" d="M102.12,110.64v30.6l-.54,2.37-2.91,0H94.93l-5.28,0H86.06l-3.55,0,.3-2.71a69.44,69.44,0,0,0,8-6.23c3.34-3,6.72-6.87,7.92-10.63,0-.1.07-.2.1-.3.36-1.24.7-2.42,1-3.55C100.85,116.28,101.6,113.11,102.12,110.64Z"/><path class="cls-3" d="M130.47,143.75l-7,0-5.73,0h-6.24l-.5-2.42L111,122.66l0-11.58c.51,2.44,1.25,5.55,2.26,9.27.3,1.13.64,2.31,1,3.55,0,.1.06.2.1.3a17.92,17.92,0,0,0,3,5.32,41.59,41.59,0,0,0,5,5.31,69.44,69.44,0,0,0,8,6.23Z"/><path class="cls-3" d="M130.47,143.75v0l-3.55,0h-3.59l-5.27,0h-3.75l-2.91,0-.53-2.37V110.9a1.16,1.16,0,0,0,0,.18l0,11.58.09,18.58.5,2.42h6.24l5.73,0Z"/><path class="cls-6" d="M54.23,111.34s10.06-11,14.71,4.26"/><path class="cls-6" d="M63.78,130.83c.51-.91,13.16-4,2.71-15.87"/><path class="cls-6" d="M68.94,129.54s12.77,12.38,4,27.22"/><path class="cls-6" d="M67.78,154.44s10.58,5.29,6.84,13.68"/><path class="cls-6" d="M76.55,166.31s15.74-4.9,19.74,12.26"/><path class="cls-6" d="M116.55,173.67c-.38,0-7.65-9.31-21.76.44"/><path class="cls-6" d="M118.1,171.88s1.29-8.81,13.42-2.22"/><path class="cls-6" d="M132.68,175.73s.39-23,18.58-20.26"/><path class="cls-6" d="M146.49,154.44s-9.94-6.58-4.52-16.52"/><path class="cls-6" d="M140.35,120.51s-10.89,14.32,6.14,18.06"/><path class="cls-6" d="M142,127.73s-5.55-17.16,9.94-21.42"/><path class="cls-6" d="M154.87,97.8s-12.38-8.16-7,9.72"/><path class="cls-7" d="M44.54,163.19s51.87-269.42,130.45,0"/><path class="cls-7" d="M44.07,155.81s51.88-269.42,130.46,0"/><text class="cls-8" transform="translate(78.42 189.86)">NA<tspan class="cls-9" x="31.96" y="0">S</tspan><tspan x="45.72" y="0">A</tspan></text><path class="cls-7" d="M43.72,139.77s51.88-269.42,130.46,0"/></svg>