<svg id="Layer_1" data-name="Layer 1" xmlns="http://www.w3.org/2000/svg" xmlns:xlink="http://www.w3.org/1999/xlink" viewBox="0 0 216 216"><defs><style>.cls-1{fill:none;}.cls-2{clip-path:url(#clip-path);}.cls-3{fill:#8dc73f;stroke:#231f20;stroke-linecap:round;stroke-linejoin:round;}.cls-4{font-size:10px;font-family:AkkoRoundedStd-Bold, Akko Rounded Std;font-weight:700;letter-spacing:0.2em;}.cls-4,.cls-6{fill:#231f20;}.cls-5{letter-spacing:0.46em;}.cls-6{font-size:8px;font-family:ErasITC-Light, Eras Light ITC;font-weight:300;}</style><clipPath id="clip-path"><rect class="cls-1" width="216" height="216"/></clipPath></defs><title>urideLogo</title><g class="cls-2"><path class="cls-3" d="M121.15,74.64v40.51a4.11,4.11,0,0,1-4.08,4.08h-44A4.09,4.09,0,0,1,69,115.15V96.78H65L69,89.72l2-3.4,6-10.46,6,10.46,2,3.39,4.08,7.07H85v2.37a4.1,4.1,0,0,0,4.08,4.08h12a4.09,4.09,0,0,0,4.08-4.08V74.64a4.1,4.1,0,0,1,4.08-4.09h7.84A4.09,4.09,0,0,1,121.15,74.64Z"/><path class="cls-3" d="M151.05,79.49l-6.27,3.63h0l-1.46.84-2.51,1.45-5.23,3v-3.2a20,20,0,0,0-10.15,6q0-6.72.11-13.45a16.8,16.8,0,0,1,4.39-2.72,21.54,21.54,0,0,1,2.65-.88,25.46,25.46,0,0,1,3-.64h0v-3l3.43,2,1.8,1L143.31,75Z"/><text class="cls-4" transform="translate(66.98 134.56)">U - <tspan class="cls-5" x="22.12" y="0">RIDE</tspan></text><text class="cls-6" transform="translate(99.89 143.39)">we pick you up</text></g></svg>