<?xml version="1.0" encoding="utf-8"?>
<!-- Generator: Adobe Illustrator 24.0.2, SVG Export Plug-In . SVG Version: 6.00 Build 0)  -->
<svg version="1.1" id="Layer_1" xmlns="http://www.w3.org/2000/svg" xmlns:xlink="http://www.w3.org/1999/xlink" x="0px" y="0px"
	 viewBox="0 0 216 216" style="enable-background:new 0 0 216 216;" xml:space="preserve">
<style type="text/css">
	.st0{fill:none;}
	.st1{fill:#8DC73F;stroke:#231F20;stroke-linecap:round;stroke-linejoin:round;}
	.st2{enable-background:new    ;}
	.st3{fill:#231F20;}
</style>
<title>urideLogo</title>
<rect class="st0" width="216" height="216"/>
<path class="st1" d="M121.2,74.6v40.5c0,2.2-1.8,4.1-4.1,4.1h-44c-2.2,0-4.1-1.8-4.1-4.1V96.8h-4l4-7.1l2-3.4l6-10.5l6,10.5l2,3.4
	l4.1,7.1H85v2.4c0,2.2,1.8,4.1,4.1,4.1h12c2.3,0,4.1-1.8,4.1-4.1V74.6c0-2.3,1.8-4.1,4.1-4.1h7.8C119.3,70.6,121.2,72.4,121.2,74.6z
	"/>
<path class="st1" d="M151.1,79.5l-6.3,3.6l0,0l-1.5,0.8l-2.5,1.4l-5.2,3v-3.2c-3.9,0.9-7.4,3-10.2,6c0-4.5,0-9,0.1-13.4
	c1.3-1.1,2.8-2,4.4-2.7c0.9-0.4,1.7-0.6,2.6-0.9c1-0.3,2-0.5,3-0.6l0,0v-3l3.4,2l1.8,1l2.5,1.5L151.1,79.5z"/>
<g class="st2">
	<path class="st3" d="M71,128.2c0-0.4,0.5-0.4,0.9-0.4c0.4,0,0.9,0.1,0.9,0.4v4.9c0,1.2-1.2,1.7-2.6,1.7c-1.6,0-2.6-0.5-2.6-1.7
		v-4.8c0-0.4,0.5-0.4,0.9-0.4s0.9,0.1,0.9,0.4v4.3c0,0.6,0.3,0.8,0.8,0.8c0.5,0,0.8-0.1,0.8-0.8V128.2z"/>
	<path class="st3" d="M80.1,132.2c-0.2,0-0.3-0.2-0.3-0.7c0-0.4,0.1-0.7,0.3-0.7h2.3c0.2,0,0.3,0.3,0.3,0.7c0,0.4-0.1,0.7-0.3,0.7
		H80.1z"/>
</g>
<g class="st2">
	<path class="st3" d="M91.6,134.2c0,0.3-0.5,0.4-0.9,0.4c-0.4,0-0.9-0.1-0.9-0.4v-5.7c0-0.5,0.3-0.8,0.9-0.8h1.9
		c1.4,0,2.2,0.6,2.2,1.8c0,0.8-0.2,1.2-0.7,1.6c-0.2,0.1-0.2,0.2-0.2,0.4c0,0.1,0.1,0.3,0.1,0.4l0.9,1.7c0,0.1,0.1,0.2,0.1,0.3
		c0,0.5-0.7,0.6-1.1,0.6c-0.4,0-0.6-0.1-0.7-0.3l-0.8-1.7c-0.2-0.4-0.3-0.5-0.5-0.5c-0.2,0-0.3,0.1-0.3,0.3V134.2z M91.6,130.6
		c0,0.3,0.1,0.4,0.4,0.4c0.6,0,0.9-0.2,0.9-1c0-0.7-0.2-0.9-0.8-0.9c-0.5,0-0.5,0.1-0.5,0.4V130.6z"/>
	<path class="st3" d="M102.2,134.2c0,0.3-0.5,0.4-0.9,0.4c-0.4,0-0.9-0.1-0.9-0.4v-6.1c0-0.3,0.5-0.4,0.9-0.4c0.4,0,0.9,0.1,0.9,0.4
		V134.2z"/>
	<path class="st3" d="M109,134.6c-0.6,0-0.9-0.3-0.9-0.8v-5.3c0-0.5,0.3-0.8,0.9-0.8h1.8c2.2,0,2.6,1.7,2.6,3.4s-0.4,3.4-2.6,3.4
		H109z M110.6,129.2h-0.2c-0.4,0-0.4,0-0.4,0.4v3.3c0,0.3,0.1,0.4,0.4,0.4h0.2c0.8,0,1-0.5,1-2C111.6,129.6,111.4,129.2,110.6,129.2
		z"/>
	<path class="st3" d="M121.3,129.2c-0.2,0-0.3,0.1-0.3,0.3v0.7c0,0.2,0,0.3,0.3,0.3h1.3c0.3,0,0.4,0.4,0.4,0.7
		c0,0.2-0.1,0.7-0.4,0.7h-1.3c-0.2,0-0.3,0-0.3,0.3v0.7c0,0.2,0,0.3,0.3,0.3h1.6c0.3,0,0.4,0.4,0.4,0.7c0,0.3-0.1,0.8-0.4,0.8h-2.7
		c-0.6,0-0.9-0.3-0.9-0.8v-5.3c0-0.5,0.3-0.8,0.9-0.8h2.6c0.3,0,0.4,0.4,0.4,0.7c0,0.3-0.1,0.7-0.4,0.7H121.3z"/>
</g>
<g>
	<path d="M102.1,145.1l-0.2-0.6l-1.4-3.8c0.1,0,0.1,0,0.2,0c0,0,0.1,0,0.2,0l0.2,0.5l0.7,1.9l0.5,1.3c0,0.1,0.1,0.3,0.2,0.4l0.4-1.1
		l1.2-3.1c0.1,0,0.1,0,0.2,0c0.1,0,0.1,0,0.2,0l1.2,4.2c0.7-1.6,1.4-3,1.8-4.2c0.1,0,0.1,0,0.2,0s0.1,0,0.2,0l-1.7,3.8l-0.3,0.7
		c-0.1,0-0.2,0-0.2,0c-0.1,0-0.1,0-0.2,0l-0.2-0.8l-0.8-2.8c0-0.1-0.1-0.2-0.1-0.5l-0.1,0.4l-1.3,3.4c0,0-0.1,0.2-0.1,0.3
		c-0.1,0-0.2,0-0.3,0C102.3,145.1,102.2,145.1,102.1,145.1z"/>
	<path d="M111.5,144.7c0,0.1,0,0.2-0.1,0.3c-0.2,0.1-0.5,0.1-0.7,0.1c-0.2,0-0.4,0-0.6,0c-0.4,0-0.7,0-0.9-0.1
		c-0.3-0.1-0.5-0.3-0.7-0.5c-0.2-0.2-0.3-0.5-0.4-0.7c-0.1-0.3-0.1-0.6-0.1-0.9c0-0.4,0.1-0.8,0.2-1.1s0.4-0.7,0.7-0.9
		c0.3-0.2,0.7-0.4,1.2-0.4c0.3,0,0.6,0.1,0.9,0.2c0.3,0.1,0.5,0.3,0.6,0.6c0.1,0.3,0.2,0.6,0.2,1c0,0.1,0,0.1,0,0.2l-3.5,0
		c0,0.2,0,0.3,0,0.4c0,0.3,0,0.5,0.1,0.8c0.1,0.3,0.2,0.5,0.4,0.7s0.4,0.3,0.6,0.4c0.2,0.1,0.5,0.1,0.7,0.1
		C110.6,145,111,144.9,111.5,144.7z M108.5,142.3l3.1,0c0-0.2,0-0.4,0-0.5s-0.1-0.2-0.1-0.3s-0.1-0.2-0.2-0.3
		c-0.1-0.1-0.2-0.2-0.3-0.2c-0.1-0.1-0.2-0.1-0.3-0.1s-0.3,0-0.4,0c-0.2,0-0.3,0-0.5,0.1s-0.3,0.1-0.4,0.1s-0.2,0.1-0.3,0.2
		c-0.1,0.1-0.2,0.2-0.3,0.3c-0.1,0.1-0.1,0.2-0.2,0.3C108.5,142,108.5,142.1,108.5,142.3z"/>
	<path d="M114.9,147.1l0.1-0.9l0.1-4l0-1.3c0.4-0.1,0.7-0.2,1-0.2s0.6-0.1,0.8-0.1c0.4,0,0.8,0.1,1.1,0.2c0.3,0.1,0.6,0.4,0.7,0.7
		s0.3,0.8,0.3,1.2c0,0.5-0.1,0.9-0.3,1.3c-0.2,0.4-0.4,0.7-0.7,0.9c-0.3,0.2-0.7,0.3-1,0.3c-0.2,0-0.3,0-0.5-0.1
		c-0.2,0-0.3-0.1-0.5-0.2c-0.1-0.1-0.3-0.2-0.4-0.3c-0.1-0.1-0.2-0.3-0.3-0.5l-0.1,2.3v0.1c0,0.1,0,0.2,0,0.4c-0.1,0-0.1,0-0.2,0
		S115,147.1,114.9,147.1z M115.5,141.1c0,0.2,0,0.6-0.1,1.1c0,0.5,0,0.8,0,0.9c0,0.3,0,0.5,0.1,0.7c0.1,0.2,0.2,0.4,0.3,0.6
		c0.2,0.2,0.3,0.3,0.6,0.4s0.4,0.1,0.7,0.1c0.3,0,0.6-0.1,0.9-0.3c0.3-0.2,0.5-0.4,0.6-0.8c0.1-0.4,0.2-0.7,0.2-1.1
		c0-0.4-0.1-0.8-0.2-1.1c-0.1-0.3-0.4-0.5-0.6-0.7c-0.3-0.1-0.5-0.2-0.9-0.2C116.5,140.8,116,140.9,115.5,141.1z"/>
	<path d="M120.1,145.1c0-0.4,0.1-1.2,0.1-2.3c0-1.1,0.1-1.8,0.1-2.1c0.1,0,0.1,0,0.2,0c0,0,0.1,0,0.2,0c0,0.6-0.1,1.3-0.1,2.3
		c0,1-0.1,1.7-0.1,2.2c-0.1,0-0.1,0-0.2,0S120.1,145.1,120.1,145.1z M120.2,139.6l0-0.4c0.1,0,0.1,0,0.2,0s0.2,0,0.2,0l0,0.4
		c-0.1,0-0.1,0-0.2,0S120.3,139.5,120.2,139.6z"/>
	<path d="M124.8,144.8c0,0.1,0,0.2-0.1,0.3c-0.4,0.1-0.7,0.1-1,0.1c-0.3,0-0.6,0-0.9-0.1c-0.3-0.1-0.5-0.2-0.7-0.4
		c-0.2-0.2-0.3-0.4-0.4-0.7c-0.1-0.3-0.1-0.6-0.1-0.9c0-0.4,0.1-0.8,0.2-1.2c0.1-0.4,0.4-0.7,0.7-0.9c0.3-0.2,0.7-0.3,1.3-0.3
		c0.4,0,0.8,0.1,1.1,0.2c0,0.1,0,0.2,0,0.3c-0.3-0.1-0.5-0.2-0.7-0.2c-0.2,0-0.3,0-0.5,0c-0.3,0-0.6,0.1-0.8,0.2
		c-0.2,0.1-0.4,0.3-0.6,0.5c-0.2,0.2-0.3,0.5-0.3,0.7c-0.1,0.3-0.1,0.5-0.1,0.8c0,0.3,0,0.6,0.1,0.8c0.1,0.3,0.2,0.5,0.4,0.6
		s0.4,0.3,0.6,0.4s0.5,0.1,0.7,0.1c0.1,0,0.3,0,0.5,0C124.3,144.9,124.5,144.8,124.8,144.8z"/>
	<path d="M125.8,145.1c0-0.6,0.1-1.3,0.1-2l0.1-2.2c0-0.8,0-1.3,0-1.8c0.1,0,0.1,0,0.2,0s0.1,0,0.2,0l-0.1,0.9l-0.1,4.2l0,1
		c-0.1,0-0.1,0-0.2,0C126,145.1,125.9,145.1,125.8,145.1z M126.3,142.6l1.2-1.1l0.4-0.4c0.1-0.1,0.1-0.1,0.2-0.2
		c0.1-0.1,0.1-0.2,0.3-0.3c0.1,0,0.1,0,0.2,0s0.2,0,0.2,0l-1.5,1.5c-0.1,0.1-0.3,0.3-0.5,0.5l1.6,1.7l0.7,0.7c-0.1,0-0.1,0-0.2,0
		c-0.1,0-0.2,0-0.2,0l-0.9-1L126.3,142.6z"/>
	<path d="M130.9,147.2c0-0.1,0-0.2,0-0.3c0.1,0,0.2,0.1,0.2,0.1c0.1,0,0.1,0,0.2,0c0.1,0,0.2,0,0.2,0c0.2,0,0.3,0,0.5-0.1
		c0.1-0.1,0.3-0.3,0.4-0.5c0.1-0.3,0.3-0.6,0.5-1.1l-1-2.7l-0.7-1.9c0.1,0,0.2,0,0.2,0s0.1,0,0.2,0l0.1,0.3c0,0.1,0.1,0.2,0.1,0.4
		c0.1,0.2,0.1,0.4,0.2,0.7l1,2.9l1.4-3.1c0.1-0.3,0.2-0.5,0.3-0.6s0.1-0.3,0.2-0.5c0.1,0,0.2,0,0.2,0c0,0,0.1,0,0.2,0
		c-0.1,0.3-0.4,0.9-0.8,1.7l-0.9,1.8l-0.8,1.8c-0.1,0.3-0.2,0.5-0.3,0.6c-0.1,0.1-0.2,0.2-0.2,0.3c-0.1,0.1-0.1,0.1-0.2,0.1
		c-0.1,0-0.2,0.1-0.3,0.1c-0.1,0-0.2,0-0.4,0C131.3,147.2,131.1,147.2,130.9,147.2z"/>
	<path d="M137.9,140.6c0.3,0,0.5,0,0.8,0.1c0.3,0.1,0.5,0.2,0.7,0.4c0.2,0.2,0.3,0.4,0.4,0.7s0.2,0.6,0.2,0.9c0,0.4-0.1,0.7-0.2,1
		s-0.3,0.6-0.5,0.8c-0.2,0.2-0.4,0.4-0.7,0.5c-0.3,0.1-0.6,0.1-0.9,0.1c-0.2,0-0.4,0-0.6-0.1c-0.2,0-0.4-0.1-0.6-0.2
		c-0.2-0.1-0.3-0.3-0.5-0.4c-0.1-0.2-0.2-0.4-0.3-0.6c-0.1-0.2-0.1-0.5-0.1-0.8c0-0.5,0.1-0.9,0.3-1.3c0.2-0.4,0.4-0.7,0.8-0.9
		C137.1,140.7,137.5,140.6,137.9,140.6z M137.9,140.8c-0.3,0-0.7,0.1-1,0.3s-0.5,0.4-0.7,0.8s-0.2,0.7-0.2,1.1c0,0.3,0,0.6,0.1,0.8
		c0.1,0.3,0.2,0.5,0.4,0.7c0.2,0.2,0.4,0.3,0.6,0.4c0.2,0.1,0.4,0.1,0.7,0.1c0.3,0,0.5,0,0.7-0.1s0.4-0.2,0.6-0.4
		c0.2-0.2,0.3-0.4,0.4-0.7s0.1-0.6,0.1-0.9c0-0.3,0-0.6-0.1-0.8c-0.1-0.3-0.2-0.5-0.4-0.6c-0.2-0.2-0.4-0.3-0.6-0.3
		C138.3,140.9,138.1,140.8,137.9,140.8z"/>
	<path d="M144.7,145.1c-0.1,0-0.1,0-0.2,0s-0.1,0-0.2,0l0-1c-0.1,0.1-0.1,0.3-0.2,0.3c0,0.1-0.1,0.1-0.2,0.2s-0.2,0.1-0.3,0.2
		c-0.1,0.1-0.2,0.1-0.4,0.2s-0.3,0.1-0.4,0.1c-0.1,0-0.3,0-0.4,0c-0.3,0-0.5,0-0.7-0.1c-0.2-0.1-0.4-0.2-0.6-0.3
		c-0.2-0.1-0.3-0.3-0.3-0.5c-0.1-0.2-0.1-0.4-0.1-0.6c0-0.2,0-0.6,0.1-1.3c0-0.7,0.1-1.3,0.1-1.7c0.1,0,0.1,0,0.2,0s0.1,0,0.2,0
		c0,0.3-0.1,0.8-0.1,1.6c0,0.8-0.1,1.3-0.1,1.5c0,0.2,0,0.4,0.1,0.6s0.2,0.3,0.3,0.4c0.1,0.1,0.3,0.2,0.5,0.2c0.2,0,0.4,0.1,0.6,0.1
		c0.2,0,0.4,0,0.6-0.1c0.2-0.1,0.3-0.1,0.5-0.2s0.2-0.2,0.3-0.3c0.1-0.1,0.2-0.3,0.3-0.4c0.1-0.1,0.1-0.3,0.1-0.6
		c0-0.2,0.1-0.6,0.1-1.2c0-0.6,0-1.1,0-1.5c0.1,0,0.1,0,0.2,0s0.1,0,0.2,0l-0.2,3.1l0,0.7C144.7,144.7,144.7,144.9,144.7,145.1z"/>
	<path d="M152.1,145.1c-0.1,0-0.1,0-0.2,0s-0.1,0-0.2,0l0-1c-0.1,0.1-0.1,0.3-0.2,0.3c0,0.1-0.1,0.1-0.2,0.2s-0.2,0.1-0.3,0.2
		c-0.1,0.1-0.2,0.1-0.4,0.2s-0.3,0.1-0.4,0.1c-0.1,0-0.3,0-0.4,0c-0.3,0-0.5,0-0.7-0.1c-0.2-0.1-0.4-0.2-0.6-0.3
		c-0.2-0.1-0.3-0.3-0.3-0.5c-0.1-0.2-0.1-0.4-0.1-0.6c0-0.2,0-0.6,0.1-1.3c0-0.7,0.1-1.3,0.1-1.7c0.1,0,0.1,0,0.2,0s0.1,0,0.2,0
		c0,0.3-0.1,0.8-0.1,1.6c0,0.8-0.1,1.3-0.1,1.5c0,0.2,0,0.4,0.1,0.6s0.2,0.3,0.3,0.4c0.1,0.1,0.3,0.2,0.5,0.2c0.2,0,0.4,0.1,0.6,0.1
		c0.2,0,0.4,0,0.6-0.1c0.2-0.1,0.3-0.1,0.5-0.2s0.2-0.2,0.3-0.3c0.1-0.1,0.2-0.3,0.3-0.4c0.1-0.1,0.1-0.3,0.1-0.6
		c0-0.2,0.1-0.6,0.1-1.2c0-0.6,0-1.1,0-1.5c0.1,0,0.1,0,0.2,0s0.1,0,0.2,0l-0.2,3.1l0,0.7C152.1,144.7,152.1,144.9,152.1,145.1z"/>
	<path d="M153.3,147.1l0.1-0.9l0.1-4l0-1.3c0.4-0.1,0.7-0.2,1-0.2s0.6-0.1,0.8-0.1c0.4,0,0.8,0.1,1.1,0.2c0.3,0.1,0.6,0.4,0.7,0.7
		s0.3,0.8,0.3,1.2c0,0.5-0.1,0.9-0.3,1.3c-0.2,0.4-0.4,0.7-0.7,0.9c-0.3,0.2-0.7,0.3-1,0.3c-0.2,0-0.3,0-0.5-0.1
		c-0.2,0-0.3-0.1-0.5-0.2c-0.1-0.1-0.3-0.2-0.4-0.3c-0.1-0.1-0.2-0.3-0.3-0.5l-0.1,2.3v0.1c0,0.1,0,0.2,0,0.4c-0.1,0-0.1,0-0.2,0
		S153.4,147.1,153.3,147.1z M153.9,141.1c0,0.2,0,0.6-0.1,1.1c0,0.5,0,0.8,0,0.9c0,0.3,0,0.5,0.1,0.7c0.1,0.2,0.2,0.4,0.3,0.6
		c0.2,0.2,0.3,0.3,0.6,0.4s0.4,0.1,0.7,0.1c0.3,0,0.6-0.1,0.9-0.3c0.3-0.2,0.5-0.4,0.6-0.8c0.1-0.4,0.2-0.7,0.2-1.1
		c0-0.4-0.1-0.8-0.2-1.1c-0.1-0.3-0.4-0.5-0.6-0.7c-0.3-0.1-0.5-0.2-0.9-0.2C154.9,140.8,154.4,140.9,153.9,141.1z"/>
</g>
</svg>
