<?xml version="1.0" encoding="utf-8"?>
<!-- Generator: Adobe Illustrator 24.1.1, SVG Export Plug-In . SVG Version: 6.00 Build 0)  -->
<svg version="1.1" id="Layer_1" xmlns="http://www.w3.org/2000/svg" xmlns:xlink="http://www.w3.org/1999/xlink" x="0px" y="0px"
	 viewBox="0 0 216 216" style="enable-background:new 0 0 216 216;" xml:space="preserve">
<style type="text/css">
	.st0{fill:none;}
	.st1{fill:#8DC73F;stroke:#231F20;stroke-width:1.8774;stroke-linecap:round;stroke-linejoin:round;}
	.st2{enable-background:new    ;}
	.st3{fill:#231F20;}
</style>
<rect class="st0" width="216" height="216"/>
<path class="st1" d="M128.4,44.5v76c0,4.1-3.4,7.7-7.7,7.7H38.1c-4.1,0-7.7-3.4-7.7-7.7V86.2h-7.5l7.5-13.3l3.8-6.4l11.3-19.7
	l11.3,19.7l3.8,6.4l7.7,13.3h-7.7v4.5c0,4.1,3.4,7.7,7.7,7.7h22.5c4.3,0,7.7-3.4,7.7-7.7V44.5c0-4.3,3.4-7.7,7.7-7.7h14.6
	C124.9,37,128.4,40.4,128.4,44.5z"/>
<path class="st1" d="M184.6,53.7l-11.8,6.8l0,0l-2.8,1.5l-4.7,2.6l-9.8,5.6v-6c-7.3,1.7-13.9,5.6-19.1,11.3c0-8.4,0-16.9,0.2-25.2
	c2.4-2.1,5.3-3.8,8.3-5.1c1.7-0.8,3.2-1.1,4.9-1.7c1.9-0.6,3.8-0.9,5.6-1.1l0,0v-5.6l6.4,3.8l3.4,1.9l4.7,2.8L184.6,53.7z"/>
<g class="st2">
	<path class="st3" d="M34.2,145.2c0-0.8,0.9-0.8,1.7-0.8s1.7,0.2,1.7,0.8v9.2c0,2.3-2.3,3.2-4.9,3.2c-3,0-4.9-0.9-4.9-3.2v-9
		c0-0.8,0.9-0.8,1.7-0.8s1.7,0.2,1.7,0.8v8.1c0,1.1,0.6,1.5,1.5,1.5c0.9,0,1.5-0.2,1.5-1.5L34.2,145.2L34.2,145.2z"/>
	<path class="st3" d="M51.3,152.7c-0.4,0-0.6-0.4-0.6-1.3c0-0.8,0.2-1.3,0.6-1.3h4.3c0.4,0,0.6,0.6,0.6,1.3c0,0.8-0.2,1.3-0.6,1.3
		H51.3z"/>
</g>
<g class="st2">
	<path class="st3" d="M72.9,156.4c0,0.6-0.9,0.8-1.7,0.8c-0.8,0-1.7-0.2-1.7-0.8v-10.7c0-0.9,0.6-1.5,1.7-1.5h3.6
		c2.6,0,4.1,1.1,4.1,3.4c0,1.5-0.4,2.3-1.3,3c-0.4,0.2-0.4,0.4-0.4,0.8c0,0.2,0.2,0.6,0.2,0.8l1.7,3.2c0,0.2,0.2,0.4,0.2,0.6
		c0,0.9-1.3,1.1-2.1,1.1c-0.8,0-1.1-0.2-1.3-0.6l-1.5-3.2c-0.4-0.8-0.6-0.9-0.9-0.9c-0.4,0-0.6,0.2-0.6,0.6V156.4z M72.9,149.7
		c0,0.6,0.2,0.8,0.8,0.8c1.1,0,1.7-0.4,1.7-1.9c0-1.3-0.4-1.7-1.5-1.7c-0.9,0-0.9,0.2-0.9,0.8V149.7z"/>
	<path class="st3" d="M92.8,156.4c0,0.6-0.9,0.8-1.7,0.8c-0.8,0-1.7-0.2-1.7-0.8V145c0-0.6,0.9-0.8,1.7-0.8c0.8,0,1.7,0.2,1.7,0.8
		V156.4z"/>
	<path class="st3" d="M105.5,157.2c-1.1,0-1.7-0.6-1.7-1.5v-10c0-0.9,0.6-1.5,1.7-1.5h3.4c4.1,0,4.9,3.2,4.9,6.4s-0.8,6.4-4.9,6.4
		h-3.4V157.2z M108.5,147.1h-0.4c-0.8,0-0.8,0-0.8,0.8v6.2c0,0.6,0.2,0.8,0.8,0.8h0.4c1.5,0,1.9-0.9,1.9-3.8
		C110.4,147.8,110,147.1,108.5,147.1z"/>
	<path class="st3" d="M128.6,147.1c-0.4,0-0.6,0.2-0.6,0.6v1.3c0,0.4,0,0.6,0.6,0.6h2.4c0.6,0,0.8,0.8,0.8,1.3
		c0,0.4-0.2,1.3-0.8,1.3h-2.4c-0.4,0-0.6,0-0.6,0.6v1.3c0,0.4,0,0.6,0.6,0.6h3c0.6,0,0.8,0.8,0.8,1.3c0,0.6-0.2,1.5-0.8,1.5h-5.1
		c-1.1,0-1.7-0.6-1.7-1.5v-10c0-0.9,0.6-1.5,1.7-1.5h4.9c0.6,0,0.8,0.8,0.8,1.3c0,0.6-0.2,1.3-0.8,1.3L128.6,147.1L128.6,147.1z"/>
</g>
<g>
	<path d="M92.6,176.9l-0.4-1.1l-2.6-7.1c0.4,0,0.6,0,0.8,0c0.2,0,0.4,0,0.8,0l0.8,2.3l1.7,4.9l2.6-7.1c0.4,0,0.6,0,0.8,0
		c0.2,0,0.6,0,0.8,0l1.9,7.1l2.3-5.4l0.6-1.7c0.4,0,0.6,0,0.8,0h0.8l-2.8,6.2l-0.9,2.1c-0.2,0-0.6,0-0.8,0c-0.2,0-0.6,0-0.8,0
		l-1.5-5.8c-0.2-0.4-0.2-0.8-0.4-1.1l-0.2,0.4c0,0.2-0.2,0.4-0.4,0.9l-1.7,4.7c0,0.2-0.2,0.6-0.4,0.8c-0.2,0-0.6,0-0.8,0
		C93.1,176.9,92.8,176.9,92.6,176.9z"/>
	<path d="M111.4,175.6c0,0.4-0.2,0.8-0.2,1.1c-0.6,0.2-0.9,0.2-1.3,0.2s-0.8,0-1.1,0c-0.8,0-1.3,0-1.9-0.2s-0.9-0.4-1.3-0.9
		c-0.4-0.4-0.8-0.9-0.8-1.5c0-0.6-0.2-1.1-0.2-1.7c0-0.8,0.2-1.5,0.6-2.3c0.4-0.8,0.8-1.3,1.5-1.7c0.6-0.4,1.5-0.6,2.4-0.6
		c0.6,0,0.9,0,1.5,0.2c0.4,0.2,0.8,0.4,1.1,0.8c0.4,0.4,0.6,0.8,0.8,1.1c0.2,0.4,0.2,0.9,0.2,1.5c0,0.2,0,0.4,0,0.6h-6.4
		c0,0.4,0,0.6,0,0.8c0,0.6,0.2,1.1,0.4,1.7c0.2,0.6,0.6,0.9,1.1,1.1c0.6,0.2,0.9,0.4,1.7,0.4C109.5,176.2,110.2,176,111.4,175.6z
		 M105.7,171.7h4.9c0-0.4,0-0.6,0-0.8s-0.2-0.4-0.2-0.6c-0.2-0.2-0.2-0.4-0.4-0.6c-0.2-0.2-0.4-0.2-0.6-0.4c-0.2,0-0.6-0.2-0.8-0.2
		c-0.4,0-0.6,0-0.9,0.2c-0.4,0-0.6,0.2-0.8,0.4c-0.2,0.2-0.4,0.4-0.6,0.6c-0.2,0.2-0.2,0.4-0.4,0.6
		C105.9,171.1,105.9,171.5,105.7,171.7z"/>
	<path d="M117.5,180.7c0.2-1.5,0.2-3.4,0.4-5.8c0.2-2.4,0.2-4.5,0.2-6c0.9-0.2,1.7-0.4,2.3-0.4c0.6,0,1.1-0.2,1.7-0.2
		c0.9,0,1.7,0.2,2.3,0.4c0.6,0.2,1.1,0.8,1.5,1.5c0.4,0.8,0.6,1.5,0.6,2.3c0,0.6,0,1.1-0.2,1.7c-0.2,0.6-0.4,1.1-0.8,1.5
		c-0.4,0.4-0.8,0.8-1.3,0.9c-0.6,0.2-0.9,0.4-1.7,0.4c-0.4,0-0.8,0-0.9-0.2c-0.4,0-0.6-0.2-0.9-0.4c-0.2-0.2-0.4-0.4-0.6-0.4
		c-0.2-0.2-0.4-0.4-0.6-0.8l-0.2,3.2c0,0.6,0,0.9,0,1.1v0.8c-0.2,0-0.6,0-0.8,0C118.1,180.7,117.7,180.7,117.5,180.7z M119.4,169.8
		v0.6v0.9c0,0.4,0,0.8,0,1.1c0,0.4,0,0.6,0,0.6c0,0.4,0,0.8,0.2,1.1c0,0.4,0.2,0.8,0.6,0.9c0.2,0.4,0.6,0.6,0.9,0.8
		c0.4,0.2,0.8,0.2,1.1,0.2c0.6,0,0.9-0.2,1.3-0.4c0.4-0.4,0.8-0.8,0.9-1.3c0.2-0.6,0.4-1.1,0.4-1.9c0-0.8-0.2-1.3-0.4-1.7
		c-0.2-0.4-0.6-0.8-0.9-1.1c-0.4-0.2-0.9-0.4-1.5-0.4C121.1,169.4,120.2,169.6,119.4,169.8z"/>
	<path d="M127.7,176.9l0.2-2.1l0.2-3.6v-2.8h0.8h0.8c0,0.9-0.2,1.7-0.2,2.6s0,1.9-0.2,3c-0.2,1.1,0,2.1,0,2.6c-0.4,0-0.6,0-0.8,0
		C128.3,176.9,128.1,176.9,127.7,176.9z M128.1,166.8c0-0.6,0-0.9,0-1.1c0.4,0,0.6,0,0.8,0c0.4,0,0.6,0,0.8,0c0,0.2,0,0.6,0,1.1
		c-0.4,0-0.6,0-0.8,0S128.4,166.8,128.1,166.8z"/>
	<path d="M137.6,175.6c0,0,0,0.2,0,0.6c0,0.2,0,0.6-0.2,0.8c-0.4,0-0.8,0.2-1.1,0.2c-0.4,0-0.8,0-0.9,0c-0.6,0-1.1,0-1.7-0.2
		c-0.6-0.2-0.9-0.4-1.3-0.8c-0.4-0.4-0.6-0.8-0.8-1.3c-0.2-0.6-0.2-1.1-0.2-1.7c0-0.8,0.2-1.5,0.4-2.3c0.4-0.8,0.8-1.3,1.3-1.7
		s1.5-0.6,2.4-0.6c0.8,0,1.5,0.2,2.3,0.4c0,0.4,0,0.9,0,1.1c-0.6-0.2-0.9-0.2-1.3-0.4c-0.4,0-0.6,0-0.9,0c-0.6,0-0.9,0-1.3,0.2
		c-0.4,0.2-0.8,0.4-0.9,0.8c-0.2,0.4-0.4,0.8-0.6,1.1c-0.2,0.4-0.2,0.9-0.2,1.3c0,0.6,0.2,1.1,0.4,1.7c0.2,0.6,0.6,0.8,0.9,1.1
		c0.6,0.2,0.9,0.4,1.7,0.4C136.1,176.2,136.9,176,137.6,175.6z"/>
	<path d="M139.5,176.9l0.2-2.3l0.2-4.3v-3.6c0-0.6,0-0.9,0-1.1h0.8c0.2,0,0.4,0,0.8,0c0,0.9-0.2,2.6-0.2,5.1
		c-0.2,2.6-0.2,4.5-0.2,6.2c-0.4,0-0.6,0-0.8,0C140.1,176.9,139.7,176.9,139.5,176.9z M141.2,172.2l1.7-1.9c0.6-0.6,1.1-1.3,1.7-1.9
		c0.4,0,0.6,0,0.8,0c0.2,0,0.6,0,0.9,0l-3.6,3.8c0.8,0.9,1.9,2.4,3.9,4.7c-0.4,0-0.6,0-0.8,0s-0.6,0-0.9,0l-1.1-1.7
		c-0.2-0.2-0.4-0.4-0.8-0.9l-1.3-1.5L141.2,172.2z"/>
	<path d="M150.4,180.7c0-0.4,0-0.9-0.2-1.1c0.2,0.2,0.6,0.2,0.8,0.2c0.2,0,0.4,0,0.6,0s0.4,0,0.6-0.2c0.2-0.2,0.4-0.2,0.6-0.4
		c0.2-0.2,0.2-0.4,0.4-0.6c0.2-0.2,0.4-0.6,0.4-0.8c0.2-0.4,0.4-0.6,0.4-0.9l-1.7-5.1l-1.3-3.6c0.4,0,0.8,0,0.8,0c0.2,0,0.4,0,0.8,0
		c0,0.4,0.2,0.8,0.2,0.9s0.2,0.6,0.4,1.3l1.3,3.8c0.2,0.4,0.2,0.9,0.4,1.3l0.9-2.3l1.7-3.9c0-0.2,0.2-0.2,0.2-0.4
		c0-0.2,0.2-0.4,0.2-0.6c0.4,0,0.6,0,0.8,0c0.2,0,0.4,0,0.8,0c-0.2,0.6-0.8,1.7-1.5,3.4l-3,6.8c-0.2,0.4-0.4,0.8-0.6,1.1
		c-0.2,0.2-0.4,0.4-0.4,0.6c-0.2,0.2-0.2,0.2-0.4,0.4c-0.2,0.2-0.4,0.2-0.8,0.2c-0.2,0-0.6,0-0.8,0
		C151.3,180.8,150.8,180.8,150.4,180.7z"/>
	<path d="M164.1,168.5c0.6,0,1.1,0,1.7,0.2c0.6,0.2,0.9,0.4,1.3,0.8c0.4,0.4,0.8,0.8,0.9,1.3c0.2,0.6,0.4,1.1,0.4,1.7
		c0,0.6-0.2,1.3-0.4,1.9c-0.2,0.6-0.6,1.1-0.9,1.5c-0.4,0.4-0.9,0.8-1.3,0.9c-0.6,0.2-1.1,0.4-1.7,0.4c-0.6,0-1.1,0-1.7-0.2
		c-0.6-0.2-0.9-0.4-1.3-0.8c-0.4-0.4-0.8-0.8-0.9-1.3c-0.2-0.6-0.4-1.1-0.4-1.7c0-0.9,0.2-1.7,0.6-2.4c0.4-0.8,0.9-1.3,1.7-1.7
		C162.6,168.6,163.4,168.5,164.1,168.5z M164.1,169.4c-0.6,0-1.1,0.2-1.5,0.4c-0.6,0.2-0.8,0.8-1.1,1.3c-0.2,0.6-0.4,1.1-0.4,1.9
		c0,0.6,0,1.1,0.2,1.5s0.6,0.8,0.9,1.1c0.4,0.4,0.9,0.4,1.5,0.4c0.4,0,0.8,0,1.1-0.2c0.4-0.2,0.8-0.4,0.9-0.8
		c0.2-0.4,0.6-0.8,0.6-1.1c0.2-0.6,0.2-0.9,0.2-1.5s0-0.9-0.2-1.3c-0.2-0.4-0.4-0.8-0.6-0.9s-0.6-0.4-0.9-0.6
		C164.9,169.4,164.5,169.4,164.1,169.4z"/>
	<path d="M177.8,176.9c-0.2,0-0.6,0-0.8,0c-0.2,0-0.4,0-0.8,0v-1.5c-0.2,0.2-0.2,0.4-0.4,0.6c-0.2,0.2-0.2,0.2-0.4,0.4
		c-0.2,0.2-0.4,0.2-0.4,0.4c-0.2,0-0.4,0.2-0.6,0.2s-0.4,0.2-0.8,0.2c-0.2,0-0.6,0-0.9,0c-0.8,0-1.3-0.2-1.7-0.4
		c-0.6-0.2-0.8-0.6-1.1-0.9c-0.2-0.4-0.4-0.9-0.4-1.5c0-0.2,0-0.2,0-0.6c0-0.2,0-0.6,0-0.9l0.2-2.8V169c0-0.2,0-0.4,0-0.8h0.8
		c0.2,0,0.4,0,0.8,0c0,0.9-0.2,2.1-0.2,3.2s-0.2,1.9-0.2,2.3c0,0.6,0,0.9,0.2,1.1c0.2,0.4,0.4,0.6,0.8,0.8c0.4,0.2,0.8,0.2,1.3,0.2
		c0.4,0,0.8,0,1.1-0.2c0.4-0.2,0.6-0.4,0.8-0.6c0.2-0.2,0.4-0.6,0.6-0.9c0.2-0.2,0.2-0.6,0.2-1.1c0-0.4,0-0.9,0.2-1.7
		c0-0.9,0-2.1,0-3h0.8c0.2,0,0.4,0,0.8,0c0,0.9-0.2,2.4-0.2,4.5C177.8,174.3,177.8,175.4,177.8,176.9z"/>
	<path d="M192.1,176.9c-0.2,0-0.6,0-0.8,0c-0.2,0-0.4,0-0.8,0v-1.5c-0.2,0.2-0.2,0.4-0.4,0.6c-0.2,0.2-0.2,0.2-0.4,0.4
		c-0.2,0.2-0.4,0.2-0.4,0.4c-0.2,0-0.4,0.2-0.6,0.2s-0.4,0.2-0.8,0.2c-0.2,0-0.6,0-0.9,0c-0.8,0-1.3-0.2-1.7-0.4
		c-0.6-0.2-0.8-0.6-1.1-0.9c-0.2-0.4-0.4-0.9-0.4-1.5c0-0.2,0-0.2,0-0.6c0-0.2,0-0.6,0-0.9l0.2-2.8V169c0-0.2,0-0.4,0-0.8h0.8
		c0.2,0,0.4,0,0.8,0c0,0.9-0.2,2.1-0.2,3.2s-0.2,1.9-0.2,2.3c0,0.6,0,0.9,0.2,1.1c0.2,0.4,0.4,0.6,0.8,0.8c0.4,0.2,0.8,0.2,1.3,0.2
		c0.4,0,0.8,0,1.1-0.2c0.4-0.2,0.6-0.4,0.8-0.6c0.2-0.2,0.4-0.6,0.6-0.9c0.2-0.2,0.2-0.6,0.2-1.1c0-0.4,0-0.9,0.2-1.7
		c0-0.9,0-2.1,0-3h0.8c0.2,0,0.4,0,0.8,0c0,0.9-0.2,2.4-0.2,4.5C192.1,174.3,192.1,175.4,192.1,176.9z"/>
	<path d="M194.1,180.7c0.2-1.5,0.2-3.4,0.4-5.8c0.2-2.4,0.2-4.5,0.2-6c0.9-0.2,1.7-0.4,2.3-0.4c0.6,0,1.1-0.2,1.7-0.2
		c0.9,0,1.7,0.2,2.3,0.4c0.6,0.2,1.1,0.8,1.5,1.5c0.4,0.8,0.6,1.5,0.6,2.3c0,0.6,0,1.1-0.2,1.7c-0.2,0.6-0.4,1.1-0.8,1.5
		c-0.4,0.4-0.8,0.8-1.3,0.9c-0.6,0.2-0.9,0.4-1.7,0.4c-0.4,0-0.8,0-0.9-0.2c-0.4,0-0.6-0.2-0.9-0.4c-0.2-0.2-0.4-0.4-0.6-0.4
		c-0.2-0.2-0.4-0.4-0.6-0.8l-0.4,3.4c0,0.6,0,0.9,0,1.1v0.8c-0.2,0-0.6,0-0.8,0C194.7,180.7,194.5,180.7,194.1,180.7z M196,169.8
		v0.6v0.9c0,0.4,0,0.8,0,1.1c0,0.4,0,0.6,0,0.6c0,0.4,0,0.8,0.2,1.1c0,0.4,0.2,0.8,0.6,0.9c0.2,0.4,0.6,0.6,0.9,0.8
		c0.4,0.2,0.8,0.2,1.1,0.2c0.6,0,0.9-0.2,1.3-0.4c0.4-0.4,0.8-0.8,0.9-1.3c0.2-0.6,0.4-1.1,0.4-1.9c0-0.8-0.2-1.3-0.4-1.7
		c-0.2-0.4-0.6-0.8-0.9-1.1c-0.4-0.2-0.9-0.4-1.5-0.4C197.7,169.4,197,169.6,196,169.8z"/>
</g>
</svg>
