<?xml version="1.0" encoding="utf-8"?>
<!-- Generator: Adobe Illustrator 24.0.2, SVG Export Plug-In . SVG Version: 6.00 Build 0)  -->
<svg version="1.1" id="Layer_1" xmlns="http://www.w3.org/2000/svg" xmlns:xlink="http://www.w3.org/1999/xlink" x="0px" y="0px"
	 viewBox="0 0 216 216" style="enable-background:new 0 0 216 216;" xml:space="preserve">
<style type="text/css">
	.st0{fill:none;}
	.st1{fill:#8DC73F;stroke:#231F20;stroke-linecap:round;stroke-linejoin:round;}
	.st2{enable-background:new    ;}
	.st3{fill:#231F20;}
</style>
<title>urideLogo</title>
<rect class="st0" width="216" height="216"/>
<path class="st1" d="M121.2,74.6v40.5c0,2.2-1.8,4.1-4.1,4.1h-44c-2.2,0-4.1-1.8-4.1-4.1V96.8h-4l4-7.1l2-3.4l6-10.5l6,10.5l2,3.4
	l4.1,7.1H85v2.4c0,2.2,1.8,4.1,4.1,4.1h12c2.3,0,4.1-1.8,4.1-4.1V74.6c0-2.3,1.8-4.1,4.1-4.1h7.8C119.3,70.6,121.2,72.4,121.2,74.6z
	"/>
<path class="st1" d="M151.1,79.5l-6.3,3.6l0,0l-1.5,0.8l-2.5,1.4l-5.2,3v-3.2c-3.9,0.9-7.4,3-10.2,6c0-4.5,0-9,0.1-13.4
	c1.3-1.1,2.8-2,4.4-2.7c0.9-0.4,1.7-0.6,2.6-0.9c1-0.3,2-0.5,3-0.6l0,0v-3l3.4,2l1.8,1l2.5,1.5L151.1,79.5z"/>
<g class="st2">
	<path class="st3" d="M71,128.2c0-0.4,0.5-0.4,0.9-0.4c0.4,0,0.9,0.1,0.9,0.4v4.9c0,1.2-1.2,1.7-2.6,1.7c-1.6,0-2.6-0.5-2.6-1.7
		v-4.8c0-0.4,0.5-0.4,0.9-0.4s0.9,0.1,0.9,0.4v4.3c0,0.6,0.3,0.8,0.8,0.8c0.5,0,0.8-0.1,0.8-0.8V128.2z"/>
	<path class="st3" d="M80.1,132.2c-0.2,0-0.3-0.2-0.3-0.7c0-0.4,0.1-0.7,0.3-0.7h2.3c0.2,0,0.3,0.3,0.3,0.7c0,0.4-0.1,0.7-0.3,0.7
		H80.1z"/>
</g>
<g class="st2">
	<path class="st3" d="M91.6,134.2c0,0.3-0.5,0.4-0.9,0.4c-0.4,0-0.9-0.1-0.9-0.4v-5.7c0-0.5,0.3-0.8,0.9-0.8h1.9
		c1.4,0,2.2,0.6,2.2,1.8c0,0.8-0.2,1.2-0.7,1.6c-0.2,0.1-0.2,0.2-0.2,0.4c0,0.1,0.1,0.3,0.1,0.4l0.9,1.7c0,0.1,0.1,0.2,0.1,0.3
		c0,0.5-0.7,0.6-1.1,0.6c-0.4,0-0.6-0.1-0.7-0.3l-0.8-1.7c-0.2-0.4-0.3-0.5-0.5-0.5c-0.2,0-0.3,0.1-0.3,0.3V134.2z M91.6,130.6
		c0,0.3,0.1,0.4,0.4,0.4c0.6,0,0.9-0.2,0.9-1c0-0.7-0.2-0.9-0.8-0.9c-0.5,0-0.5,0.1-0.5,0.4V130.6z"/>
	<path class="st3" d="M102.2,134.2c0,0.3-0.5,0.4-0.9,0.4c-0.4,0-0.9-0.1-0.9-0.4v-6.1c0-0.3,0.5-0.4,0.9-0.4c0.4,0,0.9,0.1,0.9,0.4
		V134.2z"/>
	<path class="st3" d="M109,134.6c-0.6,0-0.9-0.3-0.9-0.8v-5.3c0-0.5,0.3-0.8,0.9-0.8h1.8c2.2,0,2.6,1.7,2.6,3.4s-0.4,3.4-2.6,3.4
		H109z M110.6,129.2h-0.2c-0.4,0-0.4,0-0.4,0.4v3.3c0,0.3,0.1,0.4,0.4,0.4h0.2c0.8,0,1-0.5,1-2C111.6,129.6,111.4,129.2,110.6,129.2
		z"/>
	<path class="st3" d="M121.3,129.2c-0.2,0-0.3,0.1-0.3,0.3v0.7c0,0.2,0,0.3,0.3,0.3h1.3c0.3,0,0.4,0.4,0.4,0.7
		c0,0.2-0.1,0.7-0.4,0.7h-1.3c-0.2,0-0.3,0-0.3,0.3v0.7c0,0.2,0,0.3,0.3,0.3h1.6c0.3,0,0.4,0.4,0.4,0.7c0,0.3-0.1,0.8-0.4,0.8h-2.7
		c-0.6,0-0.9-0.3-0.9-0.8v-5.3c0-0.5,0.3-0.8,0.9-0.8h2.6c0.3,0,0.4,0.4,0.4,0.7c0,0.3-0.1,0.7-0.4,0.7H121.3z"/>
</g>
<g class="st2">
	<path class="st3" d="M101.3,143.4c-0.6-1.8-1-3.2-1.3-4c0.3,0,0.5,0,0.8,0c0.2,0,0.5,0,0.7,0l0.6,2l0.1,0.4l0.3-0.8l0.6-1.6
		c0.3,0,0.5,0,0.8,0c0.3,0,0.5,0,0.7,0l0.5,2.2l0.1,0.3l0.1-0.2c0,0,0.1-0.2,0.1-0.3l0.7-1.9c0.3,0,0.5,0,0.7,0c0.2,0,0.4,0,0.7,0
		l-1.4,3.4l-0.2,0.6c-0.3,0-0.5,0-0.7,0c-0.2,0-0.5,0-0.8,0l-0.3-1.1c-0.1-0.2-0.1-0.6-0.3-1.2c-0.4,1.1-0.7,1.9-0.8,2.4
		c-0.3,0-0.5,0-0.7,0C101.9,143.4,101.6,143.4,101.3,143.4z"/>
	<path class="st3" d="M111.4,142.2c0,0.2-0.1,0.5-0.2,1.1c-0.3,0.1-0.6,0.1-0.8,0.1c-0.2,0-0.4,0-0.6,0c-0.3,0-0.6,0-0.9-0.1
		c-0.3,0-0.5-0.1-0.7-0.2c-0.2-0.1-0.3-0.2-0.5-0.4c-0.1-0.2-0.2-0.4-0.3-0.6s-0.1-0.5-0.1-0.7c0-0.3,0.1-0.7,0.2-1
		c0.1-0.3,0.3-0.6,0.5-0.7c0.2-0.2,0.5-0.3,0.7-0.4s0.6-0.1,0.8-0.1c0.3,0,0.6,0,0.8,0.1s0.5,0.2,0.7,0.4s0.3,0.4,0.4,0.6
		c0.1,0.2,0.1,0.4,0.1,0.7c0,0.1,0,0.3-0.1,0.5l-2.7,0c0,0,0,0.1,0,0.1c0,0.3,0.1,0.5,0.3,0.6c0.2,0.1,0.4,0.2,0.7,0.2
		c0.2,0,0.4,0,0.6-0.1C110.8,142.4,111,142.3,111.4,142.2z M109,140.9h1.3c0,0,0-0.1,0-0.1c0-0.1,0-0.3-0.1-0.3
		c0-0.1-0.1-0.2-0.2-0.2s-0.2-0.1-0.3-0.1c-0.1,0-0.2,0-0.2,0c-0.1,0-0.1,0.1-0.2,0.1s-0.1,0.1-0.1,0.2s-0.1,0.1-0.1,0.2
		C109,140.8,109,140.8,109,140.9z"/>
	<path class="st3" d="M114.1,145.2c0-0.5,0.1-1.1,0.1-1.6c0.1-0.9,0.1-1.7,0.1-2.3c0-0.6,0-1.2,0-1.8c0.5-0.1,0.9-0.1,1.2-0.2
		s0.6,0,0.9,0c0.4,0,0.7,0,1,0.1s0.6,0.2,0.8,0.4s0.3,0.4,0.4,0.7c0.1,0.3,0.1,0.6,0.1,0.9c0,0.3,0,0.5-0.1,0.8s-0.2,0.5-0.4,0.7
		c-0.2,0.2-0.3,0.4-0.6,0.5c-0.2,0.1-0.4,0.1-0.7,0.1c-0.1,0-0.3,0-0.4,0s-0.3-0.1-0.4-0.1c-0.1,0-0.2-0.1-0.3-0.1s-0.2-0.1-0.3-0.2
		l0,1.1c0,0.5,0,0.9,0,1.1c-0.3,0-0.6,0-0.8,0C114.7,145.2,114.5,145.2,114.1,145.2z M115.9,140.5c0,0.1,0,0.2,0,0.3s0,0.2,0,0.3
		s0,0.2,0,0.3c0,0.2,0,0.4,0.1,0.5s0.2,0.3,0.3,0.3s0.2,0.1,0.4,0.1c0.1,0,0.3,0,0.4-0.1s0.2-0.2,0.3-0.4s0.1-0.3,0.1-0.6
		c0-0.3-0.1-0.5-0.2-0.7c-0.1-0.2-0.4-0.3-0.6-0.3C116.3,140.4,116.1,140.4,115.9,140.5z"/>
	<path class="st3" d="M119.5,143.4c0-0.3,0.1-0.6,0.1-0.8c0-0.2,0-0.5,0.1-0.8c0-0.3,0-0.7,0-1.1s0-0.8,0-1.4c0.3,0,0.6,0,0.8,0
		c0.2,0,0.5,0,0.8,0c0,0.5-0.1,0.9-0.1,1.3s0,0.8,0,1.2c0,0.7,0,1.2,0,1.5c-0.3,0-0.6,0-0.8,0C120.1,143.4,119.8,143.4,119.5,143.4z
		 M119.7,138.9c0-0.3,0-0.6,0-0.7c0-0.1,0-0.1,0-0.2c0.3,0,0.6,0,0.8,0c0.3,0,0.6,0,0.8,0c0,0.1,0,0.1,0,0.2l0,0.5
		c0,0.1,0,0.2,0,0.3c-0.3,0-0.5,0-0.7,0C120.3,138.9,120,138.9,119.7,138.9z"/>
	<path class="st3" d="M125.3,142.1c0,0.1,0,0.3-0.1,0.6l-0.1,0.6c-0.4,0.1-0.8,0.1-1.2,0.1c-0.3,0-0.5,0-0.7-0.1
		c-0.3-0.1-0.5-0.2-0.7-0.4c-0.2-0.2-0.4-0.4-0.4-0.6c-0.1-0.3-0.2-0.6-0.2-1c0-0.3,0.1-0.6,0.2-0.9s0.3-0.5,0.5-0.7
		c0.2-0.2,0.5-0.3,0.7-0.4c0.3-0.1,0.5-0.1,0.9-0.1c0.2,0,0.4,0,0.6,0s0.4,0.1,0.7,0.1l0,0.1c0,0.1,0,0.2,0,0.3s0,0.3,0,0.5l0,0.3
		c-0.4-0.1-0.7-0.2-1-0.2c-0.2,0-0.4,0-0.5,0.1c-0.2,0.1-0.3,0.2-0.3,0.3s-0.1,0.3-0.1,0.5c0,0.2,0,0.4,0.1,0.5s0.2,0.2,0.3,0.3
		c0.1,0.1,0.3,0.1,0.5,0.1c0.1,0,0.2,0,0.3,0s0.2,0,0.3-0.1S125.2,142.2,125.3,142.1z"/>
	<path class="st3" d="M126,143.4c0-0.3,0.1-0.6,0.1-0.8c0-0.3,0-0.6,0.1-1.1l0-0.9c0-0.4,0-0.8,0-1.2c0-0.5,0-0.9,0-1.3
		c0.4,0,0.6,0,0.8,0c0.2,0,0.5,0,0.8,0c-0.1,0.7-0.1,1.5-0.2,2.5s-0.1,1.9-0.1,2.8c-0.3,0-0.6,0-0.8,0
		C126.6,143.4,126.3,143.4,126,143.4z M127.7,141.1l0.7-1l0.5-0.8c0.4,0,0.6,0,0.8,0c0.3,0,0.6,0,0.9,0l-0.8,1
		c-0.2,0.2-0.4,0.5-0.6,0.7c0.2,0.3,0.6,1.1,1.3,2.2c-0.3,0-0.6,0-0.8,0c-0.3,0-0.5,0-0.9,0l-0.2-0.5c-0.1-0.2-0.2-0.3-0.2-0.4
		c0,0-0.2-0.4-0.5-1L127.7,141.1z"/>
	<path class="st3" d="M132.7,145.2c-0.1-0.6-0.1-1-0.2-1.2c0.2,0.1,0.3,0.1,0.4,0.2c0.1,0,0.2,0,0.3,0c0.1,0,0.2,0,0.3,0
		s0.2-0.1,0.2-0.1s0.1-0.1,0.2-0.2s0.1-0.1,0.1-0.2c0-0.1,0.1-0.1,0.1-0.2l-0.7-2.2l-0.6-1.8c0.4,0,0.7,0,0.8,0c0.2,0,0.4,0,0.7,0
		c0,0.2,0.1,0.5,0.3,1c0.1,0.5,0.2,0.9,0.3,1.2c0,0.2,0.1,0.3,0.1,0.6l0.1-0.3c0-0.1,0.1-0.2,0.1-0.3s0.1-0.2,0.1-0.4l0.3-0.7
		l0.4-1.1c0.3,0,0.6,0,0.7,0c0.1,0,0.4,0,0.8,0l-0.8,1.7l-1.4,3.2c-0.1,0.2-0.2,0.3-0.3,0.4c-0.1,0.1-0.2,0.2-0.2,0.2
		c-0.1,0.1-0.2,0.1-0.3,0.2c-0.1,0.1-0.3,0.1-0.4,0.1c-0.2,0-0.3,0.1-0.5,0.1c-0.1,0-0.2,0-0.3,0s-0.2,0-0.3,0
		S132.8,145.2,132.7,145.2z"/>
	<path class="st3" d="M140.1,139.3c0.3,0,0.6,0,0.9,0.1c0.3,0.1,0.6,0.2,0.8,0.4c0.2,0.2,0.4,0.4,0.5,0.7s0.1,0.5,0.1,0.8
		c0,0.3,0,0.5-0.1,0.8c-0.1,0.3-0.2,0.5-0.4,0.7c-0.2,0.2-0.5,0.4-0.8,0.5c-0.3,0.1-0.7,0.2-1,0.2c-0.3,0-0.6,0-1-0.1
		s-0.6-0.2-0.8-0.4c-0.2-0.2-0.4-0.4-0.5-0.7c-0.1-0.3-0.2-0.5-0.2-0.8s0.1-0.6,0.2-0.8c0.1-0.3,0.3-0.5,0.5-0.7
		c0.2-0.2,0.5-0.4,0.8-0.5S139.7,139.3,140.1,139.3z M140,140.4c-0.2,0-0.3,0-0.4,0.1c-0.1,0.1-0.2,0.2-0.3,0.4s-0.1,0.3-0.1,0.5
		c0,0.3,0.1,0.5,0.2,0.7c0.1,0.2,0.3,0.2,0.5,0.2c0.2,0,0.3,0,0.4-0.1c0.1-0.1,0.2-0.2,0.3-0.4s0.1-0.4,0.1-0.5c0-0.2,0-0.3-0.1-0.4
		c-0.1-0.1-0.1-0.2-0.3-0.3C140.3,140.5,140.2,140.4,140,140.4z"/>
	<path class="st3" d="M147.3,143.4c-0.3,0-0.5,0-0.7,0c-0.2,0-0.5,0-0.7,0l0-0.5c-0.1,0.1-0.2,0.2-0.2,0.3c-0.1,0.1-0.1,0.1-0.2,0.2
		c-0.1,0-0.2,0.1-0.3,0.1s-0.2,0.1-0.3,0.1s-0.2,0-0.4,0c-0.2,0-0.4,0-0.6-0.1s-0.3-0.1-0.5-0.2c-0.1-0.1-0.2-0.2-0.3-0.4
		s-0.1-0.3-0.1-0.5c0,0,0-0.1,0-0.2l0.1-0.9c0-0.3,0-0.7,0.1-1.1c0-0.2,0-0.5,0-0.7c0.3,0,0.6,0,0.8,0c0.2,0,0.5,0,0.8,0l-0.1,1.5
		c0,0.2,0,0.4,0,0.5s0,0.1,0,0.2c0,0.3,0.1,0.5,0.2,0.6c0.1,0.1,0.2,0.1,0.4,0.1c0.1,0,0.1,0,0.2,0s0.1,0,0.2-0.1
		c0,0,0.1-0.1,0.1-0.1c0,0,0.1-0.1,0.1-0.2c0-0.1,0.1-0.2,0.1-0.3c0-0.1,0.1-0.3,0.1-0.5c0-0.2,0-0.4,0-0.8l0-0.8c0.3,0,0.6,0,0.8,0
		c0.2,0,0.5,0,0.7,0c-0.1,0.7-0.1,1.3-0.1,1.9C147.4,141.9,147.3,142.6,147.3,143.4z"/>
	<path class="st3" d="M154.6,143.4c-0.3,0-0.5,0-0.7,0c-0.2,0-0.5,0-0.7,0l0-0.5c-0.1,0.1-0.2,0.2-0.2,0.3c-0.1,0.1-0.1,0.1-0.2,0.2
		c-0.1,0-0.2,0.1-0.3,0.1s-0.2,0.1-0.3,0.1s-0.2,0-0.4,0c-0.2,0-0.4,0-0.6-0.1s-0.3-0.1-0.5-0.2c-0.1-0.1-0.2-0.2-0.3-0.4
		s-0.1-0.3-0.1-0.5c0,0,0-0.1,0-0.2l0.1-0.9c0-0.3,0-0.7,0.1-1.1c0-0.2,0-0.5,0-0.7c0.3,0,0.6,0,0.8,0c0.2,0,0.5,0,0.8,0l-0.1,1.5
		c0,0.2,0,0.4,0,0.5s0,0.1,0,0.2c0,0.3,0.1,0.5,0.2,0.6c0.1,0.1,0.2,0.1,0.4,0.1c0.1,0,0.1,0,0.2,0s0.1,0,0.2-0.1
		c0,0,0.1-0.1,0.1-0.1c0,0,0.1-0.1,0.1-0.2c0-0.1,0.1-0.2,0.1-0.3c0-0.1,0.1-0.3,0.1-0.5c0-0.2,0-0.4,0-0.8l0-0.8c0.3,0,0.6,0,0.8,0
		c0.2,0,0.5,0,0.7,0c-0.1,0.7-0.1,1.3-0.1,1.9C154.6,141.9,154.6,142.6,154.6,143.4z"/>
	<path class="st3" d="M155.3,145.2c0-0.5,0.1-1.1,0.1-1.6c0.1-0.9,0.1-1.7,0.1-2.3c0-0.6,0-1.2,0-1.8c0.5-0.1,0.9-0.1,1.2-0.2
		s0.6,0,0.9,0c0.4,0,0.7,0,1,0.1s0.6,0.2,0.8,0.4s0.3,0.4,0.4,0.7c0.1,0.3,0.1,0.6,0.1,0.9c0,0.3,0,0.5-0.1,0.8s-0.2,0.5-0.4,0.7
		c-0.2,0.2-0.3,0.4-0.6,0.5c-0.2,0.1-0.4,0.1-0.7,0.1c-0.1,0-0.3,0-0.4,0s-0.3-0.1-0.4-0.1c-0.1,0-0.2-0.1-0.3-0.1s-0.2-0.1-0.3-0.2
		l0,1.1c0,0.5,0,0.9,0,1.1c-0.3,0-0.6,0-0.8,0C156,145.2,155.7,145.2,155.3,145.2z M157.1,140.5c0,0.1,0,0.2,0,0.3s0,0.2,0,0.3
		s0,0.2,0,0.3c0,0.2,0,0.4,0.1,0.5s0.2,0.3,0.3,0.3s0.2,0.1,0.4,0.1c0.1,0,0.3,0,0.4-0.1s0.2-0.2,0.3-0.4s0.1-0.3,0.1-0.6
		c0-0.3-0.1-0.5-0.2-0.7c-0.1-0.2-0.4-0.3-0.6-0.3C157.6,140.4,157.4,140.4,157.1,140.5z"/>
</g>
</svg>
