<?xml version="1.0" encoding="utf-8"?>
<!-- Generator: Adobe Illustrator 24.0.2, SVG Export Plug-In . SVG Version: 6.00 Build 0)  -->
<svg version="1.1" id="Layer_1" xmlns="http://www.w3.org/2000/svg" xmlns:xlink="http://www.w3.org/1999/xlink" x="0px" y="0px"
	 viewBox="0 0 216 216" style="enable-background:new 0 0 216 216;" xml:space="preserve">
<style type="text/css">
	.st0{fill:none;}
	.st1{fill:#8DC73F;stroke:#231F20;stroke-linecap:round;stroke-linejoin:round;}
	.st2{enable-background:new    ;}
	.st3{fill:#231F20;}
</style>
<title>urideLogo</title>
<rect class="st0" width="216" height="216"/>
<path class="st1" d="M121.2,74.6v40.5c0,2.2-1.8,4.1-4.1,4.1h-44c-2.2,0-4.1-1.8-4.1-4.1V96.8h-4l4-7.1l2-3.4l6-10.5l6,10.5l2,3.4
	l4.1,7.1H85v2.4c0,2.2,1.8,4.1,4.1,4.1h12c2.3,0,4.1-1.8,4.1-4.1V74.6c0-2.3,1.8-4.1,4.1-4.1h7.8C119.3,70.6,121.2,72.4,121.2,74.6z
	"/>
<path class="st1" d="M151.1,79.5l-6.3,3.6l0,0l-1.5,0.8l-2.5,1.4l-5.2,3v-3.2c-3.9,0.9-7.4,3-10.2,6c0-4.5,0-9,0.1-13.4
	c1.3-1.1,2.8-2,4.4-2.7c0.9-0.4,1.7-0.6,2.6-0.9c1-0.3,2-0.5,3-0.6l0,0v-3l3.4,2l1.8,1l2.5,1.5L151.1,79.5z"/>
<g class="st2">
	<path class="st3" d="M71,128.2c0-0.4,0.5-0.4,0.9-0.4c0.4,0,0.9,0.1,0.9,0.4v4.9c0,1.2-1.2,1.7-2.6,1.7c-1.6,0-2.6-0.5-2.6-1.7
		v-4.8c0-0.4,0.5-0.4,0.9-0.4s0.9,0.1,0.9,0.4v4.3c0,0.6,0.3,0.8,0.8,0.8c0.5,0,0.8-0.1,0.8-0.8V128.2z"/>
	<path class="st3" d="M80.1,132.2c-0.2,0-0.3-0.2-0.3-0.7c0-0.4,0.1-0.7,0.3-0.7h2.3c0.2,0,0.3,0.3,0.3,0.7c0,0.4-0.1,0.7-0.3,0.7
		H80.1z"/>
</g>
<g class="st2">
	<path class="st3" d="M91.6,134.2c0,0.3-0.5,0.4-0.9,0.4c-0.4,0-0.9-0.1-0.9-0.4v-5.7c0-0.5,0.3-0.8,0.9-0.8h1.9
		c1.4,0,2.2,0.6,2.2,1.8c0,0.8-0.2,1.2-0.7,1.6c-0.2,0.1-0.2,0.2-0.2,0.4c0,0.1,0.1,0.3,0.1,0.4l0.9,1.7c0,0.1,0.1,0.2,0.1,0.3
		c0,0.5-0.7,0.6-1.1,0.6c-0.4,0-0.6-0.1-0.7-0.3l-0.8-1.7c-0.2-0.4-0.3-0.5-0.5-0.5c-0.2,0-0.3,0.1-0.3,0.3V134.2z M91.6,130.6
		c0,0.3,0.1,0.4,0.4,0.4c0.6,0,0.9-0.2,0.9-1c0-0.7-0.2-0.9-0.8-0.9c-0.5,0-0.5,0.1-0.5,0.4V130.6z"/>
	<path class="st3" d="M102.2,134.2c0,0.3-0.5,0.4-0.9,0.4c-0.4,0-0.9-0.1-0.9-0.4v-6.1c0-0.3,0.5-0.4,0.9-0.4c0.4,0,0.9,0.1,0.9,0.4
		V134.2z"/>
	<path class="st3" d="M109,134.6c-0.6,0-0.9-0.3-0.9-0.8v-5.3c0-0.5,0.3-0.8,0.9-0.8h1.8c2.2,0,2.6,1.7,2.6,3.4s-0.4,3.4-2.6,3.4
		H109z M110.6,129.2h-0.2c-0.4,0-0.4,0-0.4,0.4v3.3c0,0.3,0.1,0.4,0.4,0.4h0.2c0.8,0,1-0.5,1-2C111.6,129.6,111.4,129.2,110.6,129.2
		z"/>
	<path class="st3" d="M121.3,129.2c-0.2,0-0.3,0.1-0.3,0.3v0.7c0,0.2,0,0.3,0.3,0.3h1.3c0.3,0,0.4,0.4,0.4,0.7
		c0,0.2-0.1,0.7-0.4,0.7h-1.3c-0.2,0-0.3,0-0.3,0.3v0.7c0,0.2,0,0.3,0.3,0.3h1.6c0.3,0,0.4,0.4,0.4,0.7c0,0.3-0.1,0.8-0.4,0.8h-2.7
		c-0.6,0-0.9-0.3-0.9-0.8v-5.3c0-0.5,0.3-0.8,0.9-0.8h2.6c0.3,0,0.4,0.4,0.4,0.7c0,0.3-0.1,0.7-0.4,0.7H121.3z"/>
</g>
<g>
	<path d="M102.1,145.1l-0.2-0.6l-1.4-3.8c0.2,0,0.3,0,0.4,0c0.1,0,0.2,0,0.4,0l0.4,1.2l0.9,2.6l1.4-3.8c0.2,0,0.3,0,0.4,0
		c0.1,0,0.3,0,0.4,0l1,3.8l1.2-2.9l0.3-0.9c0.2,0,0.3,0,0.4,0l0.4,0l-1.5,3.3l-0.5,1.1c-0.1,0-0.3,0-0.4,0c-0.1,0-0.3,0-0.4,0
		l-0.8-3.1c-0.1-0.2-0.1-0.4-0.2-0.6l-0.1,0.2c0,0.1-0.1,0.2-0.2,0.5l-0.9,2.5c0,0.1-0.1,0.3-0.2,0.4c-0.1,0-0.3,0-0.4,0
		C102.4,145.1,102.2,145.1,102.1,145.1z"/>
	<path d="M112.1,144.4c0,0.2-0.1,0.4-0.1,0.6c-0.3,0.1-0.5,0.1-0.7,0.1c-0.2,0-0.4,0-0.6,0c-0.4,0-0.7,0-1-0.1
		c-0.3-0.1-0.5-0.2-0.7-0.5c-0.2-0.2-0.4-0.5-0.4-0.8s-0.1-0.6-0.1-0.9c0-0.4,0.1-0.8,0.3-1.2c0.2-0.4,0.4-0.7,0.8-0.9
		c0.3-0.2,0.8-0.3,1.3-0.3c0.3,0,0.5,0,0.8,0.1c0.2,0.1,0.4,0.2,0.6,0.4s0.3,0.4,0.4,0.6c0.1,0.2,0.1,0.5,0.1,0.8c0,0.1,0,0.2,0,0.3
		h-3.4c0,0.2,0,0.3,0,0.4c0,0.3,0.1,0.6,0.2,0.9c0.1,0.3,0.3,0.5,0.6,0.6c0.3,0.1,0.5,0.2,0.9,0.2
		C111.1,144.7,111.5,144.6,112.1,144.4z M109.1,142.3h2.6c0-0.2,0-0.3,0-0.4s-0.1-0.2-0.1-0.3c-0.1-0.1-0.1-0.2-0.2-0.3
		c-0.1-0.1-0.2-0.1-0.3-0.2c-0.1,0-0.3-0.1-0.4-0.1c-0.2,0-0.3,0-0.5,0.1c-0.2,0-0.3,0.1-0.4,0.2c-0.1,0.1-0.2,0.2-0.3,0.3
		c-0.1,0.1-0.1,0.2-0.2,0.3C109.2,142,109.2,142.2,109.1,142.3z"/>
	<path d="M115.4,147.1c0.1-0.8,0.1-1.8,0.2-3.1c0.1-1.3,0.1-2.4,0.1-3.2c0.5-0.1,0.9-0.2,1.2-0.2c0.3,0,0.6-0.1,0.9-0.1
		c0.5,0,0.9,0.1,1.2,0.2c0.3,0.1,0.6,0.4,0.8,0.8c0.2,0.4,0.3,0.8,0.3,1.2c0,0.3,0,0.6-0.1,0.9c-0.1,0.3-0.2,0.6-0.4,0.8
		c-0.2,0.2-0.4,0.4-0.7,0.5c-0.3,0.1-0.5,0.2-0.9,0.2c-0.2,0-0.4,0-0.5-0.1c-0.2,0-0.3-0.1-0.5-0.2c-0.1-0.1-0.2-0.2-0.3-0.2
		c-0.1-0.1-0.2-0.2-0.3-0.4l-0.1,1.7c0,0.3,0,0.5,0,0.6v0.4c-0.1,0-0.3,0-0.4,0C115.7,147.1,115.5,147.1,115.4,147.1z M116.4,141.3
		l0,0.3l0,0.5c0,0.2,0,0.4,0,0.6c0,0.2,0,0.3,0,0.3c0,0.2,0,0.4,0.1,0.6c0,0.2,0.1,0.4,0.3,0.5c0.1,0.2,0.3,0.3,0.5,0.4
		s0.4,0.1,0.6,0.1c0.3,0,0.5-0.1,0.7-0.2c0.2-0.2,0.4-0.4,0.5-0.7c0.1-0.3,0.2-0.6,0.2-1c0-0.4-0.1-0.7-0.2-0.9s-0.3-0.4-0.5-0.6
		c-0.2-0.1-0.5-0.2-0.8-0.2C117.3,141.1,116.8,141.2,116.4,141.3z"/>
	<path d="M120.8,145.1l0.1-1.1l0.1-1.9l0-1.5l0.4,0l0.4,0c0,0.5-0.1,0.9-0.1,1.4c0,0.5,0,1-0.1,1.6s0,1.1,0,1.4c-0.2,0-0.3,0-0.4,0
		C121.1,145.1,121,145.1,120.8,145.1z M121,139.7c0-0.3,0-0.5,0-0.6c0.2,0,0.3,0,0.4,0c0.2,0,0.3,0,0.4,0c0,0.1,0,0.3,0,0.6
		c-0.2,0-0.3,0-0.4,0C121.3,139.7,121.2,139.7,121,139.7z"/>
	<path d="M126.1,144.4c0,0,0,0.1,0,0.3c0,0.1,0,0.3-0.1,0.4c-0.2,0-0.4,0.1-0.6,0.1c-0.2,0-0.4,0-0.5,0c-0.3,0-0.6,0-0.9-0.1
		c-0.3-0.1-0.5-0.2-0.7-0.4c-0.2-0.2-0.3-0.4-0.4-0.7c-0.1-0.3-0.1-0.6-0.1-0.9c0-0.4,0.1-0.8,0.2-1.2c0.2-0.4,0.4-0.7,0.7-0.9
		c0.3-0.2,0.8-0.3,1.3-0.3c0.4,0,0.8,0.1,1.2,0.2c0,0.2,0,0.5,0,0.6c-0.3-0.1-0.5-0.1-0.7-0.2c-0.2,0-0.3,0-0.5,0
		c-0.3,0-0.5,0-0.7,0.1c-0.2,0.1-0.4,0.2-0.5,0.4s-0.2,0.4-0.3,0.6c-0.1,0.2-0.1,0.5-0.1,0.7c0,0.3,0.1,0.6,0.2,0.9
		c0.1,0.3,0.3,0.4,0.5,0.6c0.3,0.1,0.5,0.2,0.9,0.2C125.3,144.7,125.7,144.6,126.1,144.4z"/>
	<path d="M127.1,145.1l0.1-1.2l0.1-2.3l0-1.9c0-0.3,0-0.5,0-0.6l0.4,0c0.1,0,0.2,0,0.4,0c0,0.5-0.1,1.4-0.1,2.7
		c-0.1,1.4-0.1,2.4-0.1,3.3c-0.2,0-0.3,0-0.4,0C127.4,145.1,127.2,145.1,127.1,145.1z M128,142.6l0.9-1c0.3-0.3,0.6-0.7,0.9-1
		c0.2,0,0.3,0,0.4,0c0.1,0,0.3,0,0.5,0l-1.9,2c0.4,0.5,1,1.3,2.1,2.5c-0.2,0-0.3,0-0.4,0s-0.3,0-0.5,0l-0.6-0.9
		c-0.1-0.1-0.2-0.2-0.4-0.5l-0.7-0.8L128,142.6z"/>
	<path d="M132.9,147.1c0-0.2,0-0.5-0.1-0.6c0.1,0.1,0.3,0.1,0.4,0.1c0.1,0,0.2,0,0.3,0c0.1,0,0.2,0,0.3-0.1s0.2-0.1,0.3-0.2
		c0.1-0.1,0.1-0.2,0.2-0.3c0.1-0.1,0.2-0.3,0.2-0.4c0.1-0.2,0.2-0.3,0.2-0.5l-0.9-2.7l-0.7-1.9c0.2,0,0.4,0,0.4,0c0.1,0,0.2,0,0.4,0
		c0,0.2,0.1,0.4,0.1,0.5s0.1,0.3,0.2,0.7l0.7,2c0.1,0.2,0.1,0.5,0.2,0.7l0.5-1.2l0.9-2.1c0-0.1,0.1-0.1,0.1-0.2
		c0-0.1,0.1-0.2,0.1-0.3c0.2,0,0.3,0,0.4,0c0.1,0,0.2,0,0.4,0c-0.1,0.3-0.4,0.9-0.8,1.8l-1.6,3.6c-0.1,0.2-0.2,0.4-0.3,0.6
		c-0.1,0.1-0.2,0.2-0.2,0.3c-0.1,0.1-0.1,0.1-0.2,0.2c-0.1,0.1-0.2,0.1-0.4,0.1c-0.1,0-0.3,0-0.4,0
		C133.4,147.2,133.1,147.2,132.9,147.1z"/>
	<path d="M140.2,140.6c0.3,0,0.6,0,0.9,0.1s0.5,0.2,0.7,0.4c0.2,0.2,0.4,0.4,0.5,0.7c0.1,0.3,0.2,0.6,0.2,0.9c0,0.3-0.1,0.7-0.2,1
		c-0.1,0.3-0.3,0.6-0.5,0.8c-0.2,0.2-0.5,0.4-0.7,0.5c-0.3,0.1-0.6,0.2-0.9,0.2c-0.3,0-0.6,0-0.9-0.1s-0.5-0.2-0.7-0.4
		c-0.2-0.2-0.4-0.4-0.5-0.7c-0.1-0.3-0.2-0.6-0.2-0.9c0-0.5,0.1-0.9,0.3-1.3c0.2-0.4,0.5-0.7,0.9-0.9
		C139.4,140.7,139.8,140.6,140.2,140.6z M140.2,141.1c-0.3,0-0.6,0.1-0.8,0.2c-0.3,0.1-0.4,0.4-0.6,0.7c-0.1,0.3-0.2,0.6-0.2,1
		c0,0.3,0,0.6,0.1,0.8c0.1,0.2,0.3,0.4,0.5,0.6s0.5,0.2,0.8,0.2c0.2,0,0.4,0,0.6-0.1c0.2-0.1,0.4-0.2,0.5-0.4
		c0.1-0.2,0.3-0.4,0.3-0.6c0.1-0.3,0.1-0.5,0.1-0.8c0-0.3,0-0.5-0.1-0.7s-0.2-0.4-0.3-0.5c-0.1-0.1-0.3-0.2-0.5-0.3
		C140.6,141.1,140.4,141.1,140.2,141.1z"/>
	<path d="M147.5,145.1c-0.1,0-0.3,0-0.4,0c-0.1,0-0.2,0-0.4,0l0-0.8c-0.1,0.1-0.1,0.2-0.2,0.3c-0.1,0.1-0.1,0.1-0.2,0.2
		c-0.1,0.1-0.2,0.1-0.2,0.2c-0.1,0-0.2,0.1-0.3,0.1c-0.1,0-0.2,0.1-0.4,0.1c-0.1,0-0.3,0-0.5,0c-0.4,0-0.7-0.1-0.9-0.2
		c-0.3-0.1-0.4-0.3-0.6-0.5c-0.1-0.2-0.2-0.5-0.2-0.8c0-0.1,0-0.1,0-0.3c0-0.1,0-0.3,0-0.5l0.1-1.5l0-0.5c0-0.1,0-0.2,0-0.4l0.4,0
		c0.1,0,0.2,0,0.4,0c0,0.5-0.1,1.1-0.1,1.7s-0.1,1-0.1,1.2c0,0.3,0,0.5,0.1,0.6c0.1,0.2,0.2,0.3,0.4,0.4c0.2,0.1,0.4,0.1,0.7,0.1
		c0.2,0,0.4,0,0.6-0.1c0.2-0.1,0.3-0.2,0.4-0.3c0.1-0.1,0.2-0.3,0.3-0.5c0.1-0.1,0.1-0.3,0.1-0.6c0-0.2,0-0.5,0.1-0.9
		c0-0.5,0-1.1,0-1.6l0.4,0c0.1,0,0.2,0,0.4,0c0,0.5-0.1,1.3-0.1,2.4C147.5,143.7,147.5,144.3,147.5,145.1z"/>
	<path d="M155.1,145.1c-0.1,0-0.3,0-0.4,0c-0.1,0-0.2,0-0.4,0l0-0.8c-0.1,0.1-0.1,0.2-0.2,0.3c-0.1,0.1-0.1,0.1-0.2,0.2
		c-0.1,0.1-0.2,0.1-0.2,0.2c-0.1,0-0.2,0.1-0.3,0.1c-0.1,0-0.2,0.1-0.4,0.1c-0.1,0-0.3,0-0.5,0c-0.4,0-0.7-0.1-0.9-0.2
		c-0.3-0.1-0.4-0.3-0.6-0.5c-0.1-0.2-0.2-0.5-0.2-0.8c0-0.1,0-0.1,0-0.3c0-0.1,0-0.3,0-0.5l0.1-1.5l0-0.5c0-0.1,0-0.2,0-0.4l0.4,0
		c0.1,0,0.2,0,0.4,0c0,0.5-0.1,1.1-0.1,1.7s-0.1,1-0.1,1.2c0,0.3,0,0.5,0.1,0.6c0.1,0.2,0.2,0.3,0.4,0.4c0.2,0.1,0.4,0.1,0.7,0.1
		c0.2,0,0.4,0,0.6-0.1c0.2-0.1,0.3-0.2,0.4-0.3c0.1-0.1,0.2-0.3,0.3-0.5c0.1-0.1,0.1-0.3,0.1-0.6c0-0.2,0-0.5,0.1-0.9
		c0-0.5,0-1.1,0-1.6l0.4,0c0.1,0,0.2,0,0.4,0c0,0.5-0.1,1.3-0.1,2.4C155.1,143.7,155.1,144.3,155.1,145.1z"/>
	<path d="M156.2,147.1c0.1-0.8,0.1-1.8,0.2-3.1c0.1-1.3,0.1-2.4,0.1-3.2c0.5-0.1,0.9-0.2,1.2-0.2c0.3,0,0.6-0.1,0.9-0.1
		c0.5,0,0.9,0.1,1.2,0.2c0.3,0.1,0.6,0.4,0.8,0.8c0.2,0.4,0.3,0.8,0.3,1.2c0,0.3,0,0.6-0.1,0.9c-0.1,0.3-0.2,0.6-0.4,0.8
		c-0.2,0.2-0.4,0.4-0.7,0.5c-0.3,0.1-0.5,0.2-0.9,0.2c-0.2,0-0.4,0-0.5-0.1c-0.2,0-0.3-0.1-0.5-0.2c-0.1-0.1-0.2-0.2-0.3-0.2
		c-0.1-0.1-0.2-0.2-0.3-0.4L157,146c0,0.3,0,0.5,0,0.6v0.4c-0.1,0-0.3,0-0.4,0C156.5,147.1,156.4,147.1,156.2,147.1z M157.2,141.3
		l0,0.3l0,0.5c0,0.2,0,0.4,0,0.6c0,0.2,0,0.3,0,0.3c0,0.2,0,0.4,0.1,0.6c0,0.2,0.1,0.4,0.3,0.5c0.1,0.2,0.3,0.3,0.5,0.4
		s0.4,0.1,0.6,0.1c0.3,0,0.5-0.1,0.7-0.2c0.2-0.2,0.4-0.4,0.5-0.7c0.1-0.3,0.2-0.6,0.2-1c0-0.4-0.1-0.7-0.2-0.9s-0.3-0.4-0.5-0.6
		c-0.2-0.1-0.5-0.2-0.8-0.2C158.1,141.1,157.7,141.2,157.2,141.3z"/>
</g>
</svg>
