<?xml version="1.0" encoding="utf-8"?>
<!-- Generator: Adobe Illustrator 24.1.1, SVG Export Plug-In . SVG Version: 6.00 Build 0)  -->
<svg version="1.1" id="Layer_1" xmlns="http://www.w3.org/2000/svg" xmlns:xlink="http://www.w3.org/1999/xlink" x="0px" y="0px"
	 viewBox="0 0 216 216" style="enable-background:new 0 0 216 216;" xml:space="preserve">
<style type="text/css">
	.st0{fill:none;}
	.st1{fill:#8DC73F;}
	.st2{fill:#231F20;}
	.st3{enable-background:new    ;}
	.st4{fill:#8CC63F;stroke:#8DC640;stroke-width:1.7588;stroke-linecap:round;stroke-linejoin:round;stroke-miterlimit:10;}
	.st5{fill:#FAAF40;stroke:#231F20;stroke-width:1.7588;stroke-linecap:round;stroke-linejoin:round;stroke-miterlimit:10;}
</style>
<rect x="-242.1" y="-40.4" class="st0" width="216" height="216"/>
<path class="st1" d="M-107.1,4.1v76c0,4.1-3.4,7.7-7.7,7.7h-82.6c-4.1,0-7.7-3.4-7.7-7.7V45.8h-7.5l7.5-13.3l3.8-6.4L-190,6.4
	l11.3,19.7l3.8,6.4l7.7,13.3h-7.7v4.5c0,4.1,3.4,7.7,7.7,7.7h22.5c4.3,0,7.7-3.4,7.7-7.7V4.1c0-4.3,3.4-7.7,7.7-7.7h14.6
	C-110.6-3.4-107.1,0-107.1,4.1z"/>
<path class="st1" d="M-55.6,13.3l-11.8,6.8l0,0l-2.8,1.5l-4.7,2.6l-9.8,5.6v-6c-7.3,1.7-13.9,5.6-19.1,11.3c0-8.4,0-16.9,0.2-25.2
	c2.4-2.1,5.3-3.8,8.3-5.1c1.7-0.8,3.2-1.1,4.9-1.7c1.9-0.6,3.8-0.9,5.6-1.1l0,0v-5.6l6.4,3.8l3.4,1.9l4.7,2.8L-55.6,13.3z"/>
<path class="st2" d="M-194.4,104.2c0-0.8,0.9-0.8,1.7-0.8c0.8,0,1.7,0.2,1.7,0.8v9.2c0,2.3-2.3,3.2-4.9,3.2c-3,0-4.9-0.9-4.9-3.2v-9
	c0-0.8,0.9-0.8,1.7-0.8s1.7,0.2,1.7,0.8v8.1c0,1.1,0.6,1.5,1.5,1.5c0.9,0,1.5-0.2,1.5-1.5V104.2L-194.4,104.2z"/>
<path class="st2" d="M-184.7,112.2c-0.4,0-0.6-0.4-0.6-1.3c0-0.8,0.2-1.3,0.6-1.3h4.3c0.4,0,0.6,0.6,0.6,1.3c0,0.8-0.2,1.3-0.6,1.3
	H-184.7z"/>
<g class="st3">
	<path class="st2" d="M-169.7,115.9c0,0.6-0.9,0.8-1.7,0.8c-0.8,0-1.7-0.2-1.7-0.8v-10.7c0-0.9,0.6-1.5,1.7-1.5h3.6
		c2.6,0,4.1,1.1,4.1,3.4c0,1.5-0.4,2.3-1.3,3c-0.4,0.2-0.4,0.4-0.4,0.8c0,0.2,0.2,0.6,0.2,0.8l1.7,3.2c0,0.2,0.2,0.4,0.2,0.6
		c0,0.9-1.3,1.1-2.1,1.1c-0.8,0-1.1-0.2-1.3-0.6l-1.5-3.2c-0.4-0.8-0.6-0.9-0.9-0.9c-0.4,0-0.6,0.2-0.6,0.6L-169.7,115.9
		L-169.7,115.9z M-169.7,109.2c0,0.6,0.2,0.8,0.8,0.8c1.1,0,1.7-0.4,1.7-1.9c0-1.3-0.4-1.7-1.5-1.7c-0.9,0-0.9,0.2-0.9,0.8
		L-169.7,109.2L-169.7,109.2z"/>
	<path class="st2" d="M-149.8,115.9c0,0.6-0.9,0.8-1.7,0.8s-1.7-0.2-1.7-0.8v-11.4c0-0.6,0.9-0.8,1.7-0.8c0.8,0,1.7,0.2,1.7,0.8
		V115.9z"/>
	<path class="st2" d="M-137.1,116.7c-1.1,0-1.7-0.6-1.7-1.5v-10c0-0.9,0.6-1.5,1.7-1.5h3.4c4.1,0,4.9,3.2,4.9,6.4s-0.8,6.4-4.9,6.4
		h-3.4V116.7z M-134.1,106.6h-0.4c-0.8,0-0.8,0-0.8,0.8v6.2c0,0.6,0.2,0.8,0.8,0.8h0.4c1.5,0,1.9-0.9,1.9-3.8
		C-132.2,107.3-132.6,106.6-134.1,106.6z"/>
	<path class="st2" d="M-114,106.6c-0.4,0-0.6,0.2-0.6,0.6v1.3c0,0.4,0,0.6,0.6,0.6h2.4c0.6,0,0.8,0.8,0.8,1.3c0,0.4-0.2,1.3-0.8,1.3
		h-2.4c-0.4,0-0.6,0-0.6,0.6v1.3c0,0.4,0,0.6,0.6,0.6h3c0.6,0,0.8,0.8,0.8,1.3c0,0.6-0.2,1.5-0.8,1.5h-5.1c-1.1,0-1.7-0.6-1.7-1.5
		v-10c0-0.9,0.6-1.5,1.7-1.5h4.9c0.6,0,0.8,0.8,0.8,1.3c0,0.6-0.2,1.3-0.8,1.3L-114,106.6L-114,106.6z"/>
</g>
<g>
	<path d="M-166.1,134.9l-0.4-1.1l-2.6-7.1c0.4,0,0.6,0,0.8,0c0.2,0,0.4,0,0.8,0l0.8,2.3l1.7,4.9l2.6-7.1c0.4,0,0.6,0,0.8,0
		s0.6,0,0.8,0l1.9,7.1l2.3-5.4l0.6-1.7c0.4,0,0.6,0,0.8,0h0.8l-2.8,6.2l-0.9,2.1c-0.2,0-0.6,0-0.8,0s-0.6,0-0.8,0l-1.5-5.8
		c-0.2-0.4-0.2-0.8-0.4-1.1l-0.2,0.4c0,0.2-0.2,0.4-0.4,0.9l-1.7,4.7c0,0.2-0.2,0.6-0.4,0.8c-0.2,0-0.6,0-0.8,0
		C-165.6,134.9-165.9,134.9-166.1,134.9z"/>
	<path d="M-147.3,133.6c0,0.4-0.2,0.8-0.2,1.1c-0.6,0.2-0.9,0.2-1.3,0.2c-0.4,0-0.8,0-1.1,0c-0.8,0-1.3,0-1.9-0.2
		c-0.6-0.2-0.9-0.4-1.3-0.9c-0.4-0.4-0.8-0.9-0.8-1.5s-0.2-1.1-0.2-1.7c0-0.8,0.2-1.5,0.6-2.3c0.4-0.8,0.8-1.3,1.5-1.7
		c0.6-0.4,1.5-0.6,2.4-0.6c0.6,0,0.9,0,1.5,0.2c0.4,0.2,0.8,0.4,1.1,0.8c0.4,0.4,0.6,0.8,0.8,1.1c0.2,0.4,0.2,0.9,0.2,1.5
		c0,0.2,0,0.4,0,0.6h-6.4c0,0.4,0,0.6,0,0.8c0,0.6,0.2,1.1,0.4,1.7c0.2,0.6,0.6,0.9,1.1,1.1c0.6,0.2,0.9,0.4,1.7,0.4
		C-149.2,134.2-148.5,134-147.3,133.6z M-153,129.7h4.9c0-0.4,0-0.6,0-0.8s-0.2-0.4-0.2-0.6c-0.2-0.2-0.2-0.4-0.4-0.6
		c-0.2-0.2-0.4-0.2-0.6-0.4c-0.2,0-0.6-0.2-0.8-0.2c-0.4,0-0.6,0-0.9,0.2c-0.4,0-0.6,0.2-0.8,0.4c-0.2,0.2-0.4,0.4-0.6,0.6
		c-0.2,0.2-0.2,0.4-0.4,0.6C-152.8,129.1-152.8,129.5-153,129.7z"/>
	<path d="M-141.2,138.7c0.2-1.5,0.2-3.4,0.4-5.8c0.2-2.4,0.2-4.5,0.2-6c0.9-0.2,1.7-0.4,2.3-0.4c0.6,0,1.1-0.2,1.7-0.2
		c0.9,0,1.7,0.2,2.3,0.4c0.6,0.2,1.1,0.8,1.5,1.5c0.4,0.8,0.6,1.5,0.6,2.3c0,0.6,0,1.1-0.2,1.7c-0.2,0.6-0.4,1.1-0.8,1.5
		c-0.4,0.4-0.8,0.8-1.3,0.9c-0.6,0.2-0.9,0.4-1.7,0.4c-0.4,0-0.8,0-0.9-0.2c-0.4,0-0.6-0.2-0.9-0.4c-0.2-0.2-0.4-0.4-0.6-0.4
		c-0.2-0.2-0.4-0.4-0.6-0.8l-0.2,3.2c0,0.6,0,0.9,0,1.1v0.8c-0.2,0-0.6,0-0.8,0C-140.6,138.7-141,138.7-141.2,138.7z M-139.3,127.8
		v0.6v0.9c0,0.4,0,0.8,0,1.1c0,0.4,0,0.6,0,0.6c0,0.4,0,0.8,0.2,1.1c0,0.4,0.2,0.8,0.6,0.9c0.2,0.4,0.6,0.6,0.9,0.8
		c0.4,0.2,0.8,0.2,1.1,0.2c0.6,0,0.9-0.2,1.3-0.4c0.4-0.4,0.8-0.8,0.9-1.3c0.2-0.6,0.4-1.1,0.4-1.9c0-0.8-0.2-1.3-0.4-1.7
		s-0.6-0.8-0.9-1.1c-0.4-0.2-0.9-0.4-1.5-0.4C-137.6,127.4-138.5,127.6-139.3,127.8z"/>
	<path d="M-131,134.9l0.2-2.1l0.2-3.6v-2.8h0.8h0.8c0,0.9-0.2,1.7-0.2,2.6s0,1.9-0.2,3s0,2.1,0,2.6c-0.4,0-0.6,0-0.8,0
		C-130.4,134.9-130.6,134.9-131,134.9z M-130.6,124.8c0-0.6,0-0.9,0-1.1c0.4,0,0.6,0,0.8,0c0.4,0,0.6,0,0.8,0c0,0.2,0,0.6,0,1.1
		c-0.4,0-0.6,0-0.8,0C-130,124.8-130.3,124.8-130.6,124.8z"/>
	<path d="M-121.1,133.6c0,0,0,0.2,0,0.6c0,0.2,0,0.6-0.2,0.8c-0.4,0-0.8,0.2-1.1,0.2c-0.4,0-0.8,0-0.9,0c-0.6,0-1.1,0-1.7-0.2
		s-0.9-0.4-1.3-0.8c-0.4-0.4-0.6-0.8-0.8-1.3c-0.2-0.6-0.2-1.1-0.2-1.7c0-0.8,0.2-1.5,0.4-2.3c0.4-0.8,0.8-1.3,1.3-1.7
		s1.5-0.6,2.4-0.6c0.8,0,1.5,0.2,2.3,0.4c0,0.4,0,0.9,0,1.1c-0.6-0.2-0.9-0.2-1.3-0.4c-0.4,0-0.6,0-0.9,0c-0.6,0-0.9,0-1.3,0.2
		s-0.8,0.4-0.9,0.8c-0.2,0.4-0.4,0.8-0.6,1.1c-0.2,0.4-0.2,0.9-0.2,1.3c0,0.6,0.2,1.1,0.4,1.7c0.2,0.6,0.6,0.8,0.9,1.1
		c0.6,0.2,0.9,0.4,1.7,0.4C-122.6,134.2-121.8,134-121.1,133.6z"/>
	<path d="M-119.2,134.9l0.2-2.3l0.2-4.3v-3.6c0-0.6,0-0.9,0-1.1h0.8c0.2,0,0.4,0,0.8,0c0,0.9-0.2,2.6-0.2,5.1
		c-0.2,2.6-0.2,4.5-0.2,6.2c-0.4,0-0.6,0-0.8,0C-118.6,134.9-119,134.9-119.2,134.9z M-117.5,130.2l1.7-1.9c0.6-0.6,1.1-1.3,1.7-1.9
		c0.4,0,0.6,0,0.8,0s0.6,0,0.9,0l-3.6,3.8c0.8,0.9,1.9,2.4,3.9,4.7c-0.4,0-0.6,0-0.8,0s-0.6,0-0.9,0l-1.1-1.7
		c-0.2-0.2-0.4-0.4-0.8-0.9l-1.3-1.5L-117.5,130.2z"/>
	<path d="M-108.3,138.7c0-0.4,0-0.9-0.2-1.1c0.2,0.2,0.6,0.2,0.8,0.2s0.4,0,0.6,0s0.4,0,0.6-0.2c0.2-0.2,0.4-0.2,0.6-0.4
		c0.2-0.2,0.2-0.4,0.4-0.6c0.2-0.2,0.4-0.6,0.4-0.8c0.2-0.4,0.4-0.6,0.4-0.9l-1.7-5.1l-1.3-3.6c0.4,0,0.8,0,0.8,0c0.2,0,0.4,0,0.8,0
		c0,0.4,0.2,0.8,0.2,0.9s0.2,0.6,0.4,1.3l1.3,3.8c0.2,0.4,0.2,0.9,0.4,1.3l0.9-2.3l1.7-3.9c0-0.2,0.2-0.2,0.2-0.4s0.2-0.4,0.2-0.6
		c0.4,0,0.6,0,0.8,0s0.4,0,0.8,0c-0.2,0.6-0.8,1.7-1.5,3.4l-3,6.8c-0.2,0.4-0.4,0.8-0.6,1.1c-0.2,0.2-0.4,0.4-0.4,0.6
		c-0.2,0.2-0.2,0.2-0.4,0.4s-0.4,0.2-0.8,0.2c-0.2,0-0.6,0-0.8,0C-107.4,138.8-107.9,138.8-108.3,138.7z"/>
	<path d="M-94.6,126.5c0.6,0,1.1,0,1.7,0.2c0.6,0.2,0.9,0.4,1.3,0.8c0.4,0.4,0.8,0.8,0.9,1.3c0.2,0.6,0.4,1.1,0.4,1.7
		c0,0.6-0.2,1.3-0.4,1.9c-0.2,0.6-0.6,1.1-0.9,1.5c-0.4,0.4-0.9,0.8-1.3,0.9c-0.6,0.2-1.1,0.4-1.7,0.4c-0.6,0-1.1,0-1.7-0.2
		c-0.6-0.2-0.9-0.4-1.3-0.8c-0.4-0.4-0.8-0.8-0.9-1.3c-0.2-0.6-0.4-1.1-0.4-1.7c0-0.9,0.2-1.7,0.6-2.4c0.4-0.8,0.9-1.3,1.7-1.7
		C-96.1,126.6-95.3,126.5-94.6,126.5z M-94.6,127.4c-0.6,0-1.1,0.2-1.5,0.4c-0.6,0.2-0.8,0.8-1.1,1.3c-0.2,0.6-0.4,1.1-0.4,1.9
		c0,0.6,0,1.1,0.2,1.5s0.6,0.8,0.9,1.1c0.4,0.4,0.9,0.4,1.5,0.4c0.4,0,0.8,0,1.1-0.2c0.4-0.2,0.8-0.4,0.9-0.8
		c0.2-0.4,0.6-0.8,0.6-1.1c0.2-0.6,0.2-0.9,0.2-1.5s0-0.9-0.2-1.3c-0.2-0.4-0.4-0.8-0.6-0.9s-0.6-0.4-0.9-0.6
		C-93.8,127.4-94.2,127.4-94.6,127.4z"/>
	<path d="M-80.9,134.9c-0.2,0-0.6,0-0.8,0s-0.4,0-0.8,0v-1.5c-0.2,0.2-0.2,0.4-0.4,0.6c-0.2,0.2-0.2,0.2-0.4,0.4s-0.4,0.2-0.4,0.4
		c-0.2,0-0.4,0.2-0.6,0.2s-0.4,0.2-0.8,0.2c-0.2,0-0.6,0-0.9,0c-0.8,0-1.3-0.2-1.7-0.4c-0.6-0.2-0.8-0.6-1.1-0.9
		c-0.2-0.4-0.4-0.9-0.4-1.5c0-0.2,0-0.2,0-0.6c0-0.2,0-0.6,0-0.9l0.2-2.8V127c0-0.2,0-0.4,0-0.8h0.8c0.2,0,0.4,0,0.8,0
		c0,0.9-0.2,2.1-0.2,3.2s-0.2,1.9-0.2,2.3c0,0.6,0,0.9,0.2,1.1c0.2,0.4,0.4,0.6,0.8,0.8c0.4,0.2,0.8,0.2,1.3,0.2
		c0.4,0,0.8,0,1.1-0.2c0.4-0.2,0.6-0.4,0.8-0.6c0.2-0.2,0.4-0.6,0.6-0.9c0.2-0.2,0.2-0.6,0.2-1.1c0-0.4,0-0.9,0.2-1.7
		c0-0.9,0-2.1,0-3h0.8c0.2,0,0.4,0,0.8,0c0,0.9-0.2,2.4-0.2,4.5C-80.9,132.3-80.9,133.4-80.9,134.9z"/>
	<path d="M-66.6,134.9c-0.2,0-0.6,0-0.8,0s-0.4,0-0.8,0v-1.5c-0.2,0.2-0.2,0.4-0.4,0.6c-0.2,0.2-0.2,0.2-0.4,0.4s-0.4,0.2-0.4,0.4
		c-0.2,0-0.4,0.2-0.6,0.2s-0.4,0.2-0.8,0.2c-0.2,0-0.6,0-0.9,0c-0.8,0-1.3-0.2-1.7-0.4c-0.6-0.2-0.8-0.6-1.1-0.9
		c-0.2-0.4-0.4-0.9-0.4-1.5c0-0.2,0-0.2,0-0.6c0-0.2,0-0.6,0-0.9l0.2-2.8V127c0-0.2,0-0.4,0-0.8h0.8c0.2,0,0.4,0,0.8,0
		c0,0.9-0.2,2.1-0.2,3.2s-0.2,1.9-0.2,2.3c0,0.6,0,0.9,0.2,1.1c0.2,0.4,0.4,0.6,0.8,0.8c0.4,0.2,0.8,0.2,1.3,0.2
		c0.4,0,0.8,0,1.1-0.2c0.4-0.2,0.6-0.4,0.8-0.6c0.2-0.2,0.4-0.6,0.6-0.9c0.2-0.2,0.2-0.6,0.2-1.1c0-0.4,0-0.9,0.2-1.7
		c0-0.9,0-2.1,0-3h0.8c0.2,0,0.4,0,0.8,0c0,0.9-0.2,2.4-0.2,4.5C-66.6,132.3-66.6,133.4-66.6,134.9z"/>
	<path d="M-64.6,138.7c0.2-1.5,0.2-3.4,0.4-5.8c0.2-2.4,0.2-4.5,0.2-6c0.9-0.2,1.7-0.4,2.3-0.4s1.1-0.2,1.7-0.2
		c0.9,0,1.7,0.2,2.3,0.4s1.1,0.8,1.5,1.5c0.4,0.8,0.6,1.5,0.6,2.3c0,0.6,0,1.1-0.2,1.7c-0.2,0.6-0.4,1.1-0.8,1.5
		c-0.4,0.4-0.8,0.8-1.3,0.9c-0.6,0.2-0.9,0.4-1.7,0.4c-0.4,0-0.8,0-0.9-0.2c-0.4,0-0.6-0.2-0.9-0.4c-0.2-0.2-0.4-0.4-0.6-0.4
		c-0.2-0.2-0.4-0.4-0.6-0.8l-0.4,3.4c0,0.6,0,0.9,0,1.1v0.8c-0.2,0-0.6,0-0.8,0C-64,138.7-64.2,138.7-64.6,138.7z M-62.7,127.8v0.6
		v0.9c0,0.4,0,0.8,0,1.1c0,0.4,0,0.6,0,0.6c0,0.4,0,0.8,0.2,1.1c0,0.4,0.2,0.8,0.6,0.9c0.2,0.4,0.6,0.6,0.9,0.8
		c0.4,0.2,0.8,0.2,1.1,0.2c0.6,0,0.9-0.2,1.3-0.4c0.4-0.4,0.8-0.8,0.9-1.3c0.2-0.6,0.4-1.1,0.4-1.9c0-0.8-0.2-1.3-0.4-1.7
		s-0.6-0.8-0.9-1.1c-0.4-0.2-0.9-0.4-1.5-0.4C-61,127.4-61.7,127.6-62.7,127.8z"/>
</g>
<path class="st4" d="M134.3,49.5v71.3c0,1.9-0.8,3.7-2,4.9c-1.3,1.4-3.1,2.3-5.2,2.3H49.8c-3.9,0-7.2-3.2-7.2-7.2V88.5h-7.2
	l7.2-12.4l3.4-6l10.6-18.4l10.6,18.4l3.4,6l7.2,12.4h-7.2v4.2c0,3.9,3.2,7.2,7.2,7.2H99c4,0,7.2-3.2,7.2-7.2V49.5
	c0-4,3.2-7.2,7.2-7.2h13.8C131.1,42.3,134.3,45.6,134.3,49.5z"/>
<path class="st5" d="M159.7,68.1"/>
<path class="st4" d="M184.5,58.1l-11,6.4h0l-2.6,1.5l-4.4,2.6l-9.2,5.3v-5.6c-2.2,0.5-4.8,1.4-7.6,2.8c-4.8,2.4-8.2,5.5-10.3,7.8
	c0.1-7.9,0.1-15.8,0.2-23.7c3-2.6,5.8-4,7.7-4.8c1.9-0.8,3.7-1.3,4.7-1.6c2.1-0.6,3.9-0.9,5.3-1.1l0,0v-5.3l6,3.5l3.2,1.8l4.4,2.6
	L184.5,58.1z"/>
<path class="st5" d="M159.7,68.1"/>
<g>
	<path class="st2" d="M46.1,143.7c0-0.7,0.8-0.8,1.6-0.8c0.8,0,1.5,0.1,1.5,0.7v8.6c0,2.1-2,2.9-4.6,2.9c-2.9,0-4.5-0.9-4.5-2.9
		v-8.5c0-0.7,0.8-0.8,1.6-0.8c0.8,0,1.6,0.1,1.6,0.7v7.5c0,1.1,0.6,1.4,1.4,1.4c0.8,0,1.4-0.3,1.4-1.4V143.7z"/>
	<path class="st2" d="M62.1,150.8c-0.4,0-0.5-0.4-0.5-1.2c0-0.7,0.1-1.2,0.5-1.2h4c0.4,0,0.5,0.5,0.5,1.2c0,0.8-0.1,1.2-0.5,1.2
		H62.1z"/>
	<path class="st2" d="M82.3,154.3c0,0.6-0.9,0.7-1.6,0.7c-0.8,0-1.6-0.1-1.6-0.7v-10c0-0.8,0.5-1.3,1.6-1.3H84
		c2.5,0,3.9,1.1,3.9,3.3c0,1.4-0.4,2.1-1.2,2.8c-0.3,0.2-0.4,0.4-0.4,0.6c0,0.2,0.1,0.5,0.2,0.7l1.7,3c0.1,0.1,0.1,0.4,0.1,0.5
		c0,0.9-1.2,1.1-1.9,1.1c-0.7,0-1-0.2-1.2-0.5l-1.4-3c-0.3-0.6-0.5-0.8-0.9-0.8c-0.4,0-0.5,0.2-0.5,0.6V154.3z M82.3,147.9
		c0,0.5,0.1,0.7,0.6,0.7c1,0,1.6-0.4,1.6-1.8c0-1.2-0.4-1.6-1.3-1.6c-0.8,0-0.9,0.1-0.9,0.7V147.9z"/>
	<path class="st2" d="M101,154.3c0,0.6-0.9,0.7-1.6,0.7c-0.8,0-1.6-0.1-1.6-0.7v-10.8c0-0.6,0.9-0.7,1.6-0.7c0.8,0,1.6,0.1,1.6,0.7
		V154.3z"/>
	<path class="st2" d="M113,154.9c-1.1,0-1.6-0.5-1.6-1.3v-9.3c0-0.8,0.5-1.3,1.6-1.3h3.2c3.9,0,4.6,3,4.6,6c0,3-0.7,6-4.6,6H113z
		 M115.7,145.4h-0.4c-0.6,0-0.8,0-0.8,0.6v5.8c0,0.6,0.2,0.6,0.8,0.6h0.4c1.4,0,1.8-0.8,1.8-3.6
		C117.5,146.1,117.1,145.4,115.7,145.4z"/>
	<path class="st2" d="M134.5,145.5c-0.4,0-0.5,0.1-0.5,0.5v1.2c0,0.4,0.1,0.5,0.5,0.5h2.3c0.6,0,0.7,0.7,0.7,1.2
		c0,0.4-0.1,1.2-0.7,1.2h-2.3c-0.4,0-0.5,0.1-0.5,0.5v1.3c0,0.4,0.1,0.5,0.5,0.5h2.8c0.6,0,0.7,0.7,0.7,1.3c0,0.6-0.1,1.4-0.7,1.4
		h-4.8c-1.1,0-1.6-0.5-1.6-1.3v-9.3c0-0.8,0.5-1.3,1.6-1.3h4.6c0.6,0,0.7,0.7,0.7,1.2c0,0.6-0.1,1.3-0.7,1.3H134.5z"/>
</g>
<g>
	<path class="st2" d="M99.6,170.5l-0.3-1l-2.2-6c0.1,0,0.2,0,0.3,0c0.1,0,0.2,0,0.3,0l0.3,0.8l1.1,3l0.8,2c0.1,0.2,0.2,0.4,0.3,0.7
		l0.7-1.7l1.8-4.9c0.1,0,0.2,0,0.3,0c0.1,0,0.2,0,0.3,0l1.8,6.6c1.2-2.5,2.1-4.7,2.9-6.6c0.1,0,0.2,0,0.3,0s0.2,0,0.3,0l-2.7,5.9
		l-0.4,1c-0.2,0-0.3,0-0.4,0c-0.1,0-0.2,0-0.4,0l-0.3-1.3l-1.2-4.4c0-0.1-0.1-0.4-0.2-0.7l-0.2,0.5l-2,5.4c0,0.1-0.1,0.2-0.2,0.5
		c-0.2,0-0.3,0-0.4,0C99.9,170.4,99.7,170.4,99.6,170.5z"/>
	<path class="st2" d="M114.3,169.8c0,0.2-0.1,0.3-0.1,0.5c-0.4,0.1-0.7,0.2-1,0.2c-0.3,0-0.6,0.1-0.9,0.1c-0.5,0-1-0.1-1.5-0.2
		c-0.4-0.1-0.8-0.4-1.1-0.7c-0.3-0.3-0.5-0.7-0.6-1.2c-0.1-0.4-0.2-0.9-0.2-1.4c0-0.6,0.1-1.2,0.3-1.8s0.6-1,1.1-1.4
		c0.5-0.4,1.1-0.5,1.9-0.5c0.5,0,1,0.1,1.4,0.3c0.4,0.2,0.7,0.5,1,0.9s0.3,0.9,0.3,1.5c0,0.1,0,0.2,0,0.3l-5.4,0c0,0.3,0,0.5,0,0.7
		c0,0.4,0.1,0.9,0.2,1.3c0.1,0.4,0.3,0.7,0.6,1c0.3,0.3,0.6,0.5,0.9,0.6c0.4,0.1,0.7,0.2,1.1,0.2
		C112.8,170.2,113.5,170.1,114.3,169.8z M109.5,166.1l4.9,0c0-0.3,0-0.6-0.1-0.7c0-0.2-0.1-0.3-0.2-0.5s-0.2-0.3-0.3-0.5
		c-0.1-0.1-0.3-0.2-0.4-0.3c-0.2-0.1-0.3-0.2-0.5-0.2c-0.2,0-0.4-0.1-0.6-0.1c-0.2,0-0.5,0-0.7,0.1c-0.2,0.1-0.4,0.1-0.6,0.2
		c-0.2,0.1-0.4,0.2-0.5,0.4c-0.2,0.1-0.3,0.3-0.4,0.5c-0.1,0.2-0.2,0.3-0.2,0.5C109.6,165.6,109.5,165.8,109.5,166.1z"/>
	<path class="st2" d="M119.6,173.5l0.1-1.4l0.2-6.2l0-2.1c0.6-0.2,1.1-0.3,1.6-0.3s0.9-0.1,1.3-0.1c0.7,0,1.2,0.1,1.7,0.3
		s0.9,0.6,1.1,1.2s0.4,1.2,0.4,1.9c0,0.7-0.1,1.4-0.4,2c-0.3,0.6-0.7,1.1-1.2,1.4c-0.5,0.3-1,0.4-1.6,0.4c-0.3,0-0.5,0-0.8-0.1
		c-0.3-0.1-0.5-0.1-0.7-0.3c-0.2-0.1-0.4-0.3-0.6-0.4c-0.2-0.2-0.3-0.5-0.5-0.8l-0.1,3.6v0.2c0,0.2,0,0.4,0,0.7c-0.1,0-0.2,0-0.3,0
		C119.8,173.5,119.7,173.5,119.6,173.5z M120.4,164.2c0,0.4-0.1,0.9-0.1,1.7s0,1.2,0,1.4c0,0.4,0,0.8,0.1,1.1
		c0.1,0.3,0.2,0.7,0.5,0.9s0.5,0.5,0.9,0.6c0.3,0.1,0.7,0.2,1,0.2c0.5,0,1-0.1,1.4-0.4s0.7-0.7,1-1.2c0.2-0.5,0.3-1.1,0.3-1.8
		s-0.1-1.2-0.4-1.7c-0.2-0.5-0.6-0.8-1-1c-0.4-0.2-0.9-0.3-1.4-0.3C122.1,163.8,121.3,163.9,120.4,164.2z"/>
	<path class="st2" d="M127.6,170.5c0.1-0.7,0.1-1.9,0.2-3.6c0.1-1.7,0.1-2.8,0.1-3.3c0.1,0,0.2,0,0.3,0c0.1,0,0.2,0,0.3,0
		c-0.1,0.9-0.1,2.1-0.2,3.6c-0.1,1.5-0.1,2.6-0.1,3.4c-0.1,0-0.2,0-0.3,0C127.8,170.4,127.7,170.4,127.6,170.5z M127.9,161.8l0-0.7
		c0.1,0,0.2,0,0.4,0c0.1,0,0.2,0,0.3,0l0,0.7c-0.1,0-0.2,0-0.4,0S128,161.7,127.9,161.8z"/>
	<path class="st2" d="M135,169.9c0,0.2-0.1,0.4-0.1,0.5c-0.6,0.1-1.1,0.2-1.6,0.2c-0.5,0-0.9-0.1-1.3-0.2c-0.4-0.1-0.8-0.3-1.1-0.6
		c-0.3-0.3-0.5-0.7-0.7-1.1s-0.2-0.9-0.2-1.4c0-0.7,0.1-1.3,0.3-1.9c0.2-0.6,0.6-1.1,1.1-1.4c0.5-0.3,1.2-0.5,2-0.5
		c0.6,0,1.2,0.1,1.8,0.3c0,0.2,0,0.3,0,0.5c-0.5-0.1-0.8-0.2-1.1-0.3c-0.3,0-0.5-0.1-0.7-0.1c-0.5,0-0.9,0.1-1.3,0.3
		s-0.7,0.4-0.9,0.8s-0.4,0.7-0.5,1.1c-0.1,0.4-0.2,0.8-0.2,1.3c0,0.5,0.1,0.9,0.2,1.3s0.3,0.7,0.5,1s0.6,0.4,0.9,0.6
		c0.4,0.1,0.8,0.2,1.2,0.2c0.2,0,0.5,0,0.7-0.1S134.6,170,135,169.9z"/>
	<path class="st2" d="M136.6,170.5c0.1-0.9,0.1-2,0.2-3.1l0.1-3.5c0-1.2,0.1-2.1,0.1-2.8c0.1,0,0.2,0,0.3,0c0.1,0,0.2,0,0.3,0
		l-0.1,1.4l-0.2,6.5l0,1.5c-0.1,0-0.2,0-0.3,0C136.9,170.4,136.8,170.4,136.6,170.5z M137.3,166.6l1.9-1.8l0.6-0.6
		c0.1-0.1,0.2-0.2,0.3-0.3c0.1-0.1,0.2-0.2,0.4-0.4c0.1,0,0.2,0,0.4,0c0.1,0,0.2,0,0.4,0l-2.4,2.3c-0.2,0.2-0.5,0.5-0.8,0.8l2.5,2.7
		l1.1,1.2c-0.1,0-0.2,0-0.3,0c-0.1,0-0.2,0-0.4,0l-1.4-1.6L137.3,166.6z"/>
	<path class="st2" d="M144.6,173.6c0-0.2,0-0.3,0-0.5c0.1,0.1,0.3,0.1,0.4,0.1c0.1,0,0.2,0.1,0.3,0.1s0.3,0,0.4,0
		c0.3,0,0.5-0.1,0.7-0.2c0.2-0.1,0.5-0.4,0.7-0.8c0.2-0.4,0.5-1,0.8-1.7l-1.5-4.2l-1.1-2.9c0.1,0,0.2,0,0.3,0s0.2,0,0.3,0l0.1,0.5
		c0,0.2,0.1,0.4,0.2,0.6c0.1,0.3,0.2,0.6,0.4,1.1l1.6,4.5l2.2-4.8c0.2-0.4,0.3-0.8,0.4-1c0.1-0.2,0.2-0.5,0.3-0.8c0.1,0,0.2,0,0.3,0
		c0.1,0,0.2,0,0.3,0c-0.2,0.5-0.6,1.4-1.3,2.7l-1.3,2.9l-1.3,2.8c-0.2,0.4-0.4,0.8-0.5,1c-0.1,0.2-0.2,0.3-0.4,0.4
		c-0.1,0.1-0.2,0.2-0.3,0.2c-0.1,0.1-0.3,0.1-0.5,0.2c-0.2,0-0.4,0.1-0.5,0.1C145.2,173.8,144.9,173.7,144.6,173.6z"/>
	<path class="st2" d="M155.4,163.4c0.4,0,0.8,0.1,1.2,0.2c0.4,0.1,0.8,0.3,1.1,0.6s0.5,0.7,0.7,1.1c0.2,0.5,0.2,1,0.2,1.5
		c0,0.6-0.1,1.1-0.3,1.6c-0.2,0.5-0.4,0.9-0.7,1.3c-0.3,0.3-0.7,0.6-1.1,0.7c-0.4,0.1-0.9,0.2-1.3,0.2c-0.3,0-0.7,0-1-0.1
		c-0.3-0.1-0.6-0.2-0.9-0.4s-0.5-0.4-0.7-0.7c-0.2-0.3-0.4-0.6-0.5-1c-0.1-0.4-0.2-0.8-0.2-1.2c0-0.7,0.1-1.4,0.4-2
		c0.3-0.6,0.7-1.1,1.2-1.3C154.2,163.5,154.8,163.4,155.4,163.4z M155.4,163.8c-0.5,0-1.1,0.1-1.5,0.4s-0.8,0.7-1,1.2
		c-0.2,0.5-0.3,1.1-0.3,1.8c0,0.5,0.1,0.9,0.2,1.3c0.1,0.4,0.3,0.7,0.6,1c0.3,0.3,0.6,0.5,0.9,0.6c0.3,0.1,0.7,0.2,1,0.2
		c0.4,0,0.8-0.1,1.1-0.2s0.7-0.4,0.9-0.7c0.3-0.3,0.5-0.7,0.6-1.1c0.1-0.5,0.2-0.9,0.2-1.4c0-0.5-0.1-0.9-0.2-1.3s-0.3-0.7-0.6-1
		c-0.3-0.3-0.6-0.4-0.9-0.5S155.8,163.8,155.4,163.8z"/>
	<path class="st2" d="M166.2,170.5c-0.1,0-0.2,0-0.3,0c-0.1,0-0.2,0-0.3,0l0.1-1.5c-0.1,0.2-0.2,0.4-0.3,0.5
		c-0.1,0.1-0.2,0.2-0.3,0.3c-0.1,0.1-0.2,0.2-0.4,0.3c-0.2,0.1-0.3,0.2-0.6,0.3c-0.2,0.1-0.4,0.1-0.7,0.2c-0.2,0-0.5,0-0.7,0
		c-0.4,0-0.8,0-1.1-0.1c-0.3-0.1-0.6-0.2-0.9-0.5c-0.3-0.2-0.4-0.5-0.5-0.8c-0.1-0.3-0.1-0.6-0.1-1c0-0.3,0-1,0.1-2.1s0.1-2,0.1-2.7
		c0.1,0,0.2,0,0.3,0s0.1,0,0.3,0c0,0.4-0.1,1.2-0.2,2.5s-0.1,2-0.1,2.3c0,0.3,0,0.6,0.1,0.9c0.1,0.2,0.3,0.4,0.5,0.6
		s0.5,0.3,0.8,0.3c0.3,0.1,0.6,0.1,0.9,0.1c0.3,0,0.6,0,0.9-0.1s0.5-0.2,0.7-0.3s0.4-0.3,0.5-0.4c0.2-0.2,0.3-0.4,0.4-0.7
		c0.1-0.2,0.2-0.5,0.2-0.9c0.1-0.3,0.1-1,0.1-1.9c0-0.9,0-1.7,0.1-2.4c0.1,0,0.2,0,0.3,0s0.1,0,0.3,0l-0.3,4.8l0,1
		C166.2,169.8,166.2,170.1,166.2,170.5z"/>
	<path class="st2" d="M177.7,170.5c-0.1,0-0.2,0-0.3,0c-0.1,0-0.2,0-0.3,0l0.1-1.5c-0.1,0.2-0.2,0.4-0.3,0.5
		c-0.1,0.1-0.2,0.2-0.3,0.3c-0.1,0.1-0.2,0.2-0.4,0.3c-0.2,0.1-0.3,0.2-0.6,0.3c-0.2,0.1-0.4,0.1-0.7,0.2c-0.2,0-0.5,0-0.7,0
		c-0.4,0-0.8,0-1.1-0.1c-0.3-0.1-0.6-0.2-0.9-0.5c-0.3-0.2-0.4-0.5-0.5-0.8c-0.1-0.3-0.1-0.6-0.1-1c0-0.3,0-1,0.1-2.1s0.1-2,0.1-2.7
		c0.1,0,0.2,0,0.3,0s0.1,0,0.3,0c0,0.4-0.1,1.2-0.2,2.5s-0.1,2-0.1,2.3c0,0.3,0,0.6,0.1,0.9c0.1,0.2,0.3,0.4,0.5,0.6
		s0.5,0.3,0.8,0.3c0.3,0.1,0.6,0.1,0.9,0.1c0.3,0,0.6,0,0.9-0.1s0.5-0.2,0.7-0.3s0.4-0.3,0.5-0.4c0.2-0.2,0.3-0.4,0.4-0.7
		c0.1-0.2,0.2-0.5,0.2-0.9c0.1-0.3,0.1-1,0.1-1.9c0-0.9,0-1.7,0.1-2.4c0.1,0,0.2,0,0.3,0s0.1,0,0.3,0l-0.3,4.8l0,1
		C177.7,169.8,177.7,170.1,177.7,170.5z"/>
	<path class="st2" d="M179.6,173.5l0.1-1.4l0.2-6.2l0-2.1c0.6-0.2,1.1-0.3,1.6-0.3s0.9-0.1,1.3-0.1c0.7,0,1.2,0.1,1.7,0.3
		s0.9,0.6,1.1,1.2s0.4,1.2,0.4,1.9c0,0.7-0.1,1.4-0.4,2c-0.3,0.6-0.7,1.1-1.2,1.4c-0.5,0.3-1,0.4-1.6,0.4c-0.3,0-0.5,0-0.8-0.1
		c-0.3-0.1-0.5-0.1-0.7-0.3c-0.2-0.1-0.4-0.3-0.6-0.4c-0.2-0.2-0.3-0.5-0.5-0.8l-0.1,3.6v0.2c0,0.2,0,0.4,0,0.7c-0.1,0-0.2,0-0.3,0
		C179.8,173.5,179.7,173.5,179.6,173.5z M180.4,164.2c0,0.4-0.1,0.9-0.1,1.7s0,1.2,0,1.4c0,0.4,0,0.8,0.1,1.1
		c0.1,0.3,0.2,0.7,0.5,0.9s0.5,0.5,0.9,0.6c0.3,0.1,0.7,0.2,1,0.2c0.5,0,1-0.1,1.4-0.4s0.7-0.7,1-1.2c0.2-0.5,0.3-1.1,0.3-1.8
		s-0.1-1.2-0.4-1.7c-0.2-0.5-0.6-0.8-1-1c-0.4-0.2-0.9-0.3-1.4-0.3C182.1,163.8,181.3,163.9,180.4,164.2z"/>
</g>
<rect x="-78.8" y="-81.8" class="st0" width="379.9" height="379.9"/>
</svg>
